<svg width="25" height="27" viewBox="0 0 25 27" fill="none" xmlns="http://www.w3.org/2000/svg">
<path d="M18.75 3.37444C17.8857 3.37444 17.1875 2.62034 17.1875 1.68694C17.1875 0.753541 17.8857 -0.000560855 18.75 -0.000560855C19.6143 -0.000560855 20.3125 0.753541 20.3125 1.68694C20.3125 2.62034 19.6143 3.37444 18.75 3.37444ZM22.6562 11.8119C21.3623 11.8119 20.3125 10.6782 20.3125 9.28069C20.3125 7.88323 21.3623 6.74944 22.6562 6.74944C23.9502 6.74944 25 7.88323 25 9.28069C25 10.6782 23.9502 11.8119 22.6562 11.8119ZM6.25 24.4682C6.25 25.8657 5.2002 26.9994 3.90625 26.9994C2.6123 26.9994 1.5625 25.8657 1.5625 24.4682C1.5625 23.0707 2.6123 21.9369 3.90625 21.9369C5.2002 21.9369 6.25 23.0707 6.25 24.4682ZM17.4365 8.3051C17.4219 8.34202 17.4023 8.3842 17.3828 8.42112L16.5137 10.0506C15.9766 9.38616 15.1758 9.00647 14.3457 9.04338L15.3564 7.15549C15.6787 6.54905 16.3965 6.34338 16.958 6.69143C17.4854 7.01838 17.6855 7.71975 17.4414 8.3051H17.4365ZM8.95996 10.7836C5.4834 11.9807 3.125 15.4664 3.125 19.4057C3.125 19.4848 3.125 19.5639 3.12988 19.643C1.18652 18.293 0 15.9674 0 13.452V6.93401C0 6.23264 0.522461 5.66838 1.17188 5.66838C1.82129 5.66838 2.34375 6.23264 2.34375 6.93401V11.2424L8.01758 0.632252C8.33984 0.0258063 9.05762 -0.179858 9.61914 0.168189C10.1807 0.516236 10.3711 1.29143 10.0488 1.89788L6.92383 7.74612C6.81641 7.94651 6.87988 8.20491 7.06543 8.32092C7.25098 8.43694 7.49023 8.36838 7.59766 8.16799L11.5039 0.859009C11.8262 0.252564 12.5439 0.0469001 13.1055 0.394947C13.667 0.742994 13.8574 1.51819 13.5352 2.12463L9.62891 9.43362C9.52148 9.63401 9.58496 9.89241 9.77051 10.0084C9.95605 10.1244 10.1953 10.0559 10.3027 9.85549L13.4277 4.00725C13.75 3.40081 14.4678 3.19514 15.0293 3.54319C15.5908 3.89124 15.7812 4.66643 15.459 5.27288L13.3105 9.29124L8.95996 10.7836ZM21.875 25.4965C21.875 26.1504 21.416 26.6883 20.8252 26.7569C20.7861 26.7621 20.7471 26.7621 20.7031 26.7621H10.5469C9.46777 26.7621 8.45215 26.4457 7.58301 25.892C7.72949 25.4438 7.8125 24.9639 7.8125 24.4682C7.8125 22.4274 6.46973 20.724 4.6875 20.3338V20.2442C4.6875 20.1809 4.68262 20.1123 4.68262 20.049C4.68262 16.4631 6.83105 13.2832 10 12.1969L14.0967 10.7889C14.7119 10.578 15.3711 10.9471 15.5664 11.6115C15.7617 12.276 15.4199 12.9879 14.8047 13.1989L12.1777 14.1006H22.2656C22.915 14.1006 23.4375 14.6649 23.4375 15.3662C23.4375 16.0676 22.915 16.6319 22.2656 16.6319H16.0156C15.8008 16.6319 15.625 16.8217 15.625 17.0537C15.625 17.2858 15.8008 17.4756 16.0156 17.4756H23.8281C24.4775 17.4756 25 18.0399 25 18.7412C25 19.4426 24.4775 20.0069 23.8281 20.0069H16.0156C15.8008 20.0069 15.625 20.1967 15.625 20.4287C15.625 20.6608 15.8008 20.8506 16.0156 20.8506H22.2656C22.915 20.8506 23.4375 21.4149 23.4375 22.1162C23.4375 22.8176 22.915 23.3819 22.2656 23.3819H16.0156C15.8008 23.3819 15.625 23.5717 15.625 23.8037C15.625 24.0358 15.8008 24.2256 16.0156 24.2256H20.7031C21.3525 24.2256 21.875 24.7899 21.875 25.4912V25.4965Z" fill="#031624"/>
</svg>
