<svg width="24" height="23" viewBox="0 0 24 23" fill="none" xmlns="http://www.w3.org/2000/svg">
<path d="M16.8483 22.5V18.6119H12.9602V16.0199H16.8483V12.1318H19.4404V16.0199H23.3284V18.6119H19.4404V22.5H16.8483ZM0 18.6443V16.0523H2.59205V18.6443H0ZM5.18409 18.6443V16.0523H10.4654C10.4006 16.5059 10.3734 16.9379 10.3837 17.3483C10.395 17.7587 10.433 18.1907 10.4978 18.6443H5.18409ZM0 13.4602V10.8682H2.59205V13.4602H0ZM5.18409 13.4602V10.8682H13.8027C13.3058 11.2138 12.8579 11.6026 12.4587 12.0346C12.0586 12.4666 11.7074 12.9418 11.405 13.4602H5.18409ZM0 8.27614V5.68409H2.59205V8.27614H0ZM5.18409 8.27614V5.68409H20.7364V8.27614H5.18409ZM0 3.09205V0.5H2.59205V3.09205H0ZM5.18409 3.09205V0.5H20.7364V3.09205H5.18409Z" fill="#F4CA17"/>
</svg>
