<svg width="18" height="16" viewBox="0 0 18 16" fill="none" xmlns="http://www.w3.org/2000/svg">
<path fill-rule="evenodd" clip-rule="evenodd" d="M0 8.37067C0 8.0868 0.112862 7.81456 0.313758 7.61383C0.514653 7.4131 0.787126 7.30033 1.07124 7.30033H13.4826L8.88268 2.70644C8.68153 2.50546 8.56853 2.23287 8.56853 1.94864C8.56853 1.66441 8.68153 1.39183 8.88268 1.19084C9.08383 0.989863 9.35665 0.876953 9.64112 0.876953C9.92559 0.876953 10.1984 0.989863 10.3996 1.19084L16.827 7.61287C16.9267 7.7123 17.0059 7.83041 17.0599 7.96045C17.1139 8.09048 17.1417 8.22989 17.1417 8.37067C17.1417 8.51146 17.1139 8.65086 17.0599 8.7809C17.0059 8.91093 16.9267 9.02905 16.827 9.12847L10.3996 15.5505C10.1984 15.7515 9.92559 15.8644 9.64112 15.8644C9.35665 15.8644 9.08383 15.7515 8.88268 15.5505C8.68153 15.3495 8.56853 15.0769 8.56853 14.7927C8.56853 14.5085 8.68153 14.2359 8.88268 14.0349L13.4826 9.44101H1.07124C0.787126 9.44101 0.514653 9.32824 0.313758 9.12752C0.112862 8.92679 0 8.65454 0 8.37067Z" fill="#37A9FB"/>
</svg>
