<svg width="23" height="22" viewBox="0 0 23 22" fill="none" xmlns="http://www.w3.org/2000/svg">
<path d="M14.48 6.84972L14.5368 6.97024L14.6685 6.99027L21.2684 7.99386C21.2685 7.99388 21.2687 7.99391 21.2688 7.99393C21.5808 8.0427 21.8126 8.35059 21.7614 8.69775L21.761 8.7004C21.7422 8.83797 21.6804 8.96266 21.588 9.05745L16.8127 13.9287L16.724 14.0191L16.7445 14.1441L17.8728 21.0232L17.8728 21.0234C17.9301 21.3711 17.7056 21.6847 17.3966 21.7405L17.3962 21.7405C17.2732 21.7629 17.1449 21.7423 17.0349 21.681L17.0337 21.6804L11.1298 18.4326L11.0093 18.3663L10.8888 18.4326L4.9848 21.6804L4.98441 21.6806C4.88924 21.7332 4.78284 21.7564 4.67701 21.7485C4.57114 21.7406 4.46843 21.7018 4.38063 21.6351C4.29271 21.5682 4.22303 21.4759 4.18095 21.3674C4.13884 21.2589 4.12648 21.1397 4.14568 21.0236L4.14573 21.0232L5.27401 14.1441L5.29451 14.0191L5.20583 13.9287L0.430139 9.05699L0.430124 9.05697C0.318175 8.94279 0.252184 8.78445 0.250053 8.61611C0.247924 8.44791 0.309781 8.28776 0.418796 8.17036C0.509336 8.07384 0.625035 8.01257 0.748721 7.99408L0.749347 7.99399L7.35005 6.99027L7.48178 6.97024L7.53859 6.84972L10.4887 0.591979C10.4888 0.591826 10.4889 0.591673 10.4889 0.59152C10.6369 0.282457 10.9852 0.168034 11.2637 0.311892L11.264 0.312044C11.3773 0.370376 11.4713 0.467606 11.5292 0.59058L11.5293 0.590792L14.48 6.84972Z" fill="#37A9FB" stroke="black" stroke-width="0.5"/>
</svg>
