<svg width="80" height="80" viewBox="0 0 80 80" fill="none" xmlns="http://www.w3.org/2000/svg">
<circle opacity="0.1" cx="40" cy="40" r="40" fill="#37A9FB"/>
<path d="M61.9382 54.9177H60.9655V38.8527C60.9655 38.4903 60.6718 38.1967 60.3094 38.1967C59.9469 38.1967 59.6533 38.4903 59.6533 38.8527V54.9177H26.8903C26.5279 54.9177 26.2342 55.2113 26.2342 55.5738C26.2342 55.9362 26.5279 56.2299 26.8903 56.2299H61.445V56.8379C61.445 57.8583 60.6149 58.6884 59.5947 58.6884H21.1625C20.1423 58.6884 19.3122 57.8583 19.3122 56.8379V56.2299H24.0943C24.4567 56.2299 24.7504 55.9362 24.7504 55.5738C24.7504 55.2113 24.4567 54.9177 24.0943 54.9177H21.1039V32.0777C21.1039 30.9911 21.9879 30.1071 23.0745 30.1071H30.5367C30.8991 30.1071 31.1928 29.8134 31.1928 29.451C31.1928 29.0886 30.8991 28.7949 30.5367 28.7949H23.0746C21.2645 28.7949 19.7918 30.2675 19.7918 32.0777V54.9177H18.819C18.3674 54.9177 18 55.2851 18 55.7367V56.8379C18 58.5818 19.4187 60.0006 21.1625 60.0006H59.5946C61.3385 60.0006 62.7571 58.5817 62.7571 56.8379V55.7367C62.7572 55.2851 62.3898 54.9177 61.9382 54.9177Z" fill="#37A9FB"/>
<path d="M50.3075 30.1071H57.6822C58.7688 30.1071 59.6528 30.991 59.6528 32.0776V36.0567C59.6528 36.4191 59.9464 36.7127 60.3089 36.7127C60.6713 36.7127 60.965 36.4191 60.965 36.0567V32.0776C60.965 30.2675 59.4923 28.7949 57.6822 28.7949H50.3075C49.945 28.7949 49.6514 29.0886 49.6514 29.451C49.6514 29.8134 49.9451 30.1071 50.3075 30.1071Z" fill="#37A9FB"/>
<path d="M22.416 32.0763V52.9481C22.416 53.3105 22.7097 53.6042 23.0721 53.6042H57.6845C57.8585 53.6042 58.0254 53.5351 58.1485 53.412C58.2715 53.289 58.3406 53.1221 58.3406 52.948L58.3386 32.074C58.3386 31.7116 58.0449 31.418 57.6824 31.418L49.5494 31.4186C49.1871 31.4186 48.8934 31.7123 48.8934 32.0748C48.8934 32.4371 49.1872 32.7308 49.5496 32.7308L57.0265 32.7302L57.0284 52.292H23.7282V32.7324L31.2954 32.7319C31.6578 32.7319 31.9515 32.4382 31.9515 32.0758C31.9515 31.7134 31.6577 31.4197 31.2953 31.4197L23.0721 31.4202C22.7098 31.4202 22.416 31.714 22.416 32.0763Z" fill="#37A9FB"/>
<path d="M40.4215 36.0403C44.8439 36.0403 48.4416 32.4425 48.4416 28.0202C48.4416 26.7413 48.1475 25.5166 47.5673 24.38C47.4025 24.0574 47.0076 23.9293 46.6846 24.0939C46.362 24.2587 46.2338 24.6538 46.3986 24.9766C46.8835 25.9266 47.1294 26.9507 47.1294 28.0202C47.1294 31.7189 44.1202 34.7281 40.4215 34.7281C36.7227 34.7281 33.7136 31.719 33.7136 28.0202C33.7136 24.3214 36.7227 21.3122 40.4215 21.3122C42.0358 21.3122 43.5967 21.8958 44.8166 22.9553C45.0901 23.1929 45.5046 23.1639 45.7421 22.8902C45.9798 22.6167 45.9507 22.2023 45.677 21.9647C44.2184 20.6977 42.3519 20 40.4215 20C35.9991 20 32.4014 23.5978 32.4014 28.0202C32.4014 32.4425 35.9993 36.0403 40.4215 36.0403Z" fill="#37A9FB"/>
<path d="M44.0023 24.0375C43.6654 23.7008 43.1174 23.7012 42.7803 24.0376L39.2127 27.6054L37.9759 26.3686C37.6391 26.032 37.091 26.0323 36.7539 26.3689L35.1928 27.9301C35.0294 28.0933 34.9395 28.3105 34.9395 28.5413C34.9395 28.7722 35.0294 28.9894 35.1926 29.1524L37.8209 31.7806C38.1925 32.1524 38.6868 32.3572 39.2126 32.3572C39.7383 32.3572 40.2326 32.1525 40.6045 31.7807L45.5636 26.8214C45.727 26.6583 45.817 26.441 45.817 26.2102C45.817 25.9793 45.727 25.7621 45.5638 25.5992L44.0023 24.0375ZM39.6767 30.8528C39.5528 30.9767 39.3879 31.045 39.2126 31.045C39.0374 31.045 38.8727 30.9767 38.7488 30.8528L36.4373 28.5413L37.3651 27.6135L38.6018 28.8503C38.9386 29.1868 39.4867 29.1867 39.8238 28.8501L43.3913 25.2824L44.3191 26.2102L39.6767 30.8528Z" fill="#37A9FB"/>
<path d="M33.9608 50.1807H46.884C47.7433 50.1807 48.4424 49.4816 48.4424 48.6222V46.6386C48.4424 45.7792 47.7433 45.0801 46.884 45.0801H38.095C37.7325 45.0801 37.4389 45.3737 37.4389 45.7362C37.4389 46.0986 37.7325 46.3923 38.095 46.3923H46.884C47.0198 46.3923 47.1302 46.5028 47.1302 46.6386V48.6222C47.1302 48.758 47.0198 48.8685 46.884 48.8685H33.9608C33.8249 48.8685 33.7145 48.758 33.7145 48.6222V46.6386C33.7145 46.5027 33.825 46.3923 33.9608 46.3923H35.299C35.6614 46.3923 35.955 46.0986 35.955 45.7362C35.955 45.3737 35.6614 45.0801 35.299 45.0801H33.9608C33.1015 45.0801 32.4023 45.7792 32.4023 46.6386V48.6222C32.4023 49.4816 33.1015 50.1807 33.9608 50.1807Z" fill="#37A9FB"/>
<path d="M34.0263 39.9155C34.0263 37.6176 32.1568 35.748 29.8588 35.748C27.5609 35.748 25.6914 37.6176 25.6914 39.9155C25.6914 42.2134 27.5609 44.0829 29.8588 44.0829C32.1568 44.0828 34.0263 42.2133 34.0263 39.9155ZM29.8588 42.7706C28.2845 42.7706 27.0036 41.4897 27.0036 39.9154C27.0036 38.341 28.2845 37.0601 29.8588 37.0601C31.4332 37.0601 32.7141 38.341 32.7141 39.9154C32.7141 41.4897 31.4333 42.7706 29.8588 42.7706Z" fill="#37A9FB"/>
<path d="M36.6971 39.5075H37.7135C38.076 39.5075 38.3696 39.2138 38.3696 38.8514C38.3696 38.489 38.076 38.1953 37.7135 38.1953H36.6971C36.3347 38.1953 36.041 38.489 36.041 38.8514C36.041 39.2138 36.3348 39.5075 36.6971 39.5075Z" fill="#37A9FB"/>
<path d="M53.7918 38.1953H40.3787C40.0163 38.1953 39.7227 38.489 39.7227 38.8514C39.7227 39.2138 40.0163 39.5075 40.3787 39.5075H53.7917C54.1542 39.5075 54.4478 39.2138 54.4478 38.8514C54.4478 38.489 54.1542 38.1953 53.7918 38.1953Z" fill="#37A9FB"/>
<path d="M54.4478 41.578C54.4478 41.2155 54.1541 40.9219 53.7917 40.9219H36.6971C36.3347 40.9219 36.041 41.2155 36.041 41.578C36.041 41.9404 36.3347 42.2341 36.6971 42.2341H53.7916C54.154 42.2341 54.4478 41.9404 54.4478 41.578Z" fill="#37A9FB"/>
</svg>
