<svg width="27" height="30" viewBox="0 0 27 30" fill="none" xmlns="http://www.w3.org/2000/svg">
<path d="M11.6813 25.6562H3.14258V11.9062H22.3926V17.9288L25.1426 15.1788V6.40625C25.1426 4.89375 23.9051 3.65625 22.3926 3.65625H21.0176V0.90625H18.2676V3.65625H7.26758V0.90625H4.51758V3.65625H3.14258C1.61633 3.65625 0.406328 4.89375 0.406328 6.40625L0.392578 25.6562C0.392578 26.3856 0.682309 27.0851 1.19803 27.6008C1.71376 28.1165 2.41323 28.4062 3.14258 28.4062H14.4313L11.6813 25.6562ZM19.0101 29.0938L14.1426 24.2262L16.0813 22.2875L18.9963 25.2025L24.8263 19.3725L26.7651 21.3113L19.0101 29.0938ZM10.5813 17.4062L12.7676 19.5925L10.8288 21.5312L8.64258 19.345L6.45633 21.5312L4.51758 19.5925L6.70383 17.4062L4.51758 15.22L6.45633 13.2812L8.64258 15.4675L10.8288 13.2812L12.7676 15.22L10.5813 17.4062Z" fill="#37A9FB"/>
</svg>
