<svg width="22" height="22" viewBox="0 0 22 22" fill="none" xmlns="http://www.w3.org/2000/svg">
<path d="M1.32595 11.1735C1.67486 10.7338 2.04679 10.265 2.4435 9.76538C3.34635 11.0022 4.2468 12.235 5.15978 13.4849C5.76099 14.308 6.36763 15.1385 6.98396 15.9825L7.17887 16.2494L7.38267 15.9892C9.47585 13.3169 11.5202 10.7076 13.5443 8.12414C15.5683 5.54079 17.5721 2.98333 19.584 0.414699C19.9882 0.969655 20.3833 1.51261 20.7843 2.06369C21.0799 2.4699 21.3787 2.88051 21.6867 3.3036C18.9595 6.77953 16.1908 10.3086 13.3821 13.8887C11.3876 16.4311 9.3729 18.9991 7.3385 21.5922C5.99025 19.8352 4.66113 18.1037 3.34004 16.3827C2.32939 15.0661 1.32343 13.7556 0.317184 12.4445C0.6302 12.0505 0.965811 11.6275 1.32595 11.1735Z" fill="#37A9FB" stroke="black" stroke-width="0.5"/>
</svg>
