<svg width="36" height="29" viewBox="0 0 36 29" fill="none" xmlns="http://www.w3.org/2000/svg">
<path d="M7 11.2188C7 10.4894 7.28973 9.78993 7.80546 9.27421C8.32118 8.75848 9.02065 8.46875 9.75 8.46875H31.75C32.4793 8.46875 33.1788 8.75848 33.6945 9.27421C34.2103 9.78993 34.5 10.4894 34.5 11.2188V24.9688C34.5 25.6981 34.2103 26.3976 33.6945 26.9133C33.1788 27.429 32.4793 27.7188 31.75 27.7188H9.75C9.02065 27.7188 8.32118 27.429 7.80546 26.9133C7.28973 26.3976 7 25.6981 7 24.9688V11.2188Z" stroke="#37A9FB" stroke-width="2" stroke-linecap="round" stroke-linejoin="round"/>
<path d="M20.75 22.2188C23.0282 22.2188 24.875 20.3719 24.875 18.0938C24.875 15.8156 23.0282 13.9688 20.75 13.9688C18.4718 13.9688 16.625 15.8156 16.625 18.0938C16.625 20.3719 18.4718 22.2188 20.75 22.2188Z" stroke="#37A9FB" stroke-width="2" stroke-linecap="round" stroke-linejoin="round"/>
<g clip-path="url(#clip0_656_17979)">
<rect width="16" height="16" transform="translate(16 0.28125) rotate(90)" fill="white"/>
<path fill-rule="evenodd" clip-rule="evenodd" d="M8 1.28125C6.14348 1.28125 4.363 2.01875 3.05025 3.3315C1.73749 4.64426 0.999996 6.42474 0.999996 8.28125C0.999996 10.1378 1.73749 11.9182 3.05025 13.231C4.363 14.5438 6.14348 15.2813 8 15.2813C9.85651 15.2813 11.637 14.5438 12.9497 13.231C14.2625 11.9182 15 10.1378 15 8.28125C15 6.42474 14.2625 4.64426 12.9497 3.3315C11.637 2.01875 9.85651 1.28125 8 1.28125ZM8 16.2813C5.87827 16.2813 3.84343 15.4384 2.34314 13.9381C0.842851 12.4378 -3.8147e-06 10.403 -3.8147e-06 8.28125C-3.8147e-06 6.15952 0.842851 4.12469 2.34314 2.6244C3.84343 1.12411 5.87827 0.28125 8 0.28125C10.1217 0.28125 12.1566 1.12411 13.6569 2.6244C15.1571 4.12469 16 6.15952 16 8.28125C16 10.403 15.1571 12.4378 13.6569 13.9381C12.1566 15.4384 10.1217 16.2813 8 16.2813ZM5.197 6.13525C5.10311 6.0415 5.05031 5.91429 5.05022 5.7816C5.05013 5.64892 5.10274 5.52164 5.1965 5.42775C5.29025 5.33386 5.41746 5.28107 5.55014 5.28097C5.68283 5.28088 5.81011 5.3335 5.904 5.42725L10 9.52425L10 6.75625C10 6.62364 10.0527 6.49647 10.1464 6.4027C10.2402 6.30893 10.3674 6.25625 10.5 6.25625C10.6326 6.25625 10.7598 6.30893 10.8536 6.4027C10.9473 6.49647 11 6.62364 11 6.75625L11 10.7313C11 10.8639 10.9473 10.991 10.8536 11.0848C10.7598 11.1786 10.6326 11.2313 10.5 11.2313H6.525C6.39239 11.2313 6.26521 11.1786 6.17144 11.0848C6.07768 10.991 6.025 10.8639 6.025 10.7313C6.025 10.5986 6.07768 10.4715 6.17144 10.3777C6.26521 10.2839 6.39239 10.2313 6.525 10.2313H9.293L5.197 6.13525Z" fill="#37A9FB"/>
</g>
<defs>
<clipPath id="clip0_656_17979">
<rect width="16" height="16" fill="white" transform="translate(16 0.28125) rotate(90)"/>
</clipPath>
</defs>
</svg>
