<svg width="25" height="25" viewBox="0 0 25 25" fill="none" xmlns="http://www.w3.org/2000/svg">
<g clip-path="url(#clip0_656_19698)">
<path d="M6.5918 3.39355C5.38018 3.39355 4.39453 4.3792 4.39453 5.59082C4.39453 6.80244 5.38018 7.78809 6.5918 7.78809C7.80342 7.78809 8.78906 6.80244 8.78906 5.59082C8.78906 4.3792 7.80342 3.39355 6.5918 3.39355Z" fill="white"/>
<path d="M21.9727 13.6475C21.1651 13.6475 20.5078 14.3048 20.5078 15.1123C20.5078 15.9198 21.1651 16.5771 21.9727 16.5771C22.7802 16.5771 23.4375 15.9198 23.4375 15.1123C23.4375 14.3048 22.7802 13.6475 21.9727 13.6475Z" fill="white"/>
<path d="M19.7754 20.9717H19.043V20.2393C19.043 19.8344 18.7154 19.5068 18.3105 19.5068C17.9057 19.5068 17.5781 19.8344 17.5781 20.2393V20.9717H16.8457C16.4409 20.9717 16.1133 21.2993 16.1133 21.7041C16.1133 22.1089 16.4409 22.4365 16.8457 22.4365H17.5781V23.1689C17.5781 23.5738 17.9057 23.9014 18.3105 23.9014C18.7154 23.9014 19.043 23.5738 19.043 23.1689V22.4365H19.7754C20.1802 22.4365 20.5078 22.1089 20.5078 21.7041C20.5078 21.2993 20.1802 20.9717 19.7754 20.9717Z" fill="white"/>
<path d="M21.4596 1.1033C20.5088 1.15594 19.6217 1.61311 19.0334 2.349L12.8311 9.73167L16.2414 13.142L23.7416 7.07229C24.4856 6.47703 24.9423 5.58938 24.9954 4.63811C25.1001 2.73391 23.3618 0.996659 21.4596 1.1033ZM21.9464 5.18787C21.6603 5.47395 21.1965 5.47391 20.9105 5.18787C20.6245 4.90183 20.6245 4.43821 20.9105 4.15208C21.1965 3.86614 21.6603 3.86604 21.9464 4.15208C22.2324 4.43811 22.2324 4.90198 21.9464 5.18787Z" fill="white"/>
<path d="M5.73193 10.9192L4.17822 12.4728C3.89248 12.7586 3.42817 12.7586 3.14233 12.4728C2.85659 12.187 2.85659 11.7227 3.14233 11.437C3.42866 11.1507 3.42866 10.6875 3.14238 10.4012C2.8562 10.115 2.39287 10.115 2.10659 10.4012L1.0708 11.437C-0.356934 12.8648 -0.356934 15.1883 1.0708 16.616L2.10659 17.6519C2.96338 18.5086 4.35723 18.5086 5.21401 17.6519C5.50029 17.3656 5.96353 17.3656 6.2498 17.6519C6.53608 17.9381 6.53608 18.4014 6.2498 18.6877C5.66465 19.2729 4.92773 19.6047 4.16499 19.7103L5.21401 20.7593C6.0708 21.6161 7.46465 21.6161 8.32144 20.7593C8.60762 20.4731 9.07095 20.4731 9.35723 20.7593C9.64351 21.0456 9.64351 21.5089 9.35723 21.7952C8.77207 22.3803 8.03516 22.7122 7.27241 22.8177L7.28555 22.831C8.71338 24.2587 11.0368 24.2587 12.4646 22.831L15.0541 20.2415L5.73193 10.9192Z" fill="white"/>
<path d="M15.5722 14.5439L11.429 10.4007C10.1785 9.15023 8.24146 8.9953 6.82031 9.93514L16.0377 19.1526C16.9776 17.7314 16.8227 15.7944 15.5722 14.5439Z" fill="white"/>
</g>
<defs>
<clipPath id="clip0_656_19698">
<rect width="25" height="25" fill="white"/>
</clipPath>
</defs>
</svg>
