<svg width="94" height="14" viewBox="0 0 94 14" fill="none" xmlns="http://www.w3.org/2000/svg">
<path d="M0.56 7.4C0.56 6.30133 0.805333 5.32 1.296 4.456C1.79733 3.58133 2.47467 2.904 3.328 2.424C4.192 1.93333 5.15733 1.688 6.224 1.688C7.472 1.688 8.56533 2.008 9.504 2.648C10.4427 3.288 11.0987 4.17333 11.472 5.304H8.896C8.64 4.77067 8.27733 4.37067 7.808 4.104C7.34933 3.83733 6.816 3.704 6.208 3.704C5.55733 3.704 4.976 3.85867 4.464 4.168C3.96267 4.46667 3.568 4.89333 3.28 5.448C3.00267 6.00267 2.864 6.65333 2.864 7.4C2.864 8.136 3.00267 8.78667 3.28 9.352C3.568 9.90667 3.96267 10.3387 4.464 10.648C4.976 10.9467 5.55733 11.096 6.208 11.096C6.816 11.096 7.34933 10.9627 7.808 10.696C8.27733 10.4187 8.64 10.0133 8.896 9.48H11.472C11.0987 10.6213 10.4427 11.512 9.504 12.152C8.576 12.7813 7.48267 13.096 6.224 13.096C5.15733 13.096 4.192 12.856 3.328 12.376C2.47467 11.8853 1.79733 11.208 1.296 10.344C0.805333 9.48 0.56 8.49867 0.56 7.4ZM15.6253 5.512C15.9133 5.04267 16.2866 4.67467 16.7453 4.408C17.2146 4.14133 17.7479 4.008 18.3453 4.008V6.36H17.7533C17.0493 6.36 16.5159 6.52533 16.1533 6.856C15.8013 7.18667 15.6253 7.76267 15.6253 8.584V13H13.3853V4.136H15.6253V5.512ZM28.094 8.376C28.094 8.696 28.0727 8.984 28.03 9.24H21.55C21.6033 9.88 21.8273 10.3813 22.222 10.744C22.6167 11.1067 23.102 11.288 23.678 11.288C24.51 11.288 25.102 10.9307 25.454 10.216H27.87C27.614 11.0693 27.1233 11.7733 26.398 12.328C25.6727 12.872 24.782 13.144 23.726 13.144C22.8727 13.144 22.1047 12.9573 21.422 12.584C20.75 12.2 20.222 11.6613 19.838 10.968C19.4647 10.2747 19.278 9.47467 19.278 8.568C19.278 7.65067 19.4647 6.84533 19.838 6.152C20.2113 5.45867 20.734 4.92533 21.406 4.552C22.078 4.17867 22.8513 3.992 23.726 3.992C24.5687 3.992 25.3207 4.17333 25.982 4.536C26.654 4.89867 27.1713 5.416 27.534 6.088C27.9073 6.74933 28.094 7.512 28.094 8.376ZM25.774 7.736C25.7633 7.16 25.5553 6.70133 25.15 6.36C24.7447 6.008 24.2487 5.832 23.662 5.832C23.1073 5.832 22.638 6.00267 22.254 6.344C21.8807 6.67467 21.6513 7.13867 21.566 7.736H25.774ZM29.153 8.536C29.153 7.64 29.329 6.84533 29.681 6.152C30.0437 5.45867 30.5343 4.92533 31.153 4.552C31.7717 4.17867 32.4597 3.992 33.217 3.992C33.793 3.992 34.3423 4.12 34.865 4.376C35.3877 4.62133 35.8037 4.952 36.113 5.368V1.16H38.385V13H36.113V11.688C35.8357 12.1253 35.4463 12.4773 34.945 12.744C34.4437 13.0107 33.8623 13.144 33.201 13.144C32.4543 13.144 31.7717 12.952 31.153 12.568C30.5343 12.184 30.0437 11.6453 29.681 10.952C29.329 10.248 29.153 9.44267 29.153 8.536ZM36.129 8.568C36.129 8.024 36.0223 7.56 35.809 7.176C35.5957 6.78133 35.3077 6.48267 34.945 6.28C34.5823 6.06667 34.193 5.96 33.777 5.96C33.361 5.96 32.977 6.06133 32.625 6.264C32.273 6.46667 31.985 6.76533 31.761 7.16C31.5477 7.544 31.441 8.00267 31.441 8.536C31.441 9.06933 31.5477 9.53867 31.761 9.944C31.985 10.3387 32.273 10.6427 32.625 10.856C32.9877 11.0693 33.3717 11.176 33.777 11.176C34.193 11.176 34.5823 11.0747 34.945 10.872C35.3077 10.6587 35.5957 10.36 35.809 9.976C36.0223 9.58133 36.129 9.112 36.129 8.568ZM41.7088 3.08C41.3141 3.08 40.9834 2.95733 40.7168 2.712C40.4608 2.456 40.3328 2.14133 40.3328 1.768C40.3328 1.39467 40.4608 1.08533 40.7168 0.839999C40.9834 0.583999 41.3141 0.455999 41.7088 0.455999C42.1034 0.455999 42.4288 0.583999 42.6848 0.839999C42.9514 1.08533 43.0848 1.39467 43.0848 1.768C43.0848 2.14133 42.9514 2.456 42.6848 2.712C42.4288 2.95733 42.1034 3.08 41.7088 3.08ZM42.8128 4.136V13H40.5728V4.136H42.8128ZM47.6339 5.976V10.264C47.6339 10.5627 47.7032 10.7813 47.8419 10.92C47.9912 11.048 48.2365 11.112 48.5779 11.112H49.6179V13H48.2099C46.3219 13 45.3779 12.0827 45.3779 10.248V5.976H44.3219V4.136H45.3779V1.944H47.6339V4.136H49.6179V5.976H47.6339ZM54.4975 7.4C54.4975 6.30133 54.7428 5.32 55.2335 4.456C55.7348 3.58133 56.4122 2.904 57.2655 2.424C58.1295 1.93333 59.0948 1.688 60.1615 1.688C61.4095 1.688 62.5028 2.008 63.4415 2.648C64.3802 3.288 65.0362 4.17333 65.4095 5.304H62.8335C62.5775 4.77067 62.2148 4.37067 61.7455 4.104C61.2868 3.83733 60.7535 3.704 60.1455 3.704C59.4948 3.704 58.9135 3.85867 58.4015 4.168C57.9002 4.46667 57.5055 4.89333 57.2175 5.448C56.9402 6.00267 56.8015 6.65333 56.8015 7.4C56.8015 8.136 56.9402 8.78667 57.2175 9.352C57.5055 9.90667 57.9002 10.3387 58.4015 10.648C58.9135 10.9467 59.4948 11.096 60.1455 11.096C60.7535 11.096 61.2868 10.9627 61.7455 10.696C62.2148 10.4187 62.5775 10.0133 62.8335 9.48H65.4095C65.0362 10.6213 64.3802 11.512 63.4415 12.152C62.5135 12.7813 61.4202 13.096 60.1615 13.096C59.0948 13.096 58.1295 12.856 57.2655 12.376C56.4122 11.8853 55.7348 11.208 55.2335 10.344C54.7428 9.48 54.4975 8.49867 54.4975 7.4ZM66.7467 8.536C66.7467 7.64 66.9227 6.84533 67.2747 6.152C67.6374 5.45867 68.1228 4.92533 68.7308 4.552C69.3494 4.17867 70.0374 3.992 70.7948 3.992C71.4561 3.992 72.0321 4.12533 72.5228 4.392C73.0241 4.65867 73.4241 4.99467 73.7228 5.4V4.136H75.9788V13H73.7228V11.704C73.4348 12.12 73.0348 12.4667 72.5228 12.744C72.0214 13.0107 71.4401 13.144 70.7788 13.144C70.0321 13.144 69.3494 12.952 68.7308 12.568C68.1228 12.184 67.6374 11.6453 67.2747 10.952C66.9227 10.248 66.7467 9.44267 66.7467 8.536ZM73.7228 8.568C73.7228 8.024 73.6161 7.56 73.4028 7.176C73.1894 6.78133 72.9014 6.48267 72.5388 6.28C72.1761 6.06667 71.7868 5.96 71.3708 5.96C70.9548 5.96 70.5708 6.06133 70.2188 6.264C69.8668 6.46667 69.5788 6.76533 69.3548 7.16C69.1414 7.544 69.0348 8.00267 69.0348 8.536C69.0348 9.06933 69.1414 9.53867 69.3548 9.944C69.5788 10.3387 69.8668 10.6427 70.2188 10.856C70.5814 11.0693 70.9654 11.176 71.3708 11.176C71.7868 11.176 72.1761 11.0747 72.5388 10.872C72.9014 10.6587 73.1894 10.36 73.4028 9.976C73.6161 9.58133 73.7228 9.112 73.7228 8.568ZM80.4065 5.512C80.6945 5.04267 81.0678 4.67467 81.5265 4.408C81.9958 4.14133 82.5292 4.008 83.1265 4.008V6.36H82.5345C81.8305 6.36 81.2972 6.52533 80.9345 6.856C80.5825 7.18667 80.4065 7.76267 80.4065 8.584V13H78.1665V4.136H80.4065V5.512ZM84.0592 8.536C84.0592 7.64 84.2352 6.84533 84.5872 6.152C84.9499 5.45867 85.4406 4.92533 86.0593 4.552C86.6779 4.17867 87.3659 3.992 88.1233 3.992C88.6993 3.992 89.2486 4.12 89.7713 4.376C90.2939 4.62133 90.7099 4.952 91.0193 5.368V1.16H93.2913V13H91.0193V11.688C90.7419 12.1253 90.3526 12.4773 89.8513 12.744C89.3499 13.0107 88.7686 13.144 88.1073 13.144C87.3606 13.144 86.6779 12.952 86.0593 12.568C85.4406 12.184 84.9499 11.6453 84.5872 10.952C84.2352 10.248 84.0592 9.44267 84.0592 8.536ZM91.0353 8.568C91.0353 8.024 90.9286 7.56 90.7153 7.176C90.5019 6.78133 90.2139 6.48267 89.8513 6.28C89.4886 6.06667 89.0993 5.96 88.6833 5.96C88.2673 5.96 87.8833 6.06133 87.5312 6.264C87.1793 6.46667 86.8913 6.76533 86.6673 7.16C86.4539 7.544 86.3473 8.00267 86.3473 8.536C86.3473 9.06933 86.4539 9.53867 86.6673 9.944C86.8913 10.3387 87.1793 10.6427 87.5312 10.856C87.8939 11.0693 88.2779 11.176 88.6833 11.176C89.0993 11.176 89.4886 11.0747 89.8513 10.872C90.2139 10.6587 90.5019 10.36 90.7153 9.976C90.9286 9.58133 91.0353 9.112 91.0353 8.568Z" fill="#363636"/>
</svg>
