<svg width="37" height="38" viewBox="0 0 37 38" fill="none" xmlns="http://www.w3.org/2000/svg">
<path d="M15.417 8.72168H24.667V10.7772H15.417V8.72168Z" fill="#37A9FB"/>
<path d="M15.417 12.833H24.667V14.8886H15.417V12.833Z" fill="#37A9FB"/>
<path d="M15.417 16.9443H24.667V18.9999H15.417V16.9443Z" fill="#37A9FB"/>
<path d="M15.417 21.0557H24.667V23.1112H15.417V21.0557Z" fill="#37A9FB"/>
<path d="M15.417 25.167H24.667V27.2225H15.417V25.167Z" fill="#37A9FB"/>
<path d="M11.3057 8.72168H13.3612V10.7772H11.3057V8.72168Z" fill="#37A9FB"/>
<path d="M11.3057 12.833H13.3612V14.8886H11.3057V12.833Z" fill="#37A9FB"/>
<path d="M11.3057 16.9443H13.3612V18.9999H11.3057V16.9443Z" fill="#37A9FB"/>
<path d="M11.3057 21.0557H13.3612V23.1112H11.3057V21.0557Z" fill="#37A9FB"/>
<path d="M11.3057 25.167H13.3612V27.2225H11.3057V25.167Z" fill="#37A9FB"/>
<path d="M28.7781 2.55566H8.22255C7.67738 2.55566 7.15454 2.77223 6.76905 3.15772C6.38356 3.54321 6.16699 4.06605 6.16699 4.61122V33.389C6.16699 33.9342 6.38356 34.457 6.76905 34.8425C7.15454 35.228 7.67738 35.4445 8.22255 35.4445H28.7781C29.3233 35.4445 29.8461 35.228 30.2316 34.8425C30.6171 34.457 30.8337 33.9342 30.8337 33.389V4.61122C30.8337 4.06605 30.6171 3.54321 30.2316 3.15772C29.8461 2.77223 29.3233 2.55566 28.7781 2.55566ZM28.7781 33.389H8.22255V4.61122H28.7781V33.389Z" fill="#37A9FB"/>
</svg>
