<svg width="62" height="60" viewBox="0 0 62 60" fill="none" xmlns="http://www.w3.org/2000/svg">
<path d="M5.41425 56H54V54H6V36.7916H4V54.5858L2 56.5858V3.41425L4 5.41425V28.125H6V6H27.7084V4H5.41425L3.41425 2H56.5858L54.5858 4H36.7916V6H54V32.7916H56V5.41425L58 3.41425V36.4584H60V1C60 0.734784 59.8946 0.48043 59.7071 0.292893C59.5196 0.105357 59.2652 0 59 0H1C0.734784 0 0.48043 0.105357 0.292893 0.292893C0.105357 0.48043 0 0.734784 0 1V59C0 59.2652 0.105357 59.5196 0.292893 59.7071C0.48043 59.8946 0.734784 60 1 60H56.5416V58H3.41425L5.41425 56Z" fill="#37A9FB"/>
<path d="M57 42.4143L60.2929 45.7072L61.7072 44.2929L58.4143 41L58.7072 40.7072C58.8 40.6143 58.8737 40.5041 58.924 40.3827C58.9742 40.2614 59.0001 40.1314 59.0001 40C59.0001 39.8687 58.9742 39.7387 58.924 39.6173C58.8737 39.496 58.8 39.3858 58.7072 39.2929L44.7072 25.2929C44.6143 25.2001 44.5041 25.1264 44.3827 25.0761C44.2614 25.0259 44.1314 25 44 25H29.2108L28 23.7443V16.4143L35.7072 8.70716C35.8 8.6143 35.8737 8.50406 35.9239 8.38273C35.9742 8.2614 36.0001 8.13136 36.0001 8.00004C36.0001 7.86871 35.9742 7.73867 35.9239 7.61734C35.8737 7.49601 35.8 7.38577 35.7072 7.29291L32.7072 4.29291C32.6143 4.20005 32.5041 4.12638 32.3827 4.07613C32.2614 4.02587 32.1314 4 32 4C31.8687 4 31.7387 4.02587 31.6173 4.07613C31.496 4.12638 31.3858 4.20005 31.2929 4.29291L22.2929 13.2929L23.7072 14.7072L32 6.41416L33.5859 8.00004L8.00004 33.5859L6.41416 32L21.7072 16.7072L20.2929 15.2929L4.29291 31.2929C4.20005 31.3858 4.12638 31.496 4.07613 31.6173C4.02587 31.7387 4 31.8687 4 32C4 32.1314 4.02587 32.2614 4.07613 32.3827C4.12638 32.5041 4.20005 32.6143 4.29291 32.7072L7.29291 35.7072C7.38577 35.8 7.49601 35.8737 7.61734 35.9239C7.73867 35.9742 7.86871 36.0001 8.00004 36.0001C8.13136 36.0001 8.2614 35.9742 8.38273 35.9239C8.50406 35.8737 8.6143 35.8 8.70716 35.7072L16.4143 28H23.4327L25.0742 29.7022C24.6019 30.0974 24.2627 30.6284 24.1028 31.2231C23.9429 31.8178 23.97 32.4473 24.1804 33.026C24.3908 33.6048 24.7743 34.1047 25.2788 34.4579C25.7832 34.8111 26.3842 35.0004 27 35C27.001 35.7954 27.3173 36.5579 27.8797 37.1203C28.4421 37.6827 29.2047 37.9991 30 38C30.001 38.7954 30.3173 39.5579 30.8797 40.1203C31.4421 40.6827 32.2047 40.9991 33 41C33.001 41.7954 33.3173 42.5579 33.8797 43.1203C34.4421 43.6827 35.2047 43.9991 36 44H38.8614L44.7808 50.1385C45.1505 50.523 45.6127 50.8061 46.1232 50.9609C46.6337 51.1157 47.1753 51.1369 47.6963 51.0226C48.2173 50.9082 48.7002 50.6621 49.0989 50.3078C49.4976 49.9534 49.7988 49.5027 49.9735 48.9988C49.9823 48.9988 49.9912 49 50 49C50.1314 49.0002 50.2615 48.9744 50.3828 48.9242C50.5042 48.8739 50.6144 48.8002 50.7072 48.7072L51 48.4143L59.2929 56.7072L60.7072 55.2929L52.4143 47L57 42.4143ZM27.175 29L25.3285 27.0853L26.9145 25.5L30.2895 29H27.175ZM26 18.4143V23.5859L23.5859 26H18.4143L26 18.4143ZM35 41V40C35 39.7348 34.8947 39.4805 34.7071 39.2929C34.5196 39.1054 34.2653 39 34 39H33C32.7349 38.9997 32.4807 38.8943 32.2933 38.7068C32.1058 38.5193 32.0003 38.2652 32 38V37C32 36.7348 31.8947 36.4805 31.7071 36.2929C31.5196 36.1054 31.2653 36 31 36H30C29.7349 35.9997 29.4807 35.8943 29.2933 35.7068C29.1058 35.5193 29.0003 35.2652 29 35V34C29 33.7348 28.8947 33.4805 28.7071 33.2929C28.5196 33.1054 28.2653 33 28 33H27C26.7348 33 26.4805 32.8947 26.2929 32.7071C26.1054 32.5196 26 32.2653 26 32C26 31.7348 26.1054 31.4805 26.2929 31.2929C26.4805 31.1054 26.7348 31 27 31H38V29H33.0674L31.1392 27H43.5859L56.5859 40L50 46.5859L48.9143 45.5L53.7072 40.7072L52.2929 39.2929L47.5 44.0858L45.7072 42.2929C45.6143 42.2001 45.5041 42.1264 45.3827 42.0761C45.2614 42.0259 45.1314 42 45 42H36C35.7349 41.9997 35.4807 41.8943 35.2933 41.7068C35.1058 41.5193 35.0003 41.2652 35 41ZM47.8203 48.7655C47.715 48.8708 47.5898 48.9541 47.452 49.0104C47.3142 49.0668 47.1665 49.0951 47.0177 49.0938C46.8688 49.0924 46.7217 49.0614 46.5849 49.0025C46.4481 48.9436 46.3245 48.8581 46.2212 48.7509L41.6398 44H44.5859L47.9962 47.4104C48.1206 47.624 48.1709 47.8728 48.1391 48.1179C48.1072 48.3631 47.9952 48.5908 47.8203 48.7655Z" fill="#37A9FB"/>
<path d="M36.6843 10.2694L35.3164 11.7285L51.3165 26.7284L52.6844 25.2694L36.6843 10.2694Z" fill="#37A9FB"/>
<path d="M11.7072 35.2928L10.293 36.707L26.2929 52.707L27.7072 51.2928L11.7072 35.2928Z" fill="#37A9FB"/>
<path d="M42.7072 9.29287L41.293 10.707L49.2927 18.7073L50.707 17.2932L42.7072 9.29287Z" fill="#37A9FB"/>
<path d="M10.7072 41.2929L9.29297 42.707L17.2927 50.7073L18.707 49.2932L10.7072 41.2929Z" fill="#37A9FB"/>
</svg>
