<svg width="36" height="39" viewBox="0 0 36 39" fill="none" xmlns="http://www.w3.org/2000/svg">
<circle opacity="0.1" cx="14.5" cy="24.5" r="14.5" fill="#37A9FB"/>
<path d="M22.2285 15C26.0945 15 29.2285 11.866 29.2285 8C29.2285 4.13401 26.0945 1 22.2285 1C18.3625 1 15.2285 4.13401 15.2285 8C15.2285 11.866 18.3625 15 22.2285 15Z" stroke="#37A9FB" stroke-width="2"/>
<path d="M29.2282 17.7998H29.721C30.7445 17.8001 31.7327 18.1741 32.4999 18.8516C33.2671 19.5291 33.7605 20.4634 33.8874 21.479L34.4348 25.8526C34.484 26.2466 34.4489 26.6466 34.3318 27.026C34.2146 27.4053 34.0181 27.7555 33.7553 28.0531C33.4925 28.3508 33.1694 28.5891 32.8074 28.7523C32.4454 28.9155 32.0529 28.9999 31.6558 28.9998H12.8006C12.4035 28.9999 12.011 28.9155 11.649 28.7523C11.2871 28.5891 10.964 28.3508 10.7011 28.0531C10.4383 27.7555 10.2418 27.4053 10.1247 27.026C10.0075 26.6466 9.97237 26.2466 10.0216 25.8526L10.5676 21.479C10.6946 20.4629 11.1884 19.5282 11.9562 18.8507C12.724 18.1731 13.7128 17.7994 14.7368 17.7998H15.2282" stroke="#37A9FB" stroke-width="2" stroke-linecap="round" stroke-linejoin="round"/>
</svg>
