<svg width="24" height="24" viewBox="0 0 24 24" fill="none" xmlns="http://www.w3.org/2000/svg">
<g clip-path="url(#clip0_656_19688)">
<path d="M12 9.68555C14.2523 9.68555 16.0781 7.85971 16.0781 5.60742C16.0781 3.35514 14.2523 1.5293 12 1.5293C9.74771 1.5293 7.92188 3.35514 7.92188 5.60742C7.92188 7.85971 9.74771 9.68555 12 9.68555Z" fill="white"/>
<path d="M20.25 9.68555C21.6739 9.68555 22.8281 8.53128 22.8281 7.10742C22.8281 5.68356 21.6739 4.5293 20.25 4.5293C18.8261 4.5293 17.6719 5.68356 17.6719 7.10742C17.6719 8.53128 18.8261 9.68555 20.25 9.68555Z" fill="white"/>
<path d="M3.75 9.68555C5.17386 9.68555 6.32812 8.53128 6.32812 7.10742C6.32812 5.68356 5.17386 4.5293 3.75 4.5293C2.32614 4.5293 1.17188 5.68356 1.17188 7.10742C1.17188 8.53128 2.32614 9.68555 3.75 9.68555Z" fill="white"/>
<path d="M6.29016 12.0006C5.27531 11.1692 4.35623 11.2792 3.18281 11.2792C1.42781 11.2792 0 12.6986 0 14.4428V19.562C0 20.3195 0.618281 20.9355 1.37859 20.9355C4.66106 20.9355 4.26562 20.9949 4.26562 20.7939C4.26562 17.1665 3.83597 14.5063 6.29016 12.0006Z" fill="white"/>
<path d="M13.1162 11.2985C11.0667 11.1275 9.28518 11.3004 7.74857 12.5688C5.17715 14.6285 5.67201 17.4017 5.67201 20.7944C5.67201 21.692 6.40232 22.436 7.31357 22.436C17.208 22.436 17.6018 22.7551 18.1886 21.4558C18.381 21.0164 18.3283 21.1561 18.3283 16.9525C18.3283 13.6138 15.4373 11.2985 13.1162 11.2985Z" fill="white"/>
<path d="M20.8173 11.2791C19.6375 11.2791 18.7234 11.1702 17.71 12.0005C20.1458 14.4875 19.7345 16.9662 19.7345 20.7938C19.7345 20.996 19.4062 20.9354 22.5723 20.9354C23.3598 20.9354 24.0001 20.2974 24.0001 19.5132V14.4427C24.0001 12.6985 22.5723 11.2791 20.8173 11.2791Z" fill="white"/>
</g>
<defs>
<clipPath id="clip0_656_19688">
<rect width="24" height="24" fill="white"/>
</clipPath>
</defs>
</svg>
