<svg width="22" height="22" viewBox="0 0 22 22" fill="none" xmlns="http://www.w3.org/2000/svg">
<g clip-path="url(#clip0_656_20239)">
<path d="M20.2812 11.6875H12.7188C12.1492 11.6875 11.6875 12.1492 11.6875 12.7188V20.2812C11.6875 20.8508 12.1492 21.3125 12.7188 21.3125H20.2812C20.8508 21.3125 21.3125 20.8508 21.3125 20.2812V12.7188C21.3125 12.1492 20.8508 11.6875 20.2812 11.6875Z" fill="white"/>
<path d="M9.28125 11.6875H1.71875C1.14921 11.6875 0.6875 12.1492 0.6875 12.7188V20.2812C0.6875 20.8508 1.14921 21.3125 1.71875 21.3125H9.28125C9.85079 21.3125 10.3125 20.8508 10.3125 20.2812V12.7188C10.3125 12.1492 9.85079 11.6875 9.28125 11.6875Z" fill="white"/>
<path d="M20.2812 0.6875H12.7188C12.1492 0.6875 11.6875 1.14921 11.6875 1.71875V9.28125C11.6875 9.85079 12.1492 10.3125 12.7188 10.3125H20.2812C20.8508 10.3125 21.3125 9.85079 21.3125 9.28125V1.71875C21.3125 1.14921 20.8508 0.6875 20.2812 0.6875Z" fill="white"/>
<path d="M9.28125 0.6875H1.71875C1.14921 0.6875 0.6875 1.14921 0.6875 1.71875V9.28125C0.6875 9.85079 1.14921 10.3125 1.71875 10.3125H9.28125C9.85079 10.3125 10.3125 9.85079 10.3125 9.28125V1.71875C10.3125 1.14921 9.85079 0.6875 9.28125 0.6875Z" fill="white"/>
</g>
<defs>
<clipPath id="clip0_656_20239">
<rect width="22" height="22" fill="white"/>
</clipPath>
</defs>
</svg>
