<svg width="50" height="60" viewBox="0 0 50 60" fill="none" xmlns="http://www.w3.org/2000/svg">
<path d="M47.9634 37.2255L44.2361 30.77L44.5133 28.5525C45.6835 28.5692 47.0297 27.8815 47.085 26.2083V23.1408C47.0843 22.5193 46.8371 21.9235 46.3977 21.484C45.9582 21.0446 45.3624 20.7974 44.741 20.7967H41.4781C41.2592 19.9183 41.0304 19.077 40.7907 18.2787L43.1139 12.3196C43.3099 11.8173 43.3671 11.2715 43.2795 10.7394C43.1919 10.2074 42.9627 9.70871 42.616 9.29576L38.7695 4.74398C38.8146 4.54142 38.6168 4.31711 38.513 4.19427L35.2115 0.287092C35.0887 0.142064 34.919 0.0447294 34.7318 0.0120718C34.5447 -0.0205858 34.352 0.013507 34.1874 0.108401L30.4704 2.25434C30.3057 2.3494 30.1798 2.49934 30.1145 2.67791C30.0492 2.85649 30.0488 3.05233 30.1134 3.23116L31.8496 8.04211C32.0398 8.21014 31.9542 9.0006 31.9542 9.0006C31.4225 9.40061 27.441 12.4086 27.3978 12.4433L24.5987 10.2394V4.7334C24.5987 4.5185 24.5133 4.31241 24.3614 4.16045C24.2094 4.0085 24.0033 3.92313 23.7884 3.92313H18.3204C18.1055 3.92313 17.8994 4.0085 17.7474 4.16045C17.5955 4.31241 17.5101 4.5185 17.5101 4.7334V10.2393L13.9447 13.0467C13.644 13.2875 13.3789 13.5699 13.1575 13.8853C12.5967 13.8307 12.0332 13.8072 11.4698 13.8149C10.8611 13.8156 10.2776 14.0577 9.84724 14.4881C9.41685 14.9185 9.17475 15.502 9.17404 16.1106V20.7967H7.84204C7.22056 20.7974 6.62475 21.0446 6.18531 21.484C5.74587 21.9235 5.4987 22.5193 5.49802 23.1408V26.2083C5.4987 26.8298 5.74587 27.4256 6.18531 27.8651C6.62475 28.3045 7.22056 28.5518 7.84204 28.5525H8.0697L9.17401 37.3883V42.1179C8.68712 42.187 8.2285 42.3883 7.84802 42.6999C7.46753 43.0114 7.17974 43.4213 7.01593 43.885C6.85212 44.3487 6.81856 44.8484 6.9189 45.3299C7.01924 45.8113 7.24964 46.256 7.58505 46.6156C6.02987 47.3598 4.68474 48.4799 3.67131 49.8747C2.65789 51.2695 2.00815 52.8949 1.78085 54.6039C1.17358 54.84 0.667969 55.281 0.351526 55.8505C0.0350827 56.4201 -0.0722766 57.0824 0.0480277 57.7227C0.168332 58.3631 0.508729 58.9412 1.01031 59.3571C1.51188 59.773 2.14307 60.0004 2.79463 60H35.6188C36.9889 59.9981 38.3112 59.4969 39.3383 58.5902C40.3654 57.6835 41.0268 56.4335 41.1986 55.0743L41.9599 48.9827C43.2651 48.8477 44.5157 48.3884 45.598 47.6466C46.6803 46.9047 47.5598 45.904 48.1565 44.7354C48.7532 43.5668 49.0481 42.2676 49.0144 40.9559C48.9806 39.6442 48.6193 38.3618 47.9633 37.2255H47.9634ZM44.741 22.4172C44.9328 22.4174 45.1168 22.4937 45.2524 22.6294C45.388 22.7651 45.4643 22.949 45.4645 23.1408V26.2083C45.4643 26.4002 45.388 26.5841 45.2524 26.7197C45.1168 26.8554 44.9328 26.9317 44.741 26.9319H37.0717L35.9866 25.2552L36.2103 22.4172H44.741ZM29.6396 35.246L29.6246 44.6948C29.6244 45.0243 29.4932 45.3402 29.2601 45.573C29.0269 45.8058 28.7108 45.9364 28.3813 45.9362C28.0517 45.9359 27.7358 45.8048 27.503 45.5716C27.2702 45.3384 27.1396 45.0223 27.1398 44.6928L27.15 35.2624C27.1497 34.1585 25.5367 34.1837 25.5295 35.246L25.5151 43.3214C25.5113 43.6496 25.3791 43.9632 25.1467 44.1951C24.9144 44.4269 24.6004 44.5584 24.2722 44.5614C24.1089 44.5621 23.9471 44.5305 23.7961 44.4683C23.645 44.4061 23.5078 44.3146 23.3923 44.1992C23.2768 44.0837 23.1853 43.9465 23.1231 43.7955C23.0609 43.6444 23.0292 43.4826 23.0298 43.3193V35.3652C23.0298 35.1503 22.9445 34.9442 22.7925 34.7922C22.6406 34.6403 22.4345 34.5549 22.2196 34.5549C22.0047 34.5549 21.7986 34.6403 21.6466 34.7922C21.4947 34.9442 21.4093 35.1503 21.4093 35.3652V40.9303C21.2986 42.1041 19.5931 41.9712 19.56 40.8481C19.56 40.8481 19.5576 28.8065 19.553 28.7712L18.7121 22.4172H34.5845L34.3493 25.4013C34.3353 25.5787 34.3801 25.7558 34.4768 25.9052L39.1439 33.1173C39.7372 34.3186 39.0359 34.9687 38.7002 35.1857C38.3671 35.4003 37.9627 35.4742 37.5753 35.3912C37.1879 35.3083 36.8492 35.0752 36.6332 34.7431L35.2395 32.5921C34.8308 31.8879 33.7954 32.203 33.75 33.0252L33.7493 33.0315L33.7343 43.3484C33.7282 43.6749 33.596 43.9863 33.3655 44.2175C33.135 44.4487 32.824 44.5818 32.4976 44.5889C31.5447 44.6046 31.2497 43.6794 31.2497 43.3465L31.2599 35.2622C31.3057 34.2351 29.6944 34.1991 29.6396 35.246ZM31.5052 20.7967C31.6427 20.5019 33.4353 16.8304 35.215 15.9411C35.7739 17.5199 36.1934 19.1446 36.4686 20.7967H31.5052ZM31.8678 3.31873L34.4109 1.85053L36.52 4.34657L32.8705 6.09713L31.8678 3.31873ZM28.5106 13.6276C32.3211 10.7504 33.2565 10.0489 33.2578 10.0477C33.3605 9.97078 33.4434 9.87055 33.4998 9.7553C33.5561 9.64004 33.5843 9.51305 33.582 9.38478L33.5488 7.56905L37.4718 5.6874L41.3746 10.3376C41.5343 10.5279 41.64 10.7576 41.6804 11.0028C41.7208 11.2479 41.6944 11.4994 41.6041 11.7309L39.179 17.9513C39.1127 18.1212 39.1057 18.3087 39.1593 18.4831C39.3843 19.2171 39.5999 19.99 39.8069 20.7967H38.1193C37.6525 18.262 37.1475 16.3042 36.5623 14.9577C36.4437 14.6948 36.2358 14.4824 35.9756 14.3581C35.7154 14.2338 35.4195 14.2055 35.1405 14.2784C33.8535 14.5064 31.602 16.473 29.7378 20.7967H28.6754C28.7703 20.4268 28.8666 20.0628 28.9653 19.7082C28.9996 19.5845 29.0042 19.4545 28.9785 19.3287C28.9528 19.203 28.8976 19.0851 28.8174 18.9849C28.8174 18.9849 26.9081 17.2131 26.994 15.9406C27.0171 15.164 27.5295 14.384 28.5107 13.6276L28.5106 13.6276ZM19.1306 5.54366H22.9782V9.334H19.1306V5.54366ZM19.2212 10.9545H22.8874L26.244 13.5974C25.7116 14.255 25.4063 15.0673 25.3736 15.9128C25.2201 17.7757 27.2939 19.6749 27.2939 19.6749C27.1952 20.0407 27.0988 20.4159 27.004 20.7967H14.8992V16.1106C14.8994 15.6435 14.7562 15.1875 14.4889 14.8043C14.6642 14.4221 19.2212 10.9545 19.2212 10.9545ZM17.6751 26.932H14.8992V22.4172H17.0776L17.6751 26.932ZM10.7945 16.1106C10.7947 15.9316 10.866 15.76 10.9925 15.6334C11.1191 15.5068 11.2907 15.4356 11.4698 15.4354H12.6034C12.7824 15.4356 12.954 15.5068 13.0806 15.6334C13.2072 15.76 13.2784 15.9316 13.2786 16.1106V42.0871H10.7945V16.1106ZM7.84204 26.9319C7.6502 26.9317 7.46629 26.8554 7.33066 26.7197C7.19502 26.5841 7.11874 26.4002 7.11855 26.2083V23.1408C7.11874 22.949 7.19502 22.7651 7.33066 22.6294C7.46629 22.4937 7.6502 22.4174 7.84204 22.4172H9.17401V26.9319H7.84204ZM9.55937 43.7076H14.5137C14.7992 43.7076 15.0731 43.821 15.275 44.0229C15.4769 44.2248 15.5903 44.4987 15.5903 44.7842C15.5903 45.0697 15.4769 45.3436 15.275 45.5455C15.0731 45.7474 14.7992 45.8608 14.5137 45.8608H9.55937C9.27384 45.8608 9 45.7474 8.7981 45.5455C8.5962 45.3436 8.48277 45.0697 8.48277 44.7842C8.48277 44.4987 8.5962 44.2248 8.7981 44.0229C9 43.821 9.27384 43.7076 9.55937 43.7076ZM9.94768 47.4813H14.1254C15.7608 47.888 17.244 48.7582 18.3969 49.9874C19.5497 51.2166 20.3231 52.7526 20.6242 54.4107H3.44875C3.74982 52.7525 4.52324 51.2166 5.6761 49.9874C6.82896 48.7582 8.31222 47.888 9.94768 47.4813ZM21.2784 58.3794H2.79463C2.63997 58.3802 2.48668 58.3503 2.34358 58.2917C2.20048 58.233 2.07038 58.1466 1.96075 58.0375C1.85113 57.9284 1.76414 57.7987 1.70478 57.6559C1.64542 57.5131 1.61487 57.36 1.61487 57.2053C1.61487 57.0506 1.64542 56.8975 1.70478 56.7547C1.76414 56.6119 1.85113 56.4822 1.96075 56.3731C2.07038 56.264 2.20048 56.1776 2.34358 56.1189C2.48668 56.0603 2.63997 56.0304 2.79463 56.0312H21.2784C21.5888 56.0327 21.886 56.157 22.105 56.3771C22.324 56.5971 22.4469 56.8949 22.4469 57.2053C22.4469 57.5157 22.324 57.8135 22.105 58.0335C21.886 58.2536 21.5888 58.3779 21.2784 58.3794ZM39.5904 54.8733C39.4681 55.8408 38.9973 56.7305 38.2662 57.3759C37.5352 58.0213 36.5939 58.3781 35.6187 58.3794H23.811C23.9727 58.0337 24.0615 57.6584 24.072 57.2769C24.0825 56.8953 24.0144 56.5157 23.872 56.1616C23.7295 55.8075 23.5158 55.4865 23.244 55.2185C22.9723 54.9505 22.6483 54.7413 22.2922 54.6038C22.0649 52.8948 21.4152 51.2694 20.4017 49.8747C19.3883 48.4799 18.0432 47.3598 16.488 46.6156C16.8234 46.256 17.0538 45.8113 17.1542 45.3298C17.2545 44.8484 17.221 44.3487 17.0572 43.885C16.8934 43.4213 16.6056 43.0114 16.2251 42.6999C15.8447 42.3883 15.3861 42.187 14.8992 42.1178V28.5525L17.9065 28.5355L17.9566 40.8311C17.9566 41.5123 18.6142 43.9631 21.4095 43.2241C21.4095 43.2241 21.3825 45.9886 24.2722 46.1818H24.2733C24.7875 46.1823 25.2922 46.0435 25.7338 45.78C25.9487 46.3031 26.3136 46.7509 26.7827 47.0668C27.2517 47.3828 27.8038 47.5527 28.3693 47.5552C28.9349 47.5578 29.4885 47.3928 29.9603 47.081C30.4321 46.7693 30.8011 46.3248 31.0206 45.8036C31.5692 46.124 32.208 46.2554 32.8386 46.1774C33.4691 46.0994 34.0566 45.8164 34.5107 45.372C35.5694 47.0442 37.3966 48.5432 40.3272 48.9786L39.5904 54.8733ZM40.5286 47.3668C36.8113 47.0128 35.3424 43.5876 35.3424 43.5876C35.349 43.5093 35.3658 35.7524 35.3658 35.7524C35.8333 36.3988 36.5307 36.8414 37.3146 36.9892C38.0985 37.137 38.9093 36.9786 39.58 36.5468C41.6279 35.174 40.9568 32.9359 40.5045 32.237L38.1203 28.5525H42.8801L40.5286 47.3668ZM44.2738 46.5669C43.6228 46.9416 42.9094 47.1956 42.1681 47.3168L43.9031 33.4343L46.5598 38.0358C47.3861 39.4706 47.6095 41.1747 47.1809 42.774C46.7524 44.3734 45.7069 45.7374 44.2739 46.5669L44.2738 46.5669Z" fill="#37A9FB"/>
</svg>
