<svg width="17" height="18" viewBox="0 0 17 18" fill="none" xmlns="http://www.w3.org/2000/svg">
<path d="M6.07007 3.07915H1.41276C1.22896 3.07915 1.05246 3.15134 0.922145 3.28019C0.791796 3.40908 0.718359 3.58413 0.718359 3.7669C0.718359 3.94967 0.791796 4.12472 0.922145 4.25361C1.05246 4.38247 1.22896 4.45466 1.41276 4.45466H1.9961L3.41671 14.7575L3.41671 14.7575C3.51721 15.4858 3.88115 16.1532 4.44083 16.6362C5.00049 17.1192 5.71798 17.3853 6.46045 17.3853H10.6308C11.3733 17.3853 12.0908 17.1192 12.6504 16.6362C13.2101 16.1532 13.574 15.4858 13.6746 14.7575L13.6746 14.7575L15.0952 4.45466H15.6785C15.8623 4.45466 16.0388 4.38247 16.1691 4.25361C16.2995 4.12472 16.3729 3.94967 16.3729 3.7669C16.3729 3.58413 16.2995 3.40908 16.1691 3.28019C16.0388 3.15134 15.8623 3.07915 15.6785 3.07915H11.0212C10.9959 2.4651 10.7381 1.88158 10.2972 1.44562C9.83245 0.986087 9.20238 0.728125 8.54563 0.728125C7.88889 0.728125 7.25882 0.986087 6.79409 1.44562C6.35319 1.88158 6.09539 2.4651 6.07007 3.07915ZM10.6309 16.0098H10.6308H6.46047C6.05323 16.0097 5.65997 15.8638 5.35344 15.5992C5.04694 15.3347 4.84794 14.9695 4.79295 14.5715C4.79295 14.5714 4.79294 14.5714 4.79294 14.5714L3.39751 4.45466H13.6938L12.2995 14.5714C12.2995 14.5714 12.2995 14.5715 12.2995 14.5715C12.2445 14.9697 12.0453 15.335 11.7386 15.5996C11.4318 15.8642 11.0383 16.01 10.6309 16.0098ZM9.31594 2.41904C9.49599 2.59708 9.60627 2.8309 9.62973 3.07915H7.46153C7.485 2.8309 7.59527 2.59708 7.77533 2.41904C7.97944 2.21722 8.2565 2.10364 8.54563 2.10364C8.83476 2.10364 9.11183 2.21722 9.31594 2.41904ZM7.45682 7.29343C7.45682 7.11066 7.38338 6.93561 7.25304 6.80672C7.12272 6.67787 6.94622 6.60568 6.76242 6.60568C6.57861 6.60568 6.40211 6.67787 6.2718 6.80672C6.14145 6.93561 6.06801 7.11066 6.06801 7.29343V13.171C6.06801 13.3538 6.14145 13.5288 6.2718 13.6577C6.40211 13.7865 6.57861 13.8587 6.76242 13.8587C6.94622 13.8587 7.12272 13.7865 7.25304 13.6577C7.38338 13.5288 7.45682 13.3538 7.45682 13.171V7.29343ZM10.8195 6.80672C10.6892 6.67787 10.5127 6.60568 10.3288 6.60568C10.145 6.60568 9.96854 6.67787 9.83823 6.80672C9.70788 6.93561 9.63444 7.11066 9.63444 7.29343V13.171C9.63444 13.3538 9.70788 13.5288 9.83823 13.6577C9.96854 13.7865 10.145 13.8587 10.3288 13.8587C10.5127 13.8587 10.6892 13.7865 10.8195 13.6577C10.9498 13.5288 11.0233 13.3538 11.0233 13.171V7.29343C11.0233 7.11066 10.9498 6.93561 10.8195 6.80672Z" fill="#FF6F64" stroke="#FF6F64" stroke-width="0.2"/>
</svg>
