<svg width="37" height="37" viewBox="0 0 37 37" fill="none" xmlns="http://www.w3.org/2000/svg">
<g clip-path="url(#clip0_1072_3878)">
<path d="M27.196 34.062C26.7541 34.0616 26.3223 33.9293 25.956 33.682L18.496 28.682C18.4593 28.6566 18.4157 28.643 18.371 28.643C18.3264 28.643 18.2828 28.6566 18.246 28.682L10.786 33.682C10.4114 33.9321 9.96957 34.0624 9.51919 34.0555C9.0688 34.0486 8.63117 33.9048 8.26441 33.6433C7.89766 33.3818 7.61912 33.0149 7.4658 32.5914C7.31248 32.1678 7.29163 31.7077 7.40601 31.272L9.85601 22.632C9.8676 22.5886 9.86619 22.5427 9.85197 22.5C9.83776 22.4574 9.81135 22.4198 9.77601 22.392L2.71601 16.842C2.34435 16.5651 2.06866 16.1789 1.9276 15.7374C1.78653 15.296 1.78717 14.8214 1.92942 14.3803C2.07167 13.9392 2.3484 13.5537 2.72081 13.2779C3.09321 13.002 3.54262 12.8496 4.00601 12.842L13.006 12.502C13.0503 12.499 13.0927 12.4832 13.1282 12.4566C13.1637 12.4299 13.1907 12.3936 13.206 12.352L16.306 3.92201C16.4623 3.49465 16.7461 3.12562 17.119 2.8649C17.4919 2.60418 17.936 2.46436 18.391 2.46436C18.846 2.46436 19.2901 2.60418 19.663 2.8649C20.0359 3.12562 20.3198 3.49465 20.476 3.92201L23.576 12.352C23.5913 12.3936 23.6184 12.4299 23.6539 12.4566C23.6893 12.4832 23.7318 12.499 23.776 12.502L32.776 12.842C33.2394 12.8496 33.6888 13.002 34.0612 13.2779C34.4336 13.5537 34.7104 13.9392 34.8526 14.3803C34.9949 14.8214 34.9955 15.296 34.8544 15.7374C34.7134 16.1789 34.4377 16.5651 34.066 16.842L27.006 22.392C26.9696 22.4189 26.9424 22.4564 26.9281 22.4994C26.9137 22.5423 26.913 22.5886 26.926 22.632L29.376 31.272C29.462 31.6034 29.4705 31.9502 29.4009 32.2854C29.3314 32.6206 29.1855 32.9353 28.9747 33.2051C28.7639 33.4749 28.4938 33.6925 28.1854 33.8411C27.8769 33.9897 27.5384 34.0653 27.196 34.062ZM18.376 26.642C18.8188 26.6556 19.2474 26.8019 19.606 27.062L27.066 32.062C27.1038 32.0907 27.1499 32.1065 27.1974 32.1068C27.2449 32.1072 27.2912 32.0922 27.3295 32.0641C27.3677 32.036 27.3958 31.9962 27.4096 31.9508C27.4234 31.9053 27.4222 31.8567 27.406 31.812L24.956 23.172C24.8355 22.7482 24.8443 22.298 24.9816 21.8792C25.1188 21.4605 25.378 21.0923 25.726 20.822L32.786 15.272C32.8245 15.245 32.8534 15.2063 32.8682 15.1616C32.8831 15.117 32.8833 15.0687 32.8688 15.024C32.8542 14.9792 32.8257 14.9403 32.7874 14.913C32.7491 14.8856 32.7031 14.8712 32.656 14.872L23.656 14.532C23.2153 14.5148 22.7897 14.3668 22.4335 14.1068C22.0773 13.8467 21.8067 13.4865 21.656 13.072L18.556 4.64201C18.542 4.59725 18.5141 4.55812 18.4763 4.53034C18.4386 4.50256 18.3929 4.48758 18.346 4.48758C18.2991 4.48758 18.2535 4.50256 18.2157 4.53034C18.1779 4.55812 18.15 4.59725 18.136 4.64201L15.066 13.062C14.9154 13.4765 14.6447 13.8367 14.2885 14.0968C13.9323 14.3568 13.5067 14.5048 13.066 14.522L4.06601 14.862C4.01896 14.8612 3.97289 14.8756 3.9346 14.903C3.8963 14.9303 3.86778 14.9692 3.85324 15.014C3.83869 15.0587 3.83888 15.107 3.85378 15.1516C3.86868 15.1963 3.8975 15.235 3.93601 15.262L11.006 20.822C11.353 21.0932 11.6114 21.4614 11.7485 21.8799C11.8856 22.2983 11.8952 22.7481 11.776 23.172L9.33601 31.812C9.32145 31.8553 9.32138 31.9021 9.33582 31.9454C9.35025 31.9887 9.37841 32.0261 9.41601 32.052C9.45224 32.083 9.49834 32.1 9.54601 32.1C9.59368 32.1 9.63979 32.083 9.67601 32.052L17.136 27.052C17.5006 26.8102 17.9285 26.6814 18.366 26.682L18.376 26.642Z" fill="#37A9FB"/>
</g>
<defs>
<clipPath id="clip0_1072_3878">
<rect width="36" height="36" fill="white" transform="translate(0.00585938 0.0620117)"/>
</clipPath>
</defs>
</svg>
