<svg width="32" height="25" viewBox="0 0 32 25" fill="none" xmlns="http://www.w3.org/2000/svg">
<path d="M31.25 7.2V19.9219C31.2501 21.219 30.7538 22.4669 29.863 23.4097C28.9722 24.3526 27.7544 24.9188 26.4594 24.9922L26.1719 25H5.07812C3.78103 25.0001 2.53308 24.5038 1.59026 23.613C0.647448 22.7222 0.0812479 21.5044 0.00781268 20.2094L0 19.9219V7.2L15.0812 15.1C15.249 15.1879 15.4356 15.2338 15.625 15.2338C15.8144 15.2338 16.001 15.1879 16.1687 15.1L31.25 7.2ZM5.07812 3.68829e-08H26.1719C27.4306 -0.000151585 28.6445 0.467181 29.5782 1.31136C30.5119 2.15553 31.0987 3.31638 31.225 4.56875L15.625 12.7406L0.025 4.56875C0.14613 3.36611 0.692266 2.24612 1.56523 1.4101C2.4382 0.574076 3.58075 0.0768547 4.7875 0.00781272L5.07812 3.68829e-08H26.1719H5.07812Z" fill="white"/>
</svg>
