<svg width="43" height="45" viewBox="0 0 43 45" fill="none" xmlns="http://www.w3.org/2000/svg">
<path d="M11.7857 38.571H36.4286L42.8571 44.9996V22.4996C42.8571 20.1424 40.9286 18.2139 38.5714 18.2139H11.7857C9.42857 18.2139 7.5 20.1424 7.5 22.4996V34.2853C7.5 36.6424 9.42857 38.571 11.7857 38.571Z" fill="#37A9FB"/>
<path d="M26.5717 30.8569H22.7146L21.9646 33.1069H19.6074L23.5717 22.3926H25.6074L29.5717 33.1069H27.2146L26.5717 30.8569ZM23.2503 29.1426H25.9289L24.6431 25.0711L23.2503 29.1426Z" fill="white"/>
<path d="M31.0714 22.5H6.42857L0 28.9286V4.28571C0 1.92857 1.92857 0 4.28571 0H31.0714C33.4286 0 35.3571 1.92857 35.3571 4.28571V18.2143C35.3571 20.5714 33.4286 22.5 31.0714 22.5Z" fill="#6FC2FE"/>
<path d="M22.9286 10.9286C22.9286 12 22.7143 12.8571 22.3929 13.6071C22.0714 14.3571 21.6429 15 21 15.4286L22.8214 16.8214L21.4286 18.1071L19.0714 16.2857C18.8571 16.2857 18.5357 16.3929 18.2143 16.3929C17.5714 16.3929 16.9286 16.2857 16.2857 16.0714C15.75 15.8571 15.2143 15.4286 14.7857 15C14.3571 14.5714 14.0357 13.9286 13.8214 13.2857C13.6071 12.6429 13.5 11.8929 13.5 11.0357V10.6071C13.5 9.75 13.6071 9 13.8214 8.35714C14.0357 7.71429 14.3571 7.07143 14.7857 6.64286C15.2143 6.21429 15.6429 5.78571 16.2857 5.57143C16.8214 5.35714 17.4643 5.25 18.2143 5.25C18.8571 5.25 19.5 5.35714 20.1429 5.57143C20.6786 5.78571 21.2143 6.21429 21.6429 6.64286C22.0714 7.07143 22.3929 7.71429 22.6071 8.35714C22.8214 9 22.9286 9.75 22.9286 10.6071V10.9286ZM20.5714 10.3929C20.5714 9.21429 20.3571 8.35714 19.9286 7.82143C19.5 7.17857 18.9643 6.96429 18.2143 6.96429C17.4643 6.96429 16.8214 7.28571 16.5 7.82143C16.0714 8.46429 15.8571 9.32143 15.8571 10.3929V10.9286C15.8571 11.4643 15.9643 12 16.0714 12.4286C16.1786 12.8571 16.2857 13.2857 16.5 13.5C16.7143 13.8214 16.9286 14.0357 17.25 14.1429C17.5714 14.25 17.8929 14.3571 18.2143 14.3571C18.9643 14.3571 19.6071 14.0357 19.9286 13.5C20.3571 12.8571 20.5714 12 20.5714 10.8214V10.3929Z" fill="white"/>
</svg>
