<svg width="24" height="24" viewBox="0 0 24 24" fill="none" xmlns="http://www.w3.org/2000/svg">
<path d="M23.9954 16.2425C23.9954 13.2643 22.2868 10.6064 19.728 9.31348C19.6485 15.0238 15.0189 19.6534 9.30859 19.7328C10.6015 22.2917 13.2594 24.0003 16.2376 24.0003C17.634 24.0003 18.9919 23.6284 20.185 22.9218L23.9615 23.9664L22.9169 20.1899C23.6235 18.9968 23.9954 17.6389 23.9954 16.2425Z" fill="white"/>
<path d="M18.328 9.16399C18.328 4.11087 14.2171 0 9.164 0C4.11087 0 0 4.11087 0 9.16399C0 10.8108 0.438352 12.4143 1.27074 13.822L0.0336912 18.2941L4.50601 17.0572C5.91372 17.8896 7.51716 18.328 9.164 18.328C14.2171 18.328 18.328 14.2171 18.328 9.16399ZM7.75776 7.0312H6.35152C6.35152 5.4803 7.61311 4.21872 9.164 4.21872C10.7149 4.21872 11.9765 5.4803 11.9765 7.0312C11.9765 7.81836 11.6432 8.57495 11.0619 9.10668L9.86712 10.2002V11.2968H8.46088V9.58092L10.1125 8.06921C10.4076 7.79913 10.5702 7.43055 10.5702 7.0312C10.5702 6.25575 9.93945 5.62496 9.164 5.62496C8.38856 5.62496 7.75776 6.25575 7.75776 7.0312ZM8.46088 12.703H9.86712V14.1093H8.46088V12.703Z" fill="white"/>
</svg>
