<svg width="20" height="22" viewBox="0 0 20 22" fill="none" xmlns="http://www.w3.org/2000/svg">
<path d="M17.5833 21.8334H2.41667C1.84203 21.8334 1.29093 21.6051 0.884602 21.1988C0.478273 20.7924 0.25 20.2413 0.25 19.6667V4.50002C0.25 3.92538 0.478273 3.37428 0.884602 2.96796C1.29093 2.56163 1.84203 2.33335 2.41667 2.33335H4.58333V0.166687H6.75V2.33335H13.25V0.166687H15.4167V2.33335H17.5833C18.158 2.33335 18.7091 2.56163 19.1154 2.96796C19.5217 3.37428 19.75 3.92538 19.75 4.50002V19.6667C19.75 20.2413 19.5217 20.7924 19.1154 21.1988C18.7091 21.6051 18.158 21.8334 17.5833 21.8334ZM2.41667 8.83335V19.6667H17.5833V8.83335H2.41667ZM2.41667 4.50002V6.66669H17.5833V4.50002H2.41667ZM7.61667 18.5834H5.66667V16.6334L10.2167 12.0942L12.1667 14.0442L7.61667 18.5834ZM12.8438 13.3639L10.8938 11.4139L12.3833 9.93077L14.3333 11.8808L12.8492 13.3649L12.8438 13.3639Z" fill="white"/>
</svg>
