<svg width="22" height="34" viewBox="0 0 22 34" fill="none" xmlns="http://www.w3.org/2000/svg">
<path d="M15.7898 21.8571C15.7813 20.8325 15.508 19.8276 14.9965 18.9397C14.485 18.0519 13.7527 17.3113 12.8707 16.7899L21.8576 1.21429L19.7569 0L10.5563 15.9387C9.42709 15.6865 8.2527 15.7213 7.14049 16.0402C6.02829 16.359 5.01378 16.9516 4.18975 17.7638C-0.356534 22.1486 -0.00439106 32.3996 0.0126089 32.8343C0.0251611 33.1478 0.158615 33.4444 0.384991 33.6617C0.611368 33.879 0.913088 34.0003 1.22689 34H19.4303C19.6851 34 19.9335 33.9198 20.1403 33.7708C20.347 33.6218 20.5016 33.4115 20.5822 33.1697C20.6628 32.9279 20.6653 32.6669 20.5893 32.4237C20.5133 32.1804 20.3627 31.9672 20.1588 31.8143C15.8603 28.5891 15.7898 21.9227 15.7898 21.8571ZM9.62975 18.2106C10.6016 18.2213 11.532 18.6063 12.2272 19.2855C12.9225 19.9647 13.3291 20.8858 13.3625 21.8571C13.3625 21.9033 13.3649 22.1097 13.3831 22.4266L6.21882 19.2404C6.69074 18.8512 7.23532 18.5598 7.82089 18.383C8.40646 18.2062 9.02133 18.1476 9.62975 18.2106ZM13.904 31.5714C12.9334 30.5831 12.3148 29.3031 12.1433 27.9286H9.71475C9.80172 29.2209 10.2054 30.472 10.8902 31.5714H8.19082C7.69145 29.9956 7.38762 28.3643 7.28618 26.7143H4.85761C4.93591 28.3593 5.20693 29.9895 5.66511 31.5714H2.42904C2.46668 29.342 2.78118 24.4169 4.61839 21.1856L13.7656 25.2535C14.2051 27.5355 15.1421 29.6926 16.5099 31.5714H13.904Z" fill="#F4CA17"/>
</svg>
