<svg width="22" height="22" viewBox="0 0 22 22" fill="none" xmlns="http://www.w3.org/2000/svg">
<path d="M0.260228 2.99286C0.253735 3.05888 0.248931 3.12357 0.250169 3.19452L0.250178 3.195C0.25655 3.60603 0.259176 4.01511 0.261793 4.42286C0.268077 5.4017 0.274311 6.37287 0.332208 7.34486L0.260228 2.99286ZM0.260228 2.99286C0.58762 2.95067 0.913844 2.91069 1.23876 2.87088C2.08175 2.76759 2.91594 2.66537 3.73895 2.52825L3.69786 2.28165L3.73895 2.52825C6.19544 2.11895 8.52983 1.38726 10.7213 0.318312C10.8202 0.270177 10.8859 0.252506 10.9409 0.250252C10.9929 0.248116 11.0566 0.258993 11.1516 0.305073L11.1518 0.305167C14.3705 1.86311 17.8314 2.69042 21.4769 2.93038C21.5395 2.9345 21.583 2.93946 21.615 2.94625C21.6288 2.94918 21.6381 2.95197 21.644 2.95405C21.6467 2.96435 21.6503 2.98431 21.6512 3.01841L21.6512 3.01863C21.7308 5.93748 21.6518 8.82545 20.8672 11.6471C19.545 16.4005 16.3167 19.7687 11.1605 21.7215L11.1601 21.7217C11.1097 21.7409 11.0291 21.753 10.9328 21.7493C10.8381 21.7457 10.7483 21.7274 10.6845 21.7026L10.6843 21.7026C6.09427 19.924 2.92825 17.0414 1.42768 12.8211C0.793589 11.0356 0.443839 9.20721 0.332214 7.34495L0.260228 2.99286ZM8.98892 15.8412L9.15555 15.9932L9.32384 15.8431C10.2297 15.0349 11.1292 14.2325 12.0222 13.4359C14.0999 11.5823 16.142 9.76061 18.1459 7.97234L18.3472 7.79265L18.1527 7.6056C18.0228 7.48067 17.8957 7.35854 17.7703 7.23801C17.4105 6.89213 17.0645 6.55951 16.7037 6.21218L16.5367 6.05139L16.3638 6.20584C13.9555 8.35711 11.5712 10.4873 9.07284 12.7199C8.75907 12.4192 8.44926 12.1223 8.14182 11.8277C7.55352 11.2639 6.97391 10.7085 6.39186 10.1504L6.22585 9.99116L6.0534 10.1434C5.48346 10.6463 4.9969 11.0754 4.57846 11.444L4.36915 11.6283L4.57524 11.8163C5.20476 12.3904 5.83389 12.9641 6.46607 13.5405C7.29914 14.3002 8.13748 15.0646 8.98892 15.8412Z" fill="#37A9FB" stroke="black" stroke-width="0.5"/>
<path d="M9.15784 15.652C8.30605 14.875 7.4673 14.1102 6.63384 13.3502C6.00202 12.7741 5.37325 12.2008 4.74414 11.627C4.95314 11.4429 5.17912 11.2435 5.42398 11.0275C5.66946 10.8109 5.93392 10.5776 6.21926 10.3262C6.80112 10.8842 7.38057 11.4394 7.96867 12.003C8.33075 12.35 8.69611 12.7001 9.06733 13.0559C10.3263 11.9309 11.5558 10.8325 12.7731 9.74496C14.0324 8.61999 15.2785 7.50669 16.5307 6.3877C16.8148 6.66072 17.0898 6.92518 17.3695 7.1942C17.5689 7.38597 17.7706 7.58006 17.9799 7.78122C16.3175 9.26426 14.6294 10.7703 12.9167 12.2984C11.6766 13.4048 10.4235 14.5228 9.15784 15.652Z" fill="white"/>
<path d="M9.15784 15.652C8.30605 14.875 7.4673 14.1102 6.63384 13.3502C6.00202 12.7741 5.37325 12.2008 4.74414 11.627C4.95314 11.4429 5.17912 11.2435 5.42398 11.0275C5.66946 10.8109 5.93392 10.5776 6.21926 10.3262C6.80112 10.8842 7.38057 11.4394 7.96867 12.003C8.33075 12.35 8.69611 12.7001 9.06733 13.0559C10.3263 11.9309 11.5558 10.8325 12.7731 9.74496C14.0324 8.61999 15.2785 7.50669 16.5307 6.3877C16.8148 6.66072 17.0898 6.92518 17.3695 7.1942C17.5689 7.38597 17.7706 7.58006 17.9799 7.78122C16.3175 9.26426 14.6294 10.7703 12.9167 12.2984C11.6766 13.4048 10.4235 14.5228 9.15784 15.652Z" stroke="black"/>
</svg>
