<svg width="33" height="33" viewBox="0 0 33 33" fill="none" xmlns="http://www.w3.org/2000/svg">
<path d="M8.36463 19.1853L5.58691 16.4076L8.9423 13.0522C11.9767 10.0177 16.9139 10.0178 19.9484 13.0522L17.1707 15.8299C15.668 14.3271 13.2227 14.3271 11.7199 15.8299L8.36463 19.1853Z" fill="#A0D4FA"/>
<path d="M18.5513 22.2312C16.4725 22.2312 14.5181 21.4216 13.0483 19.9516C10.0139 16.9173 10.0138 11.98 13.0483 8.94555L19.7144 2.27946C21.1844 0.80953 23.1387 0 25.2174 0C27.2962 0 29.2506 0.80953 30.7205 2.27946C32.1904 3.74939 33 5.70382 33 7.78254C33 9.86125 32.1904 11.8157 30.7205 13.2856L24.0544 19.9517C22.5845 21.4216 20.6302 22.2312 18.5513 22.2312ZM25.2174 3.92821C24.188 3.92821 23.22 4.32916 22.492 5.05711L15.8259 11.7232C14.3232 13.226 14.3232 15.6712 15.8259 17.174C16.5539 17.9019 17.5218 18.3029 18.5513 18.3029C19.5808 18.3029 20.5487 17.902 21.2766 17.1741L27.9428 10.5079C28.6707 9.77994 29.0717 8.81202 29.0717 7.78254C29.0717 6.75299 28.6707 5.78513 27.9428 5.05711C27.2148 4.32916 26.2469 3.92821 25.2174 3.92821Z" fill="#37A9FB"/>
<path d="M22.3836 3.79584C22.0019 3.79584 21.632 3.59319 21.4355 3.23493C21.1485 2.71188 21.3399 2.05523 21.863 1.76827C23.9998 0.596262 26.5697 0.589861 28.5701 1.75165C29.086 2.05128 29.2612 2.71243 28.9616 3.22839C28.6619 3.74429 28.0009 3.91957 27.4849 3.61995C26.1556 2.84787 24.3567 2.86449 22.9021 3.66251C22.7432 3.74993 22.5649 3.7958 22.3836 3.79584ZM7.77886 32.9999C5.78588 32.9999 3.79297 32.2413 2.27578 30.7242C-0.758594 27.6897 -0.758594 22.7524 2.27578 19.7179L7.0742 14.9196L9.85185 17.6973L5.05344 22.4957C3.55068 23.9985 3.55068 26.4438 5.05344 27.9465C5.80474 28.6978 6.79194 29.0735 7.77879 29.0736C8.76592 29.0737 9.7527 28.698 10.5042 27.9465L17.1703 21.2803C17.8983 20.5524 18.2992 19.5845 18.2992 18.555C18.2992 17.5255 17.8983 16.5576 17.1703 15.8296L19.948 13.0519C22.9825 16.0864 22.9825 21.0237 19.948 24.0581L13.2819 30.7242C11.7647 32.2413 9.77184 32.9999 7.77886 32.9999Z" fill="#A0D4FA"/>
</svg>
