<svg width="23" height="29" viewBox="0 0 23 29" fill="none" xmlns="http://www.w3.org/2000/svg">
<path d="M11.4997 28.3746C9.55246 26.7136 7.74756 24.8927 6.10384 22.9309C3.63718 19.9848 0.708009 15.5972 0.708009 11.4162C0.706939 9.28095 1.33933 7.19336 2.52516 5.41763C3.71099 3.64191 5.39694 2.25788 7.36966 1.44071C9.34237 0.623529 11.5132 0.409937 13.6073 0.82696C15.7015 1.24398 17.6248 2.27288 19.134 3.78343C20.1388 4.78375 20.9352 5.97342 21.4772 7.28359C22.0191 8.59375 22.2959 9.99839 22.2913 11.4162C22.2913 15.5972 19.3622 19.9848 16.8955 22.9309C15.2518 24.8927 13.4469 26.7136 11.4997 28.3746ZM11.4997 6.79122C10.273 6.79122 9.09666 7.27849 8.22931 8.14585C7.36195 9.01321 6.87468 10.1896 6.87468 11.4162C6.87468 12.6428 7.36195 13.8192 8.22931 14.6866C9.09666 15.5539 10.273 16.0412 11.4997 16.0412C12.7263 16.0412 13.9027 15.5539 14.77 14.6866C15.6374 13.8192 16.1247 12.6428 16.1247 11.4162C16.1247 10.1896 15.6374 9.01321 14.77 8.14585C13.9027 7.27849 12.7263 6.79122 11.4997 6.79122Z" fill="#37A9FB"/>
</svg>
