<svg width="13" height="17" viewBox="0 0 13 17" fill="none" xmlns="http://www.w3.org/2000/svg">
<path d="M6.5 0C4.25994 0 2.4375 1.82244 2.4375 4.0625V6.5H1.625C1.19402 6.5 0.780698 6.67121 0.475951 6.97595C0.171205 7.2807 0 7.69402 0 8.125V14.625C0 15.056 0.171205 15.4693 0.475951 15.774C0.780698 16.0788 1.19402 16.25 1.625 16.25H11.375C11.806 16.25 12.2193 16.0788 12.524 15.774C12.8288 15.4693 13 15.056 13 14.625V8.125C13 7.69402 12.8288 7.2807 12.524 6.97595C12.2193 6.67121 11.806 6.5 11.375 6.5H10.5625V4.0625C10.5625 1.82244 8.74006 0 6.5 0ZM4.0625 4.0625C4.0625 2.71863 5.15613 1.625 6.5 1.625C7.84387 1.625 8.9375 2.71863 8.9375 4.0625V6.5H4.0625V4.0625ZM7.3125 12.7749V14.625H5.6875V12.7749C5.40344 12.6123 5.17535 12.3673 5.0333 12.0724C4.89125 11.7775 4.84192 11.4465 4.89181 11.1229C4.94169 10.7994 5.08846 10.4986 5.31275 10.2602C5.53704 10.0218 5.82832 9.85692 6.14819 9.78737C6.38578 9.73484 6.63213 9.73631 6.86907 9.79167C7.10602 9.84703 7.32752 9.95487 7.51724 10.1072C7.70695 10.2596 7.86005 10.4526 7.96524 10.672C8.07043 10.8914 8.12502 11.1317 8.125 11.375C8.12453 11.6592 8.04918 11.9382 7.90654 12.184C7.7639 12.4297 7.55901 12.6336 7.3125 12.7749Z" fill="#37A9FB"/>
</svg>
