<svg width="20" height="20" viewBox="0 0 20 20" fill="none" xmlns="http://www.w3.org/2000/svg">
<path d="M2.15384 0.00504344C1.03894 -0.0754271 0 0.816647 0 1.9948V18.0014C0 19.1204 0.936551 20.035 2.05748 19.999C2.05921 19.999 2.06095 19.999 2.06269 19.999C2.25341 19.9914 2.44637 19.9583 2.63305 19.8961L6.62951 18.5613C7.44205 18.2902 7.99812 17.5277 7.99812 16.6667V14.6639H7.334C5.51615 14.6641 3.99621 13.1442 3.99646 11.3263V8.66465C3.99621 6.84679 5.51615 5.33208 7.334 5.33233H7.99812V3.33476C7.99812 2.47371 7.44298 1.70625 6.62951 1.43486L2.63305 0.100104C2.47347 0.0468551 2.31311 0.0165392 2.15384 0.00504344ZM12.8228 4.01451C12.4627 3.99419 12.1023 4.07465 11.7823 4.23458C11.1424 4.55453 10.6598 5.19253 10.6598 5.99645V6.66578H7.334C6.23704 6.66578 5.32991 7.56769 5.32991 8.66465V11.3263C5.32991 12.4233 6.23704 13.3304 7.334 13.3304H10.6598V13.9945C10.6598 15.6024 12.5782 16.5636 13.8645 15.5989L19.1997 11.5972C19.7182 11.2083 20.0151 10.5912 19.9966 9.94341C19.9792 9.33606 19.6876 8.76497 19.1997 8.399L13.8645 4.39735C13.543 4.15617 13.1829 4.03483 12.8228 4.01451Z" fill="white"/>
</svg>
