<svg width="35" height="35" viewBox="0 0 35 35" fill="none" xmlns="http://www.w3.org/2000/svg">
<path d="M4.78841 11.666H23.4551C24.7384 11.666 25.7884 12.716 25.7884 13.9993V27.9994C25.7884 29.2827 24.7384 30.3327 23.4551 30.3327H4.78841C3.50508 30.3327 2.45508 29.2827 2.45508 27.9994V13.9993C2.45508 12.716 3.50508 11.666 4.78841 11.666Z" stroke="white" stroke-width="3" stroke-linecap="round" stroke-linejoin="round"/>
<path d="M25.7884 14L14.1217 22.1667L2.45508 14" stroke="white" stroke-width="3" stroke-linecap="round" stroke-linejoin="round"/>
<circle cx="25.4961" cy="9.625" r="8.75" fill="#FF4D4D"/>
<path d="M21.3986 7.1V6.27H23.2786V13.5H22.3586V7.1H21.3986ZM24.7317 12.77C25.5783 12.09 26.2417 11.5333 26.7217 11.1C27.2017 10.66 27.605 10.2033 27.9317 9.73C28.265 9.25 28.4317 8.78 28.4317 8.32C28.4317 7.88667 28.325 7.54667 28.1117 7.3C27.905 7.04667 27.5683 6.92 27.1017 6.92C26.6483 6.92 26.295 7.06333 26.0417 7.35C25.795 7.63 25.6617 8.00667 25.6417 8.48H24.7617C24.7883 7.73333 25.015 7.15667 25.4417 6.75C25.8683 6.34333 26.4183 6.14 27.0917 6.14C27.7783 6.14 28.3217 6.33 28.7217 6.71C29.1283 7.09 29.3317 7.61333 29.3317 8.28C29.3317 8.83333 29.165 9.37333 28.8317 9.9C28.505 10.42 28.1317 10.88 27.7117 11.28C27.2917 11.6733 26.755 12.1333 26.1017 12.66H29.5417V13.42H24.7317V12.77Z" fill="white"/>
</svg>
