<svg width="18" height="18" viewBox="0 0 18 18" fill="none" xmlns="http://www.w3.org/2000/svg">
<path d="M12.5627 2.67V1.5C12.5627 1.1925 12.3077 0.9375 12.0002 0.9375C11.6927 0.9375 11.4377 1.1925 11.4377 1.5V2.625H6.56267V1.5C6.56267 1.1925 6.30767 0.9375 6.00017 0.9375C5.69267 0.9375 5.43767 1.1925 5.43767 1.5V2.67C3.41267 2.8575 2.43017 4.065 2.28017 5.8575C2.26517 6.075 2.44517 6.255 2.65517 6.255H15.3452C15.5627 6.255 15.7427 6.0675 15.7202 5.8575C15.5702 4.065 14.5877 2.8575 12.5627 2.67Z" fill="white"/>
<path d="M15 7.37988H3C2.5875 7.37988 2.25 7.71738 2.25 8.12988V12.7499C2.25 14.9999 3.375 16.4999 6 16.4999H9.6975C10.215 16.4999 10.575 15.9974 10.41 15.5099C10.26 15.0749 10.1325 14.5949 10.1325 14.2499C10.1325 11.9774 11.985 10.1249 14.2575 10.1249C14.475 10.1249 14.6925 10.1399 14.9025 10.1774C15.3525 10.2449 15.7575 9.89238 15.7575 9.44238V8.13738C15.75 7.71738 15.4125 7.37988 15 7.37988ZM6.9075 13.2824C6.765 13.4174 6.57 13.4999 6.375 13.4999C6.2775 13.4999 6.18 13.4774 6.09 13.4399C6 13.4024 5.9175 13.3499 5.8425 13.2824C5.7075 13.1399 5.625 12.9524 5.625 12.7499C5.625 12.6524 5.6475 12.5549 5.685 12.4649C5.7225 12.3674 5.775 12.2924 5.8425 12.2174C5.9175 12.1499 6 12.0974 6.09 12.0599C6.36 11.9399 6.6975 12.0074 6.9075 12.2174C6.975 12.2924 7.0275 12.3674 7.065 12.4649C7.1025 12.5549 7.125 12.6524 7.125 12.7499C7.125 12.9524 7.0425 13.1399 6.9075 13.2824ZM6.9075 10.6574C6.765 10.7924 6.57 10.8749 6.375 10.8749C6.2775 10.8749 6.18 10.8599 6.09 10.8149C6 10.7774 5.9175 10.7249 5.8425 10.6574C5.7075 10.5149 5.625 10.3199 5.625 10.1249C5.625 10.0274 5.6475 9.92988 5.685 9.83988C5.7225 9.74988 5.775 9.66738 5.8425 9.59238C5.9175 9.52488 6 9.47238 6.09 9.43488C6.36 9.32238 6.6975 9.38238 6.9075 9.59238C6.975 9.66738 7.0275 9.74988 7.065 9.83988C7.1025 9.92988 7.125 10.0274 7.125 10.1249C7.125 10.3199 7.0425 10.5149 6.9075 10.6574ZM9.69 10.4099C9.6525 10.4999 9.6 10.5824 9.5325 10.6574C9.4575 10.7249 9.375 10.7774 9.285 10.8149C9.195 10.8599 9.0975 10.8749 9 10.8749C8.805 10.8749 8.61 10.7924 8.4675 10.6574C8.4 10.5824 8.3475 10.4999 8.31 10.4099C8.2725 10.3199 8.25 10.2224 8.25 10.1249C8.25 9.92988 8.3325 9.73488 8.4675 9.59238C8.6775 9.38238 9.0075 9.31488 9.285 9.43488C9.375 9.47238 9.4575 9.52488 9.5325 9.59238C9.6675 9.73488 9.75 9.92988 9.75 10.1249C9.75 10.2224 9.735 10.3199 9.69 10.4099Z" fill="white"/>
<path d="M14.25 11.25C12.5925 11.25 11.25 12.5925 11.25 14.25C11.25 15.9075 12.5925 17.25 14.25 17.25C15.9075 17.25 17.25 15.9075 17.25 14.25C17.25 12.5925 15.9075 11.25 14.25 11.25Z" fill="white"/>
</svg>
