<svg width="25" height="27" viewBox="0 0 25 27" fill="none" xmlns="http://www.w3.org/2000/svg">
<path d="M12.2941 1.5L6.64703 11.3824H17.9412L12.2941 1.5Z" stroke="#F4CA17" stroke-width="2" stroke-linecap="round" stroke-linejoin="round"/>
<path d="M19.353 25.5C21.6921 25.5 23.5883 23.6038 23.5883 21.2647C23.5883 18.9256 21.6921 17.0294 19.353 17.0294C17.0139 17.0294 15.1177 18.9256 15.1177 21.2647C15.1177 23.6038 17.0139 25.5 19.353 25.5Z" stroke="#F4CA17" stroke-width="2" stroke-linecap="round" stroke-linejoin="round"/>
<path d="M8.05882 17.0294H2.41176C1.63207 17.0294 1 17.6615 1 18.4412V24.0882C1 24.8679 1.63207 25.5 2.41176 25.5H8.05882C8.83852 25.5 9.47059 24.8679 9.47059 24.0882V18.4412C9.47059 17.6615 8.83852 17.0294 8.05882 17.0294Z" stroke="#F4CA17" stroke-width="2" stroke-linecap="round" stroke-linejoin="round"/>
</svg>
