<svg width="31" height="34" viewBox="0 0 31 34" fill="none" xmlns="http://www.w3.org/2000/svg">
<path d="M30.2974 20.8809L26.7617 17.3452C26.5407 17.1242 26.2409 17.0001 25.9284 17.0001C25.6159 17.0001 25.3162 17.1242 25.0952 17.3452L14.1427 28.2976V33.4999H19.3449L30.2974 22.5474C30.5183 22.3264 30.6425 22.0267 30.6425 21.7141C30.6425 21.4016 30.5183 21.1019 30.2974 20.8809ZM18.3691 31.1427H16.4999V29.2735L22.3927 23.3806L24.2619 25.2499L18.3691 31.1427ZM25.9284 23.5834L24.0592 21.7141L25.9284 19.8449L27.7976 21.7141L25.9284 23.5834ZM16.4999 19.357V14.6427H18.857V19.357H16.4999ZM11.7856 19.357V12.2856H14.1427V19.357H11.7856ZM7.07129 19.357V7.57129H9.42843V19.357H7.07129Z" fill="#37A9FB"/>
<path d="M9.42857 33.5H2.35714C1.73218 33.4994 1.133 33.2508 0.691081 32.8089C0.249166 32.367 0.000624026 31.7678 0 31.1429V2.85714C0.000624026 2.23218 0.249166 1.633 0.691081 1.19108C1.133 0.749166 1.73218 0.500624 2.35714 0.5H21.2143C21.8392 0.500624 22.4384 0.749166 22.8804 1.19108C23.3223 1.633 23.5708 2.23218 23.5714 2.85714V14.6429H21.2143V2.85714H2.35714V31.1429H9.42857V33.5Z" fill="#37A9FB"/>
</svg>
