<svg width="13" height="16" viewBox="0 0 13 16" fill="none" xmlns="http://www.w3.org/2000/svg">
<path d="M6.2248 16C7.12737 16 7.86583 15.2615 7.86583 14.359H4.58378C4.58378 14.7942 4.75667 15.2116 5.06442 15.5194C5.37217 15.8271 5.78958 16 6.2248 16ZM11.1479 11.0769V6.97436C11.1479 4.45538 9.80224 2.34667 7.45557 1.78872V1.23077C7.45557 0.549744 6.90583 0 6.2248 0C5.54378 0 4.99403 0.549744 4.99403 1.23077V1.78872C2.63916 2.34667 1.30172 4.44718 1.30172 6.97436V11.0769L0.243263 12.1354C-0.27366 12.6523 0.0873658 13.5385 0.817622 13.5385H11.6238C12.354 13.5385 12.7233 12.6523 12.2063 12.1354L11.1479 11.0769Z" fill="white"/>
</svg>
