<svg width="24" height="22" viewBox="0 0 24 22" fill="none" xmlns="http://www.w3.org/2000/svg">
<path d="M16.8814 4.6171C16.8928 4.36736 16.8927 4.36736 16.8925 4.36735L16.8919 4.36732L16.8902 4.36725L16.8842 4.36701L16.8624 4.36627C16.8435 4.3657 16.816 4.36501 16.7802 4.36451C16.7087 4.3635 16.6041 4.36322 16.4695 4.366C16.2003 4.37157 15.8108 4.3894 15.3251 4.43826C14.3538 4.53595 12.9961 4.75785 11.4445 5.25467C8.47395 6.20588 4.79223 8.16549 1.75793 12.1868C1.63779 9.86639 1.84422 5.33187 6.01538 2.44155L6.01549 2.44148C9.1619 0.258882 13.7664 0.00201673 17.4613 0.413825C19.3027 0.61905 20.8976 0.988144 21.9446 1.35345C22.4735 1.53797 22.8414 1.71437 23.033 1.85658C23.0564 1.87401 23.075 1.8893 23.0897 1.90236C20.2657 3.72798 18.9546 6.48988 17.8717 9.15792C17.7422 9.47708 17.6162 9.79426 17.4914 10.1083C17.0872 11.1256 16.6961 12.1099 16.241 13.0217C15.6475 14.2109 14.9557 15.2529 14.0117 16.0469L14.1726 16.2382L14.0117 16.0469C12.6017 17.2329 10.8955 17.5333 9.22673 17.3992C7.55528 17.2649 5.94138 16.6955 4.74977 16.167L4.56555 16.0853L4.4466 16.248L4.64842 16.3956C4.4466 16.248 4.44657 16.2481 4.44654 16.2481L4.44644 16.2482L4.44613 16.2487L4.44507 16.2501L4.4412 16.2555L4.42661 16.2757C4.4139 16.2935 4.39532 16.3196 4.37137 16.3537C4.32348 16.4219 4.25413 16.5222 4.16742 16.6517C3.99402 16.9106 3.75106 17.2863 3.47138 17.7555C2.91239 18.6934 2.2049 20.0077 1.61324 21.5117L1.61317 21.5119C1.54974 21.6735 1.44863 21.7331 1.32695 21.7469C1.18599 21.7629 0.997945 21.7162 0.805788 21.6048C0.616222 21.495 0.449917 21.3375 0.349597 21.1718C0.248983 21.0056 0.228756 20.8581 0.270781 20.7405C2.15936 15.4594 6.3238 11.4865 10.0389 8.82725C11.8939 7.49943 13.6304 6.5037 14.9029 5.84012C15.539 5.5084 16.0587 5.2599 16.4188 5.09459C16.5988 5.01194 16.7389 4.9501 16.8336 4.90907C16.881 4.88855 16.917 4.87324 16.941 4.86313L16.9679 4.85187L16.9744 4.84916L16.9759 4.84854L16.9762 4.84842L16.8814 4.6171ZM16.8814 4.6171L16.8928 4.36736L16.9762 4.84841L16.8814 4.6171Z" fill="#50AD2B" stroke="black" stroke-width="0.5"/>
</svg>
