<svg width="36" height="27" viewBox="0 0 36 27" fill="none" xmlns="http://www.w3.org/2000/svg">
<path d="M1 9.21875C1 8.4894 1.28973 7.78993 1.80546 7.27421C2.32118 6.75848 3.02065 6.46875 3.75 6.46875H25.75C26.4793 6.46875 27.1788 6.75848 27.6945 7.27421C28.2103 7.78993 28.5 8.4894 28.5 9.21875V22.9688C28.5 23.6981 28.2103 24.3976 27.6945 24.9133C27.1788 25.429 26.4793 25.7188 25.75 25.7188H3.75C3.02065 25.7188 2.32118 25.429 1.80546 24.9133C1.28973 24.3976 1 23.6981 1 22.9688V9.21875Z" stroke="#37A9FB" stroke-width="2" stroke-linecap="round" stroke-linejoin="round"/>
<path d="M14.75 20.2188C17.0282 20.2188 18.875 18.3719 18.875 16.0938C18.875 13.8156 17.0282 11.9688 14.75 11.9688C12.4718 11.9688 10.625 13.8156 10.625 16.0938C10.625 18.3719 12.4718 20.2188 14.75 20.2188Z" stroke="#37A9FB" stroke-width="2" stroke-linecap="round" stroke-linejoin="round"/>
<path d="M1 11.9688C2.45869 11.9687 3.85764 11.3893 4.88909 10.3578C5.92054 9.32639 6.5 7.92744 6.5 6.46875M23 25.7188C23 24.2601 23.5795 22.8611 24.6109 21.8297C25.6424 20.7982 27.0413 20.2188 28.5 20.2188" stroke="#37A9FB" stroke-width="2" stroke-linecap="round" stroke-linejoin="round"/>
<g clip-path="url(#clip0_656_17967)">
<rect width="16" height="16" transform="translate(20 0.28125)" fill="white"/>
<path fill-rule="evenodd" clip-rule="evenodd" d="M21 8.28125C21 10.1378 21.7375 11.9182 23.0503 13.231C24.363 14.5438 26.1435 15.2812 28 15.2812C29.8565 15.2812 31.637 14.5438 32.9497 13.231C34.2625 11.9182 35 10.1378 35 8.28125C35 6.42473 34.2625 4.64426 32.9497 3.3315C31.637 2.01875 29.8565 1.28125 28 1.28125C26.1435 1.28125 24.363 2.01875 23.0503 3.3315C21.7375 4.64426 21 6.42473 21 8.28125V8.28125ZM36 8.28125C36 10.403 35.1571 12.4378 33.6569 13.9381C32.1566 15.4384 30.1217 16.2812 28 16.2812C25.8783 16.2812 23.8434 15.4384 22.3431 13.9381C20.8429 12.4378 20 10.403 20 8.28125C20 6.15952 20.8429 4.12469 22.3431 2.6244C23.8434 1.1241 25.8783 0.28125 28 0.28125C30.1217 0.28125 32.1566 1.1241 33.6569 2.6244C35.1571 4.12469 36 6.15952 36 8.28125V8.28125ZM25.854 11.0843C25.7602 11.1781 25.633 11.2309 25.5004 11.231C25.3677 11.2311 25.2404 11.1785 25.1465 11.0848C25.0526 10.991 24.9998 10.8638 24.9997 10.7311C24.9996 10.5984 25.0522 10.4711 25.146 10.3772L29.243 6.28125H26.475C26.3424 6.28125 26.2152 6.22857 26.1214 6.1348C26.0277 6.04104 25.975 5.91386 25.975 5.78125C25.975 5.64864 26.0277 5.52146 26.1214 5.4277C26.2152 5.33393 26.3424 5.28125 26.475 5.28125H30.45C30.5826 5.28125 30.7098 5.33393 30.8036 5.4277C30.8973 5.52146 30.95 5.64864 30.95 5.78125V9.75625C30.95 9.88886 30.8973 10.016 30.8036 10.1098C30.7098 10.2036 30.5826 10.2563 30.45 10.2563C30.3174 10.2563 30.1902 10.2036 30.0964 10.1098C30.0027 10.016 29.95 9.88886 29.95 9.75625V6.98825L25.854 11.0843V11.0843Z" fill="#37A9FB"/>
</g>
<defs>
<clipPath id="clip0_656_17967">
<rect width="16" height="16" fill="white" transform="translate(20 0.28125)"/>
</clipPath>
</defs>
</svg>
