<svg width="33" height="24" viewBox="0 0 33 24" fill="none" xmlns="http://www.w3.org/2000/svg">
<path d="M22.3929 16.8C22.0803 16.8 21.7805 16.9264 21.5595 17.1515C21.3385 17.3765 21.2143 17.6817 21.2143 18C21.2143 18.3183 21.3385 18.6235 21.5595 18.8485C21.7805 19.0736 22.0803 19.2 22.3929 19.2H27.1071C27.4197 19.2 27.7195 19.0736 27.9405 18.8485C28.1615 18.6235 28.2857 18.3183 28.2857 18C28.2857 17.6817 28.1615 17.3765 27.9405 17.1515C27.7195 16.9264 27.4197 16.8 27.1071 16.8H22.3929ZM0 6C0 4.4087 0.620853 2.88258 1.72598 1.75736C2.8311 0.632141 4.32997 0 5.89286 0H27.1071C28.67 0 30.1689 0.632141 31.274 1.75736C32.3791 2.88258 33 4.4087 33 6V18C33 19.5913 32.3791 21.1174 31.274 22.2426C30.1689 23.3679 28.67 24 27.1071 24H5.89286C4.32997 24 2.8311 23.3679 1.72598 22.2426C0.620853 21.1174 0 19.5913 0 18V6ZM30.6429 7.2V6C30.6429 5.04522 30.2703 4.12955 29.6073 3.45442C28.9442 2.77928 28.0449 2.4 27.1071 2.4H5.89286C4.95513 2.4 4.0558 2.77928 3.39273 3.45442C2.72965 4.12955 2.35714 5.04522 2.35714 6V7.2H30.6429ZM2.35714 9.6V18C2.35714 18.9548 2.72965 19.8705 3.39273 20.5456C4.0558 21.2207 4.95513 21.6 5.89286 21.6H27.1071C28.0449 21.6 28.9442 21.2207 29.6073 20.5456C30.2703 19.8705 30.6429 18.9548 30.6429 18V9.6H2.35714Z" fill="#37A9FB"/>
</svg>
