<svg width="17" height="20" viewBox="0 0 17 20" fill="none" xmlns="http://www.w3.org/2000/svg">
<path d="M2.13099 0.750333L3.7452 0.147606C4.27796 -0.0510538 4.86479 -0.0491252 5.39623 0.153032C5.92767 0.35519 6.36743 0.74377 6.63346 1.24629L7.9535 3.73844C8.1826 4.17079 8.27053 4.66402 8.20497 5.1489C8.13941 5.63378 7.92364 6.08595 7.58795 6.44193L5.93696 8.19238C5.71597 8.43112 5.95075 9.29074 6.90719 10.7259C7.86453 12.1619 8.56813 12.7087 8.86901 12.5971L11.1251 11.7446C11.5824 11.5718 12.0823 11.5464 12.5548 11.672C13.0273 11.7976 13.4486 12.0678 13.7598 12.4449L15.547 14.6125C15.908 15.0501 16.0978 15.604 16.0812 16.1711C16.0647 16.7382 15.8428 17.28 15.4569 17.6959L14.2664 18.9787C13.8821 19.3928 13.3949 19.6976 12.8543 19.8619C12.3138 20.0262 11.7393 20.0442 11.1896 19.9141C8.48018 19.2724 5.86371 17.0176 3.30921 13.1859C0.749229 9.34862 -0.33749 6.04255 0.0909991 3.25648C0.177454 2.69508 0.412067 2.16689 0.770651 1.72637C1.12924 1.28584 1.59882 0.948922 2.13099 0.750333Z" fill="#37A9FB"/>
</svg>
