<svg width="33" height="34" viewBox="0 0 33 34" fill="none" xmlns="http://www.w3.org/2000/svg">
<path d="M19.1722 2.76976L15.8239 6.13415H19.3171C22.7325 6.13415 26.0081 7.49094 28.4232 9.90604C30.8383 12.3211 32.1951 15.5967 32.1951 19.0122H28.9756C28.9756 16.4506 27.958 13.9939 26.1467 12.1826C24.3354 10.3713 21.8787 9.35366 19.3171 9.35366H15.8239L19.1883 12.718L16.9024 14.9878L9.65854 7.7439L11.9283 5.47415L16.9024 0.5L19.1722 2.76976ZM0 17.4024V33.5H25.7561V17.4024H0ZM3.21951 27.9624V22.9561C4.18717 22.3941 4.99165 21.5896 5.55366 20.622H20.2024C20.7644 21.5896 21.5689 22.3941 22.5366 22.9561V27.9624C21.5826 28.5242 20.7897 29.3226 20.2346 30.2805H5.55366C4.98968 29.3186 4.18532 28.5198 3.21951 27.9624ZM12.878 28.6707C14.2109 28.6707 15.2927 27.23 15.2927 25.4512C15.2927 23.6724 14.2109 22.2317 12.878 22.2317C11.5452 22.2317 10.4634 23.6724 10.4634 25.4512C10.4634 27.23 11.5452 28.6707 12.878 28.6707Z" fill="#37A9FB"/>
</svg>
