<svg width="48" height="46" viewBox="0 0 48 46" fill="none" xmlns="http://www.w3.org/2000/svg">
<circle opacity="0.1" cx="14.5" cy="31.4609" r="14.5" fill="#37A9FB"/>
<path d="M28.5758 14.988L28.575 14.9906L28.0744 15.1452L23.3343 16.609C19.6166 17.8496 17.1253 21.3033 17.1253 25.1966V26.8525V27.6356L16.3738 27.8212C16.3708 27.8221 16.3655 27.8238 16.3572 27.8265L16.3527 27.8279C16.3303 27.8352 16.2764 27.8528 16.2164 27.8678L15.8217 27.9664L15.4703 27.7616C12.7981 26.2042 11.0516 23.3603 11.0001 20.1326L11 20.1246V20.1166V12.8522V12.8387L11.0001 12.8387C11.0196 11.3976 12.2428 10.3117 13.605 10.3117H13.6125L13.6125 10.3117C14.4829 10.3182 15.2471 10.7614 15.702 11.4295L18.1884 3.55907L18.1885 3.55885C18.5411 2.44364 19.6414 1.58931 20.9164 1.73839L28.5758 14.988ZM28.5758 14.988L29.2733 14.7727L30.3046 14.4543C30.3056 14.454 30.3065 14.4537 30.3075 14.4534C30.5703 14.3745 30.8256 14.3375 31.0796 14.3375C31.3577 14.3375 31.5941 14.3882 32.005 14.5165L32.9563 14.8135L33.2565 13.8633L34.2466 10.7299L34.2466 10.7299C34.7201 9.2314 33.7329 7.62082 32.0986 7.4301L32.0984 7.43008C31.6779 7.38107 31.2767 7.44112 30.915 7.58358L30.9341 7.52303L30.9342 7.52293C31.4073 6.02464 30.4205 4.41398 28.7861 4.22325L28.7857 4.2232C28.3658 4.17436 27.9648 4.23439 27.6032 4.37674L27.6223 4.31626C27.6223 4.31609 27.6224 4.31591 27.6224 4.31573L27.6226 4.31522L26.6687 4.01501L28.5758 14.988ZM33.5133 16.2003L33.5122 16.1969C33.0941 14.8568 31.6772 14.1105 30.3329 14.5164L30.3329 14.5164L30.3271 14.5182L23.385 16.6601L23.374 16.6635L23.363 16.6672C19.6614 17.9034 17.188 21.3231 17.188 25.1444V26.7977V27.6144L17.9882 27.7776C19.8836 28.1639 21.3133 29.8456 21.3133 31.8499C21.3133 32.4024 21.2004 32.9311 20.9996 33.4197L20.6862 34.1824L21.3752 34.6354C22.7013 35.5072 24.2513 36 25.9229 36H39.3302C40.9017 36 42.1404 34.5738 41.8296 32.9574C41.7496 32.5415 41.5713 32.1768 41.3263 31.8747H41.3929C42.9643 31.8747 44.203 30.4485 43.8922 28.8321C43.8123 28.4162 43.634 28.0514 43.389 27.7494H43.4555C45.027 27.7494 46.2657 26.3231 45.9549 24.7067L45.9542 24.7034C45.7077 23.4444 44.568 22.6554 43.3975 22.6554H43.392C43.8299 22.1022 44.0427 21.3642 43.8922 20.5815C43.6499 19.3206 42.5036 18.5301 41.3349 18.5301H33.0798C33.5799 17.8945 33.7694 17.0316 33.5133 16.2003ZM22.7454 2.84396C22.3501 2.25791 21.7097 1.83108 20.9168 1.73843L22.7454 2.84396ZM36.7519 7.12279C38.4246 7.12279 39.8146 5.76979 39.8146 4.11814C39.8146 2.42688 38.4432 1.05548 36.7519 1.05548C35.0606 1.05548 33.6892 2.42688 33.6892 4.11814C33.6892 5.76918 35.0767 7.12279 36.7519 7.12279ZM41.9085 17.4361C44.1573 17.4361 46.0025 15.6154 46.0025 13.4001C46.0025 11.2092 44.1817 9.30611 41.9085 9.30611C39.6722 9.30611 37.8146 11.0572 37.8146 13.3421C37.8146 15.6025 39.6481 17.4361 41.9085 17.4361ZM17.1566 27.812C14.9079 27.812 13.0627 29.6327 13.0627 31.848C13.0627 34.0389 14.8835 35.942 17.1566 35.942C19.393 35.942 21.2506 34.1909 21.2506 31.906C21.2506 29.6456 19.4171 27.812 17.1566 27.812Z" stroke="#37A9FB" stroke-width="2"/>
</svg>
