<svg width="28" height="27" viewBox="0 0 28 27" fill="none" xmlns="http://www.w3.org/2000/svg">
<path d="M13.5301 15.4999C12.6653 16.8055 12.2066 18.3241 12.2087 19.8749C12.2087 21.9124 12.9837 23.7749 14.265 25.2024C13.2382 25.4024 12.1209 25.5024 10.917 25.5024C6.49953 25.5024 3.23937 24.1611 1.24762 21.4561C0.818947 20.8736 0.588672 20.1763 0.588867 19.4611V18.3111C0.588867 17.5655 0.894925 16.8505 1.43971 16.3233C1.9845 15.7961 2.72338 15.4999 3.49383 15.4999H13.5301ZM20.6045 12.9999C22.4887 12.9999 24.2956 13.7242 25.6279 15.0135C26.9602 16.3028 27.7087 18.0515 27.7087 19.8749C27.7087 21.6982 26.9602 23.4469 25.6279 24.7362C24.2956 26.0256 22.4887 26.7499 20.6045 26.7499C18.7204 26.7499 16.9134 26.0256 15.5811 24.7362C14.2488 23.4469 13.5004 21.6982 13.5004 19.8749C13.5004 18.0515 14.2488 16.3028 15.5811 15.0135C16.9134 13.7242 18.7204 12.9999 20.6045 12.9999ZM20.6045 22.6886C20.3904 22.6886 20.1851 22.7709 20.0337 22.9175C19.8823 23.064 19.7972 23.2627 19.7972 23.4699C19.7972 23.6771 19.8823 23.8758 20.0337 24.0223C20.1851 24.1688 20.3904 24.2511 20.6045 24.2511C20.8186 24.2511 21.024 24.1688 21.1754 24.0223C21.3268 23.8758 21.4118 23.6771 21.4118 23.4699C21.4118 23.2627 21.3268 23.064 21.1754 22.9175C21.024 22.7709 20.8186 22.6886 20.6045 22.6886ZM20.6045 15.3424C19.2522 15.3424 18.1969 16.3649 18.2111 17.7861C18.2128 17.9519 18.2825 18.1102 18.4048 18.2262C18.5271 18.3423 18.6921 18.4065 18.8634 18.4049C19.0347 18.4032 19.1982 18.3358 19.3181 18.2174C19.4381 18.099 19.5045 17.9394 19.5027 17.7736C19.495 17.0499 19.9677 16.5924 20.6045 16.5924C21.2155 16.5924 21.7076 17.0824 21.7076 17.7799C21.7076 18.0199 21.6366 18.2074 21.4183 18.4811L21.2969 18.6261L21.1677 18.7674L20.8267 19.1299L20.6497 19.3274C20.155 19.8974 19.9587 20.3174 19.9587 20.9649C19.9587 21.1306 20.0267 21.2896 20.1479 21.4068C20.269 21.524 20.4332 21.5899 20.6045 21.5899C20.7758 21.5899 20.9401 21.524 21.0612 21.4068C21.1823 21.2896 21.2504 21.1306 21.2504 20.9649C21.2504 20.7111 21.3266 20.5149 21.5604 20.2274L21.6689 20.0961L21.7993 19.9524L22.1429 19.5899L22.3173 19.3949C22.8055 18.8324 22.9993 18.4161 22.9993 17.7799C22.9993 16.3999 21.9375 15.3424 20.6045 15.3424ZM10.917 0.504883C12.6299 0.504883 14.2726 1.16336 15.4838 2.33547C16.6949 3.50757 17.3754 5.09728 17.3754 6.75488C17.3754 8.41249 16.6949 10.0022 15.4838 11.1743C14.2726 12.3464 12.6299 13.0049 10.917 13.0049C9.20418 13.0049 7.56148 12.3464 6.3503 11.1743C5.13913 10.0022 4.4587 8.41249 4.4587 6.75488C4.4587 5.09728 5.13913 3.50757 6.3503 2.33547C7.56148 1.16336 9.20418 0.504883 10.917 0.504883Z" fill="#37A9FB"/>
</svg>
