<svg width="80" height="80" viewBox="0 0 80 80" fill="none" xmlns="http://www.w3.org/2000/svg">
<circle opacity="0.1" cx="40" cy="40" r="40" fill="#37A9FB"/>
<path d="M45.8349 30.3965C43.2813 30.3965 40.7851 31.1537 38.6619 32.5724C36.5387 33.9911 34.8838 36.0075 33.9066 38.3667C32.9294 40.7259 32.6737 43.3218 33.1719 45.8263C33.6701 48.3308 34.8997 50.6313 36.7054 52.437C38.511 54.2426 40.8116 55.4723 43.316 55.9705C45.8205 56.4686 48.4165 56.213 50.7757 55.2357C53.1349 54.2585 55.1513 52.6037 56.57 50.4805C57.9887 48.3573 58.7459 45.8611 58.7459 43.3075C58.7421 39.8845 57.3806 36.6027 54.9601 34.1822C52.5397 31.7618 49.2579 30.4003 45.8349 30.3965ZM46.5551 54.742V52.3362H45.1146V54.7412C42.3316 54.5632 39.7088 53.3773 37.7369 51.4054C35.765 49.4336 34.5792 46.8108 34.4011 44.0278H36.8054V42.5872H34.4011C34.579 39.8041 35.7648 37.1812 37.7367 35.2091C39.7086 33.2371 42.3315 32.0511 45.1146 31.8731V34.2774H46.5551V31.8731C49.3383 32.051 51.9613 33.2369 53.9332 35.209C55.9051 37.181 57.0909 39.8041 57.2686 42.5872H54.8636V44.0278H57.2686C57.0909 46.8109 55.9051 49.4338 53.9331 51.4058C51.9612 53.3777 49.3382 54.5635 46.5551 54.7412V54.742Z" fill="#37A9FB"/>
<path d="M55.4947 29.7115L56.2208 28.6599L57.438 29.5005C57.5953 29.609 57.7892 29.6506 57.977 29.6162C58.1649 29.5817 58.3315 29.474 58.44 29.3168L59.9302 27.156C59.9841 27.0781 60.022 26.9904 60.0419 26.8978C60.0618 26.8053 60.0633 26.7097 60.0462 26.6166C60.0292 26.5235 59.9939 26.4346 59.9425 26.3551C59.8911 26.2757 59.8245 26.2071 59.7465 26.1534L56.1264 23.6569C55.9692 23.5484 55.7753 23.5068 55.5874 23.5412C55.3995 23.5756 55.233 23.6833 55.1245 23.8405L53.6342 26.0014C53.5804 26.0792 53.5425 26.167 53.5225 26.2595C53.5026 26.3521 53.5012 26.4476 53.5182 26.5408C53.5353 26.6339 53.5705 26.7227 53.622 26.8022C53.6734 26.8817 53.74 26.9503 53.8179 27.004L55.0352 27.8439L54.2861 28.9286C52.5627 27.9114 50.6692 27.215 48.6974 26.8729V24.7539H51.186C51.377 24.7539 51.5602 24.678 51.6953 24.5429C51.8304 24.4078 51.9063 24.2246 51.9063 24.0336V20.7203C51.9063 20.5293 51.8304 20.346 51.6953 20.211C51.5602 20.0759 51.377 20 51.186 20H40.4848C40.2938 20 40.1106 20.0759 39.9755 20.211C39.8404 20.346 39.7645 20.5293 39.7645 20.7203V24.0336C39.7645 24.2246 39.8404 24.4078 39.9755 24.5429C40.1106 24.678 40.2938 24.7539 40.4848 24.7539H42.9734V26.87C42.5455 26.9421 42.122 27.0307 41.7064 27.1365H22.1061C21.9784 27.1366 21.8531 27.1706 21.7428 27.235C21.6326 27.2995 21.5415 27.3921 21.4788 27.5033C21.4162 27.6146 21.3842 27.7405 21.3862 27.8682C21.3882 27.9959 21.4241 28.1207 21.4903 28.2299L24.1654 32.6481C24.2296 32.7542 24.3201 32.8418 24.4281 32.9026C24.5361 32.9635 24.658 32.9954 24.782 32.9953H30.2352V31.5547H25.1875L23.3839 28.5793H38.0056C34.5423 30.4288 31.8369 33.4337 30.3598 37.0714H18.9297V38.5119H29.852C28.7412 42.2071 28.9464 46.173 30.4326 49.7338C31.9188 53.2946 34.5939 56.2297 38.002 58.0387H26.5265L24.7258 55.0604H31.1255V53.6198H23.4444C23.3165 53.6195 23.1909 53.6532 23.0803 53.7175C22.9698 53.7818 22.8784 53.8744 22.8155 53.9857C22.7525 54.097 22.7204 54.2231 22.7223 54.3509C22.7242 54.4788 22.7602 54.6038 22.8264 54.7132L25.5022 59.1314C25.5663 59.2375 25.6566 59.3252 25.7645 59.3862C25.8724 59.4471 25.9942 59.4792 26.1181 59.4793H41.7064C45.4818 60.4453 49.4763 60.0591 52.9967 58.3878C56.5171 56.7164 59.3413 53.8653 60.9792 50.3292C62.6171 46.7931 62.9654 42.7951 61.9636 39.029C60.9618 35.263 58.6731 31.9665 55.4947 29.7115ZM55.901 25.2523L58.3355 26.9334L57.6635 27.9058L55.2289 26.2247L55.901 25.2523ZM41.2072 21.442H50.4657V23.3147H41.2051L41.2072 21.442ZM44.4161 24.7553H47.259V26.6856C46.7901 26.6453 46.3169 26.6208 45.8372 26.6208C45.3575 26.6208 44.885 26.6453 44.4161 26.6856V24.7553ZM45.8372 58.5573C42.8213 58.5573 39.8732 57.663 37.3656 55.9875C34.858 54.3119 32.9036 51.9304 31.7495 49.1441C30.5954 46.3578 30.2935 43.2918 30.8819 40.3339C31.4703 37.376 32.9227 34.659 35.0553 32.5265C37.1879 30.3941 39.9049 28.9418 42.8628 28.3536C45.8208 27.7653 48.8867 28.0674 51.673 29.2216C54.4593 30.3758 56.8407 32.3303 58.5161 34.838C60.1915 37.3457 61.0857 40.2939 61.0855 43.3097C61.0804 47.3524 59.4719 51.228 56.6128 54.0862C53.7538 56.9445 49.8778 58.5519 45.835 58.5559L45.8372 58.5573Z" fill="#37A9FB"/>
<path d="M48.7003 43.3074C48.7004 42.7407 48.5325 42.1866 48.2177 41.7153C47.903 41.2441 47.4555 40.8767 46.932 40.6597C46.4084 40.4427 45.8323 40.3859 45.2765 40.4964C44.7206 40.6069 44.21 40.8797 43.8092 41.2804C43.4084 41.6811 43.1355 42.1916 43.0248 42.7474C42.9142 43.3033 42.9709 43.8794 43.1878 44.403C43.4046 44.9266 43.7719 45.3742 44.2431 45.689C44.7143 46.0039 45.2683 46.172 45.835 46.172C46.4841 46.1693 47.1126 45.9441 47.6155 45.5338L52.002 48.8075L52.8664 47.655L48.4892 44.3885C48.6292 44.0453 48.7009 43.6781 48.7003 43.3074ZM45.835 44.7314C45.5532 44.7314 45.2777 44.6478 45.0434 44.4912C44.8091 44.3347 44.6265 44.1121 44.5187 43.8517C44.4109 43.5914 44.3827 43.3049 44.4377 43.0285C44.4927 42.7521 44.6285 42.4982 44.8278 42.299C45.0272 42.0998 45.2811 41.9641 45.5575 41.9093C45.8339 41.8544 46.1204 41.8827 46.3807 41.9906C46.641 42.0986 46.8635 42.2813 47.02 42.5157C47.1764 42.7501 47.2599 43.0256 47.2597 43.3074C47.2593 43.6851 47.1091 44.0472 46.842 44.3142C46.5748 44.5811 46.2127 44.7312 45.835 44.7314Z" fill="#37A9FB"/>
<path d="M17.334 42.5879H25.6172V44.0285H17.334V42.5879Z" fill="#37A9FB"/>
<path d="M18.9297 48.1035H27.4693V49.5441H18.9297V48.1035Z" fill="#37A9FB"/>
</svg>
