<svg width="53" height="40" viewBox="0 0 53 40" fill="none" xmlns="http://www.w3.org/2000/svg">
<path d="M51.9105 10.5286L51.8457 10.0946L51.7783 10.1101C51.3175 7.96344 50.2562 5.99063 48.7171 4.41992C47.178 2.84921 45.224 1.74481 43.0812 1.2345C40.9384 0.724185 38.6944 0.828819 36.6087 1.53629C34.5231 2.24377 32.6812 3.52517 31.296 5.23223C29.9109 6.93929 29.0391 9.00224 28.7816 11.1824C28.5241 13.3625 28.8914 15.5708 29.841 17.5516C30.7906 19.5324 32.2837 21.2048 34.1475 22.3754C36.0113 23.5459 38.1697 24.1668 40.3728 24.166C40.951 24.166 41.5059 24.0782 42.0581 23.9981C41.8792 24.5974 41.6951 25.2071 41.3996 25.7548C41.104 26.5504 40.6425 27.2402 40.1836 27.9351C39.7999 28.6868 39.1232 29.1958 38.6254 29.839C38.1042 30.4642 37.3938 30.8801 36.8312 31.3993C36.2789 31.9418 35.5556 32.2131 34.98 32.5954C34.3785 32.939 33.8547 33.3188 33.2947 33.4996L31.8972 34.0731L30.6683 34.582L31.9231 39.5911L33.471 39.2191C33.9662 39.0951 34.5703 38.9504 35.2574 38.7774C35.96 38.6482 36.7093 38.2943 37.5442 37.9714C38.3661 37.6019 39.3228 37.3565 40.2095 36.7649C41.1014 36.2018 42.1307 35.7316 43.0382 34.9773C43.9171 34.1997 44.9775 33.5254 45.7605 32.5386C46.6161 31.6138 47.4614 30.6424 48.1173 29.5368C48.877 28.4828 49.3929 27.3254 49.9374 26.181C50.43 25.0366 50.8267 23.8664 51.1508 22.7297C51.7653 20.4512 52.0401 18.2864 52.1464 16.4341C52.2346 14.5793 52.1827 13.037 52.0738 11.921C52.0374 11.455 51.9829 10.9905 51.9105 10.5286ZM23.3905 10.5286L23.3257 10.0946L23.2583 10.1101C22.7975 7.96344 21.7362 5.99063 20.1971 4.41992C18.658 2.84921 16.704 1.74481 14.5612 1.2345C12.4184 0.724185 10.1744 0.828819 8.08874 1.53629C6.00312 2.24377 4.16117 3.52517 2.77601 5.23223C1.39085 6.93929 0.519092 9.00224 0.261603 11.1824C0.00411446 13.3625 0.37142 15.5708 1.32102 17.5516C2.27062 19.5324 3.7637 21.2048 5.62751 22.3754C7.49132 23.5459 9.64967 24.1668 11.8528 24.166C12.431 24.166 12.9859 24.0782 13.5381 23.9981C13.3592 24.5974 13.1751 25.2071 12.8796 25.7548C12.584 26.5504 12.1225 27.2402 11.6636 27.9351C11.2799 28.6868 10.6032 29.1958 10.1053 29.839C9.58421 30.4642 8.8738 30.8801 8.31118 31.3993C7.75893 31.9418 7.03556 32.2131 6.45997 32.5954C5.85846 32.939 5.33473 33.3188 4.7747 33.4996L3.37722 34.0731C2.59681 34.3909 2.15086 34.5769 2.15086 34.5769L3.40574 39.5859L4.9536 39.2139C5.44881 39.0899 6.05291 38.9453 6.73999 38.7722C7.44262 38.643 8.19191 38.2891 9.02677 37.9662C9.84867 37.5968 10.8054 37.3514 11.6921 36.7598C12.584 36.1966 13.6133 35.7264 14.5208 34.9721C15.3997 34.1945 16.4601 33.5203 17.2431 32.5334C18.0987 31.6086 18.944 30.6373 19.5999 29.5316C20.3596 28.4776 20.8755 27.3203 21.42 26.1758C21.9126 25.0314 22.3093 23.8612 22.6334 22.7245C23.2479 20.446 23.5227 18.2812 23.629 16.4289C23.7172 14.5741 23.6653 13.0319 23.5564 11.9159C23.5177 11.4516 23.4624 10.9889 23.3905 10.5286Z" fill="#37A9FB"/>
</svg>
