<svg width="60" height="60" viewBox="0 0 60 60" fill="none" xmlns="http://www.w3.org/2000/svg">
<path d="M60 5.56875C60 2.50312 57.4969 0 54.4125 0H0.703125C0.309375 0 0 0.31875 0 0.703125C0 1.0875 0.309375 1.40625 0.703125 1.40625H4.06875V3.525H0.703125C0.309375 3.525 0 3.84375 0 4.22813C0 4.6125 0.31875 4.93125 0.703125 4.93125H4.06875V7.05H0.703125C0.309375 7.05938 0 7.37812 0 7.7625C0 8.14687 0.31875 8.46562 0.703125 8.46562H4.06875V10.5844H0.703125C0.309375 10.5844 0 10.9031 0 11.2875C0 11.6719 0.31875 11.9906 0.703125 11.9906H4.06875V14.1094H0.703125C0.309375 14.1187 0 14.4281 0 14.8219C0 15.2156 0.31875 15.525 0.703125 15.525H4.06875V17.6437H0.703125C0.309375 17.6437 0 17.9625 0 18.3469C0 18.7312 0.31875 19.05 0.703125 19.05H4.06875V21.1688H0.703125C0.309375 21.1781 0 21.4875 0 21.8813C0 22.275 0.31875 22.5844 0.703125 22.5844H4.06875V24.7031H0.703125C0.309375 24.7031 0 25.0219 0 25.4062C0 25.7906 0.31875 26.1094 0.703125 26.1094H4.06875V28.2281H0.703125C0.309375 28.2375 0 28.5469 0 28.9406C0 29.3344 0.31875 29.6437 0.703125 29.6437H4.06875V31.7625H0.703125C0.309375 31.7625 0 32.0812 0 32.4656C0 32.85 0.31875 33.1688 0.703125 33.1688H4.06875V35.2875H0.703125C0.309375 35.2969 0 35.6063 0 36C0 36.3938 0.31875 36.7031 0.703125 36.7031H4.06875V38.8219H0.703125C0.309375 38.8219 0 39.1406 0 39.525C0 39.9094 0.31875 40.2281 0.703125 40.2281H4.06875V42.3469H0.703125C0.309375 42.3562 0 42.6656 0 43.0594C0 43.4531 0.31875 43.7625 0.703125 43.7625H4.06875V45.8812H0.703125C0.309375 45.8812 0 46.2 0 46.5844C0 46.9688 0.31875 47.2875 0.703125 47.2875H23.7C23.9344 47.475 24.1781 47.6437 24.4406 47.7844V59.2969C24.4406 59.6813 24.7594 60 25.1437 60H29.175C29.5594 60 29.8781 59.6813 29.8781 59.2969V47.7938C30.1406 47.6437 30.3937 47.475 30.6281 47.2969H48.8531V47.9156C48.8531 50.9906 51.3469 53.4938 54.4313 53.4938C57.5063 53.4938 60 50.9906 60 47.9156V5.6625C60 5.625 60 5.59687 60 5.56875ZM36.2344 37.8187L37.0688 34.05C37.1531 33.6656 36.9094 33.2906 36.5344 33.2156C36.1594 33.1312 35.775 33.375 35.7 33.75L34.8094 37.7719H32.8875L33.3844 33.9937C33.4313 33.6094 33.1688 33.2531 32.775 33.2062C32.3812 33.15 32.0344 33.4219 31.9875 33.8063L31.4625 37.7719H29.5312L29.7 33.9281C29.7188 33.5437 29.4187 33.2156 29.025 33.1969C28.6406 33.15 28.3125 33.4781 28.2938 33.8719L28.125 37.7719H26.1844L26.0156 33.8719C25.9969 33.4875 25.6594 33.1594 25.2844 33.1969C24.9 33.2156 24.6 33.5437 24.6094 33.9281L24.7781 37.7719H22.8469L22.3219 33.8063C22.275 33.4219 21.9281 33.1406 21.5344 33.2062C21.15 33.2531 20.8781 33.6094 20.925 33.9937L21.4219 37.7719H19.5L18.6188 33.75C18.5344 33.375 18.1594 33.1312 17.7844 33.2156C17.4094 33.3 17.1656 33.675 17.25 34.05L18.0844 37.8187C17.3625 37.9875 16.8281 38.6344 16.8281 39.4031V41.0156C16.8281 41.0719 16.8375 41.1281 16.8469 41.1844H14.8031C14.4844 38.775 12.5813 36.8625 10.1719 36.5438V10.7344C12.5813 10.4156 14.4937 8.50313 14.8125 6.09375H39.5344C39.8531 8.50313 41.7656 10.425 44.175 10.7344V36.5531C41.7656 36.8719 39.8531 38.7844 39.5344 41.1937H37.5C37.5 41.1375 37.5187 41.0812 37.5187 41.025V39.4125C37.5 38.6344 36.9656 37.9875 36.2344 37.8187ZM18.225 41.025V39.4125C18.225 39.2906 18.3281 39.1875 18.45 39.1875H35.8687C35.9906 39.1875 36.0938 39.2906 36.0938 39.4125V41.025C36.0938 41.6625 35.5781 42.1781 34.9406 42.1781H19.3781C18.7406 42.1781 18.225 41.6625 18.225 41.025ZM31.3031 43.5844C30.9656 45.5719 29.2406 47.0906 27.1687 47.0906C25.0875 47.0906 23.3531 45.5719 23.0156 43.5844H31.3031ZM28.4719 58.5938H25.8469V48.3375C26.2687 48.4406 26.7094 48.4969 27.1687 48.4969C27.6187 48.4969 28.0594 48.4406 28.4813 48.3375V58.5938H28.4719ZM48.8438 45.8812H31.8938C32.325 45.1969 32.6156 44.4188 32.7188 43.5844H34.9406C35.7563 43.5844 36.4781 43.1906 36.9469 42.6H40.1813C40.5656 42.6 40.8844 42.2812 40.8844 41.8969C40.8844 39.7031 42.675 37.9125 44.8688 37.9125C45.2531 37.9125 45.5719 37.5938 45.5719 37.2094V10.0781C45.5719 9.69375 45.2531 9.375 44.8688 9.375C42.675 9.375 40.8844 7.58437 40.8844 5.39062C40.8844 5.00625 40.5656 4.6875 40.1813 4.6875H14.1375C13.7531 4.6875 13.4344 5.00625 13.4344 5.39062C13.4344 7.58437 11.6438 9.375 9.45 9.375C9.06563 9.375 8.74687 9.69375 8.74687 10.0781V37.2094C8.74687 37.5938 9.06563 37.9125 9.45 37.9125C11.6438 37.9125 13.425 39.7031 13.425 41.8969C13.425 42.2812 13.7437 42.6 14.1281 42.6H17.3719C17.8406 43.1906 18.5625 43.5844 19.3781 43.5844H21.6C21.7031 44.4188 21.9937 45.1969 22.425 45.8812H5.46562V1.40625H54.4125C56.7094 1.40625 58.5844 3.2625 58.5938 5.55V5.56875V5.61562C58.5656 7.89375 56.7094 9.74063 54.4125 9.74063C52.1156 9.74063 50.25 7.86562 50.25 5.56875C50.25 5.18437 49.9312 4.86562 49.5469 4.86562C49.1625 4.86562 48.8438 5.18437 48.8438 5.56875V45.8812ZM58.5938 47.9062C58.5938 50.2031 56.7281 52.0781 54.4219 52.0781C52.125 52.0781 50.2594 50.2031 50.2594 47.9062V44.475C50.2594 44.4656 50.2594 44.4562 50.2594 44.4562V9.27188C51.2812 10.425 52.7719 11.1469 54.4219 11.1469C56.0812 11.1469 57.5719 10.4156 58.6031 9.2625V47.9062H58.5938Z" fill="#37A9FB"/>
<path d="M31.125 20.8309C31.125 21.2152 31.4438 21.534 31.8281 21.534C32.2125 21.534 32.5312 21.2152 32.5312 20.8309C32.5312 17.8684 30.1219 15.459 27.1594 15.459C24.1969 15.459 21.7969 17.8684 21.7969 20.8309C21.7969 21.2152 22.1156 21.534 22.5 21.534C22.8844 21.534 23.2031 21.2152 23.2031 20.8309C23.2031 18.6465 24.975 16.8652 27.1594 16.8652C29.3438 16.8652 31.125 18.6465 31.125 20.8309Z" fill="#37A9FB"/>
<path d="M24.8623 20.832C24.8623 22.0977 25.8842 23.1289 27.1498 23.1289C28.4154 23.1289 29.4467 22.0977 29.4467 20.832C29.4467 19.5664 28.4154 18.5352 27.1498 18.5352C25.8936 18.5352 24.8623 19.5664 24.8623 20.832ZM28.0498 20.832C28.0498 21.3195 27.6467 21.7227 27.1592 21.7227C26.6717 21.7227 26.2779 21.3195 26.2779 20.832C26.2779 20.3445 26.6717 19.9414 27.1592 19.9414C27.6467 19.9414 28.0498 20.3445 28.0498 20.832Z" fill="#37A9FB"/>
<path d="M27.1498 28.5098C25.8842 28.5098 24.8623 29.541 24.8623 30.8066C24.8623 31.191 25.1811 31.5098 25.5654 31.5098C25.9498 31.5098 26.2686 31.191 26.2686 30.8066C26.2686 30.3191 26.6623 29.916 27.1498 29.916C27.6373 29.916 28.0404 30.3191 28.0404 30.8066C28.0404 31.191 28.3592 31.5098 28.7436 31.5098C29.1279 31.5098 29.4467 31.191 29.4467 30.8066C29.4561 29.541 28.4248 28.5098 27.1498 28.5098Z" fill="#37A9FB"/>
<path d="M38.8684 32.0055C39.1309 32.0711 39.3934 32.1086 39.6559 32.1086C40.1902 32.1086 40.7152 31.968 41.184 31.6961C41.8871 31.2836 42.3934 30.6273 42.5996 29.8398C42.8527 28.9023 42.7215 27.918 42.2246 27.0742C41.7371 26.2305 40.9496 25.6305 40.0121 25.3867C38.9715 25.1055 37.9027 25.2367 36.9746 25.6773C37.0309 25.2273 37.059 24.7773 37.0496 24.3367C37.3871 23.9711 38.3246 23.0898 39.5059 23.1461C39.6652 23.1461 39.8152 23.1648 39.9652 23.1836C40.359 23.2398 40.7059 22.9773 40.7621 22.593C40.8184 22.2086 40.5559 21.8523 40.1715 21.7961C39.9746 21.768 39.7684 21.7492 39.5527 21.7398C38.4184 21.7023 37.4809 22.1805 36.8152 22.668C36.7684 22.4711 36.7121 22.2836 36.6465 22.0961C36.3652 21.318 35.9527 20.6148 35.559 19.9305C35.0059 18.993 34.4902 18.1023 34.3684 17.1273C34.1715 15.5148 35.3527 13.8273 36.9371 13.4617C38.5121 13.0867 40.3309 14.0617 40.884 15.5898C41.2121 16.518 41.0527 17.5398 40.4902 18.1305C40.1996 18.4305 39.7309 18.6273 39.2809 18.5992C38.9152 18.5898 38.5965 18.4586 38.3902 18.243C38.1746 17.9992 38.1184 17.5867 38.259 17.2023C38.2965 17.0898 38.4559 16.7148 38.8027 16.668C39.1871 16.6117 39.4496 16.2461 39.3934 15.8617C39.3371 15.4773 38.9715 15.2148 38.5871 15.2711C37.8371 15.393 37.2184 15.9367 36.9371 16.7242C36.6277 17.5867 36.7871 18.543 37.3496 19.1711C37.8184 19.6867 38.4934 19.9867 39.2527 19.9961C40.0871 20.0148 40.9309 19.6773 41.4934 19.0961C42.4402 18.1023 42.7121 16.5367 42.1965 15.093C41.3902 12.8805 38.8871 11.5305 36.5996 12.0742C36.2059 12.168 35.8402 12.3273 35.4934 12.5148C35.4652 11.3711 35.0152 10.2461 34.1527 9.38359C32.6621 7.89297 30.234 7.89297 28.734 9.38359C27.4871 10.6305 27.4871 12.6648 28.734 13.9117C29.7559 14.9336 31.5371 14.9336 32.559 13.9117C33.2152 13.2555 33.1496 12.1398 32.709 11.4836C32.3059 10.8836 31.6215 10.6773 30.9652 10.9586C30.609 11.1086 30.4402 11.5117 30.5902 11.868C30.7402 12.2242 31.1527 12.3836 31.509 12.2336C31.5465 12.2617 31.6215 12.3836 31.6402 12.5711C31.659 12.7398 31.6121 12.8805 31.5652 12.9273C31.0777 13.4148 30.2246 13.4148 29.7277 12.9273C29.0246 12.2242 29.0246 11.0898 29.7277 10.3867C30.6746 9.43984 32.2121 9.43984 33.159 10.3867C34.2184 11.4461 34.4059 13.0867 33.609 14.3523C33.5996 14.3617 33.5996 14.3711 33.5996 14.3805C33.0934 15.2523 32.8309 16.2648 32.9527 17.2867C33.1027 18.5523 33.7215 19.6117 34.3215 20.6336C34.7059 21.2898 35.0715 21.9086 35.3059 22.5648C35.5215 23.1648 35.6246 23.8305 35.6246 24.5148C35.3809 24.1211 35.0902 23.7461 34.7246 23.4273C33.9559 22.7336 32.9527 22.3867 31.9309 22.4523C30.8996 22.5086 29.9527 22.968 29.259 23.7367C28.6871 24.3836 28.3965 25.2086 28.4434 26.0805C28.4902 26.943 28.8746 27.7398 29.5215 28.3117C30.0652 28.7992 30.759 29.0336 31.4902 29.0055C32.2215 28.968 32.8871 28.6398 33.3746 28.0961C33.7871 27.6367 33.9934 27.0367 33.9652 26.418C33.9277 25.7992 33.6559 25.2273 33.1871 24.8148C32.8965 24.5523 32.4559 24.5805 32.1934 24.8711C31.9309 25.1617 31.959 25.6023 32.2496 25.8648C32.4277 26.0242 32.5402 26.2492 32.559 26.5023C32.5684 26.7461 32.4934 26.9805 32.3246 27.168C32.0902 27.4305 31.7621 27.5898 31.4152 27.6086C31.059 27.6367 30.7215 27.5148 30.459 27.2711C30.0934 26.943 29.8777 26.493 29.8496 26.0055C29.8215 25.518 29.9902 25.0492 30.309 24.6836C30.7496 24.1961 31.3496 23.9055 32.0059 23.868C32.6715 23.8305 33.2996 24.0555 33.7871 24.4867C34.884 25.4617 35.2309 27.0836 34.6402 28.3492C34.6121 28.4055 34.5934 28.4523 34.5652 28.5086C34.2184 29.1555 33.8059 29.7836 33.3465 30.3836C33.1121 30.693 33.1684 31.1336 33.4684 31.368C33.5996 31.4711 33.7496 31.518 33.8996 31.518C34.1059 31.518 34.3215 31.4242 34.4527 31.2461C34.959 30.5898 35.4184 29.8961 35.8027 29.1742C35.8309 29.118 35.8496 29.0617 35.8777 29.0148C35.8777 29.0055 35.8871 28.9961 35.8965 28.9867C35.9059 28.968 35.9059 28.9586 35.9152 28.9398C36.0652 28.6398 36.2059 28.3398 36.3277 28.0305C37.0027 26.9242 38.3246 26.4086 39.6277 26.7461C40.209 26.8961 40.6871 27.2711 40.9871 27.7867C41.2871 28.3023 41.3715 28.9023 41.2121 29.4836C41.0996 29.9055 40.8277 30.2617 40.4434 30.4867C40.059 30.7023 39.6184 30.768 39.1965 30.6555C38.8965 30.5711 38.634 30.3836 38.484 30.1117C38.334 29.8398 38.2871 29.5211 38.3621 29.2211C38.4184 29.0148 38.5496 28.8367 38.7371 28.7336C38.9246 28.6305 39.1402 28.593 39.3465 28.6492C39.7215 28.7523 40.1059 28.5273 40.209 28.1523C40.3121 27.7773 40.0871 27.393 39.7121 27.2898C39.1402 27.1398 38.5496 27.2148 38.034 27.5148C37.5277 27.8148 37.1621 28.293 37.0121 28.8555C36.834 29.5211 36.9277 30.2242 37.2746 30.8148C37.6496 31.4055 38.2027 31.8367 38.8684 32.0055Z" fill="#37A9FB"/>
<path d="M41.8683 23.0258C41.5589 23.2508 41.5027 23.7008 41.7183 24.0102C41.8589 24.207 42.0746 24.3008 42.2902 24.3008C42.4308 24.3008 42.5714 24.2633 42.7027 24.1695C43.0214 23.9445 43.0964 23.5039 42.8621 23.1852C42.8527 23.1758 42.8433 23.157 42.8339 23.1477C42.5996 22.8477 42.1777 22.8008 41.8683 23.0258Z" fill="#37A9FB"/>
<path d="M12.0285 24.3008C12.2629 24.3008 12.4879 24.1883 12.6191 23.982L12.0379 23.5883L11.4285 23.2227C11.2223 23.5508 11.316 23.982 11.6441 24.1977C11.766 24.2727 11.8973 24.3008 12.0285 24.3008Z" fill="#37A9FB"/>
<path d="M25.031 23.7469C24.3466 22.9781 23.3904 22.5187 22.3591 22.4625C21.3185 22.3969 20.3341 22.7531 19.5654 23.4375C19.2091 23.7562 18.9091 24.1312 18.6654 24.525C18.6654 23.8406 18.7685 23.175 18.9841 22.575C19.2185 21.9187 19.5841 21.3 19.9685 20.6438C20.5685 19.6219 21.1873 18.5625 21.3373 17.2969C21.4591 16.275 21.1966 15.2625 20.6904 14.3906C20.6904 14.3813 20.6904 14.3719 20.681 14.3719C19.8841 13.0969 20.0716 11.4656 21.131 10.4063C22.0779 9.45938 23.6154 9.45938 24.5623 10.4063C25.2654 11.1094 25.2654 12.2437 24.5623 12.9469C24.0748 13.4344 23.2216 13.4344 22.7248 12.9469C22.6779 12.9 22.6404 12.7594 22.6498 12.5906C22.6685 12.4031 22.7435 12.2719 22.781 12.2719C23.1373 12.4219 23.5498 12.2531 23.6998 11.8969C23.8498 11.5406 23.681 11.1281 23.3248 10.9781C22.6685 10.6969 21.9841 10.9031 21.581 11.5031C21.1404 12.1594 21.0748 13.275 21.731 13.9313C22.7529 14.9531 24.5341 14.9531 25.556 13.9313C26.8029 12.6844 26.8029 10.65 25.556 9.40312C24.0654 7.9125 21.6279 7.9125 20.1373 9.40312C19.2748 10.2656 18.8248 11.3906 18.7966 12.5344C18.4498 12.3469 18.0841 12.1875 17.6998 12.0937C15.4216 11.55 12.9091 12.9094 12.1029 15.1219C11.5873 16.5562 11.8685 18.1312 12.8154 19.125C13.3779 19.6969 14.2123 20.0063 15.056 20.0156C15.8154 19.9969 16.4904 19.7062 16.9685 19.1812C17.5216 18.5531 17.6904 17.5969 17.381 16.7344C17.0998 15.9375 16.481 15.3937 15.731 15.2812C15.3466 15.225 14.9904 15.4875 14.9248 15.8719C14.8685 16.2562 15.131 16.6125 15.5154 16.6781C15.8623 16.7344 16.0216 17.1 16.0591 17.2125C16.1904 17.5875 16.1435 18.0094 15.9279 18.2437C15.7216 18.4687 15.4029 18.6 15.0373 18.6094C14.5779 18.6 14.1185 18.4406 13.8373 18.15C13.2654 17.55 13.106 16.5281 13.4341 15.6C13.9873 14.0719 15.806 13.0875 17.381 13.4625C18.9654 13.8375 20.1373 15.5156 19.9498 17.1281C19.8373 18.1031 19.3123 18.9937 18.7591 19.9312C18.356 20.6156 17.9435 21.3187 17.6716 22.0969C17.606 22.2844 17.5498 22.4906 17.5029 22.6875C16.8466 22.2094 15.9091 21.7312 14.7748 21.75C14.5591 21.7594 14.3529 21.7781 14.156 21.8062C13.7716 21.8625 13.5091 22.2188 13.5654 22.6031C13.6216 22.9875 13.9779 23.25 14.3623 23.1937C14.5029 23.175 14.6529 23.1562 14.8216 23.1562C16.0029 23.1 16.9404 23.9812 17.2779 24.3469C17.2685 24.7875 17.2873 25.2375 17.3529 25.6875C16.4341 25.2469 15.356 25.125 14.3154 25.3969C13.3779 25.65 12.5904 26.25 12.1029 27.0844C11.6154 27.9281 11.4841 28.9031 11.7279 29.85C11.9341 30.6375 12.4404 31.2937 13.1435 31.7062C13.6123 31.9781 14.1373 32.1187 14.6716 32.1187C14.9341 32.1187 15.1966 32.0813 15.4591 32.0156C16.1248 31.8375 16.6873 31.4156 17.0341 30.8156C17.381 30.2156 17.4748 29.5219 17.2966 28.8562C17.1466 28.2844 16.781 27.8062 16.2748 27.5156C15.7685 27.2156 15.1685 27.1406 14.5966 27.2906C14.2216 27.3937 13.9966 27.7781 14.0998 28.1531C14.2029 28.5281 14.5873 28.7531 14.9623 28.65C15.1685 28.5938 15.3841 28.6219 15.5716 28.7344C15.7591 28.8469 15.8904 29.0156 15.9466 29.2219C16.031 29.5219 15.9841 29.8406 15.8248 30.1125C15.6654 30.3844 15.4123 30.5812 15.1123 30.6562C14.6904 30.7687 14.2404 30.7125 13.8654 30.4875C13.481 30.2625 13.2091 29.9062 13.0966 29.4844C12.9466 28.9031 13.0216 28.3031 13.3216 27.7875C13.6216 27.2719 14.1091 26.9062 14.681 26.7469C15.9841 26.4 17.306 26.9156 17.981 28.0312C18.1029 28.3313 18.2341 28.6313 18.3841 28.9312C18.3935 28.95 18.3935 28.9687 18.4029 28.9781C18.4123 28.9875 18.4123 28.9969 18.4216 29.0062C18.4498 29.0625 18.4685 29.1187 18.4966 29.175C18.8904 29.8969 19.3498 30.6 19.856 31.2469C19.9966 31.425 20.2029 31.5187 20.4091 31.5187C20.5591 31.5187 20.7185 31.4719 20.8404 31.3687C21.1498 31.125 21.1966 30.6844 20.9623 30.3844C20.5029 29.8031 20.0904 29.175 19.7341 28.5187C19.706 28.4625 19.6873 28.4062 19.6591 28.35C19.0685 27.0844 19.4248 25.4625 20.5123 24.4875C20.9998 24.0469 21.6373 23.8219 22.2935 23.8687C22.9498 23.9062 23.5498 24.1969 23.9904 24.6844C24.6654 25.4344 24.5998 26.5969 23.8404 27.2719C23.2966 27.7594 22.4529 27.7125 21.9654 27.1687C21.806 26.9812 21.7216 26.7469 21.731 26.5031C21.7498 26.2594 21.8529 26.0344 22.0404 25.8656C22.331 25.6031 22.3591 25.1625 22.0966 24.8719C21.8341 24.5812 21.3935 24.5531 21.1029 24.8156C20.6435 25.2281 20.3623 25.8 20.3248 26.4187C20.2873 27.0375 20.5029 27.6375 20.9154 28.0969C21.9185 29.2219 23.6435 29.3156 24.7685 28.3125C26.0998 27.1219 26.2123 25.0781 25.031 23.7469Z" fill="#37A9FB"/>
<path d="M17.0816 10.1523C17.466 10.1523 17.7848 9.83359 17.7848 9.44922C17.7848 9.06484 17.466 8.74609 17.0816 8.74609C16.6973 8.74609 16.3691 9.06484 16.3691 9.44922C16.3691 9.83359 16.6973 10.1523 17.0816 10.1523Z" fill="#37A9FB"/>
<path d="M37.2373 10.1523C37.6217 10.1523 37.9498 9.83359 37.9498 9.44922C37.9498 9.06484 37.6311 8.74609 37.2373 8.74609C36.8436 8.74609 36.5342 9.06484 36.5342 9.44922C36.5342 9.83359 36.8529 10.1523 37.2373 10.1523Z" fill="#37A9FB"/>
<path d="M9.46875 3.30078C8.30625 3.30078 7.35938 4.24766 7.35938 5.41016C7.35938 6.57266 8.30625 7.51953 9.46875 7.51953C10.6312 7.51953 11.5781 6.57266 11.5781 5.41016C11.5781 4.24766 10.6312 3.30078 9.46875 3.30078ZM9.46875 6.11328C9.08438 6.11328 8.76562 5.79453 8.76562 5.41016C8.76562 5.01641 9.08438 4.70703 9.46875 4.70703C9.85313 4.70703 10.1719 5.02578 10.1719 5.41016C10.1719 5.79453 9.8625 6.11328 9.46875 6.11328Z" fill="#37A9FB"/>
<path d="M44.8496 3.30078C43.6871 3.30078 42.7402 4.24766 42.7402 5.41016C42.7402 6.57266 43.6871 7.51953 44.8496 7.51953C46.0121 7.51953 46.959 6.57266 46.959 5.41016C46.959 4.24766 46.0121 3.30078 44.8496 3.30078ZM44.8496 6.11328C44.4652 6.11328 44.1465 5.79453 44.1465 5.41016C44.1465 5.01641 44.4652 4.70703 44.8496 4.70703C45.234 4.70703 45.5527 5.02578 45.5527 5.41016C45.5527 5.79453 45.234 6.11328 44.8496 6.11328Z" fill="#37A9FB"/>
<path d="M44.8496 39.7695C43.6871 39.7695 42.7402 40.7164 42.7402 41.8789C42.7402 43.0414 43.6871 43.9883 44.8496 43.9883C46.0121 43.9883 46.959 43.0414 46.959 41.8789C46.959 40.7164 46.0121 39.7695 44.8496 39.7695ZM44.8496 42.582C44.4652 42.582 44.1465 42.2633 44.1465 41.8789C44.1465 41.4945 44.4652 41.1758 44.8496 41.1758C45.234 41.1758 45.5527 41.4945 45.5527 41.8789C45.5527 42.2633 45.234 42.582 44.8496 42.582Z" fill="#37A9FB"/>
<path d="M7.35938 41.8789C7.35938 43.0414 8.30625 43.9883 9.46875 43.9883C10.6312 43.9883 11.5781 43.0414 11.5781 41.8789C11.5781 40.7164 10.6312 39.7695 9.46875 39.7695C8.30625 39.7695 7.35938 40.7164 7.35938 41.8789ZM9.46875 41.1758C9.85313 41.1758 10.1719 41.4945 10.1719 41.8789C10.1719 42.2633 9.85313 42.582 9.46875 42.582C9.08438 42.582 8.76562 42.2633 8.76562 41.8789C8.76562 41.4945 9.08438 41.1758 9.46875 41.1758Z" fill="#37A9FB"/>
</svg>
