<svg width="27" height="27" viewBox="0 0 27 27" fill="none" xmlns="http://www.w3.org/2000/svg">
<path d="M18.0856 10.1039L25.3435 2.8906L25.3199 6.97941C25.3123 7.32029 25.5827 7.61687 25.924 7.60927L26.3569 7.60885C26.6982 7.60084 26.9804 7.39791 26.9876 7.05704L27.0053 0.966007C27.0053 0.960127 26.9821 0.955486 26.9821 0.94958L27.0154 0.640768C27.0188 0.469486 26.9787 0.316768 26.8682 0.207528C26.7589 0.097419 26.6058 0.0303408 26.4358 0.0349814L26.1274 0.0421533C26.1215 0.0421533 26.1168 0.0442627 26.1105 0.0451328L20.0596 0.0185547C19.7187 0.0261484 19.4365 0.307961 19.4289 0.649258L19.428 1.08213C19.4799 1.48417 19.7959 1.71916 20.1368 1.71157L24.1248 1.72211L16.8925 8.91044C16.5631 9.23993 16.5631 9.77402 16.8925 10.1039C17.222 10.433 17.7561 10.433 18.0856 10.1039ZM8.94102 16.8969L1.68311 24.0877L1.70632 20.0213C1.71433 19.68 1.44346 19.3834 1.10259 19.391L0.643192 19.3918C0.301474 19.4003 0.0196349 19.6028 0.012463 19.9441L-0.00525571 26.0351C-0.00525571 26.041 0.0179474 26.0448 0.0179474 26.0515L-0.0153807 26.3595C-0.0191776 26.5308 0.0209005 26.6843 0.131854 26.7928C0.240697 26.9033 0.39426 26.97 0.563854 26.9657L0.872666 26.9581C0.878546 26.9581 0.882765 26.9556 0.889541 26.9556L6.96705 26.9822C7.30792 26.9738 7.58976 26.6919 7.59775 26.3511L7.59859 25.9178C7.54673 25.5166 7.23072 25.2808 6.88984 25.2884L2.90188 25.2778L10.1337 18.0903C10.4632 17.7608 10.4632 17.2268 10.1337 16.8973C9.80418 16.5678 9.27048 16.5674 8.941 16.8969H8.94102ZM27.0058 26.0347L26.988 19.9436C26.9805 19.6023 26.6982 19.3998 26.3573 19.3913L25.9245 19.3905C25.5832 19.3829 25.3132 19.6799 25.3204 20.0208L25.344 24.1096L18.0856 16.8968C17.7562 16.5673 17.2221 16.5673 16.8926 16.8968C16.5631 17.2263 16.5631 17.7604 16.8926 18.0898L24.1244 25.2773L20.1368 25.2879C19.7959 25.2803 19.4799 25.5161 19.428 25.9173L19.4289 26.3506C19.4369 26.6919 19.7191 26.9737 20.0596 26.9817L26.111 26.9551C26.1173 26.9551 26.1219 26.9576 26.1278 26.9576L26.4362 26.9652C26.6062 26.9695 26.7598 26.9028 26.8687 26.7923C26.9792 26.6834 27.0188 26.5303 27.0159 26.359L26.9826 26.051C26.9826 26.0443 27.0058 26.0405 27.0058 26.0346L27.0058 26.0347ZM2.90191 1.72277L6.89032 1.7123C7.23119 1.7199 7.54718 1.48449 7.59907 1.08284L7.59822 0.649601C7.58976 0.30833 7.30789 0.0260693 6.96749 0.0188975L0.889541 0.0450537C0.882791 0.04421 0.878572 0.0421006 0.872666 0.0421006L0.563854 0.0349023C0.394286 0.0302881 0.240302 0.0973662 0.131854 0.207449C0.0209005 0.316715 -0.0191512 0.469434 -0.0153807 0.640715L0.0179474 0.949527C0.0179474 0.955407 -0.00525571 0.959652 -0.00525571 0.965981L0.012463 7.05701C0.0200568 7.39789 0.301896 7.60081 0.643192 7.60882L1.10261 7.60922C1.44349 7.61681 1.71388 7.32024 1.70629 6.97936L1.68309 2.91291L8.94102 10.1038C9.27009 10.4333 9.80463 10.4333 10.1341 10.1038C10.4637 9.77426 10.4636 9.23977 10.1341 8.91028L2.90191 1.72277Z" fill="#031624"/>
</svg>
