<svg width="18" height="17" viewBox="0 0 18 17" fill="none" xmlns="http://www.w3.org/2000/svg">
<path d="M10.5162 16.7018H7.48283C7.29277 16.7019 7.10841 16.6369 6.96033 16.5178C6.81225 16.3987 6.70934 16.2325 6.66866 16.0468L6.3295 14.4768C5.87705 14.2786 5.44802 14.0307 5.05033 13.7377L3.5195 14.2252C3.3383 14.2829 3.14279 14.277 2.96543 14.2083C2.78807 14.1397 2.63954 14.0124 2.5445 13.8477L1.0245 11.2218C0.930451 11.0569 0.895149 10.865 0.924365 10.6774C0.953582 10.4899 1.04559 10.3178 1.18533 10.1893L2.37283 9.10599C2.31883 8.61525 2.31883 8.12006 2.37283 7.62932L1.18533 6.54849C1.04539 6.41997 0.953259 6.24772 0.924038 6.05998C0.894816 5.87223 0.930238 5.68013 1.0245 5.51516L2.54116 2.88766C2.63621 2.72292 2.78474 2.59565 2.9621 2.52698C3.13945 2.45831 3.33497 2.45237 3.51616 2.51016L5.047 2.99766C5.25033 2.84766 5.462 2.70766 5.68033 2.58099C5.89116 2.46266 6.10783 2.35516 6.3295 2.25932L6.6695 0.69099C6.70997 0.505321 6.81269 0.339063 6.96062 0.21978C7.10855 0.100498 7.2928 0.0353562 7.48283 0.0351562H10.5162C10.7062 0.0353562 10.8904 0.100498 11.0384 0.21978C11.1863 0.339063 11.289 0.505321 11.3295 0.69099L11.6728 2.26016C12.1247 2.45955 12.5536 2.70739 12.952 2.99932L14.4837 2.51182C14.6647 2.45425 14.8601 2.4603 15.0372 2.52896C15.2144 2.59762 15.3628 2.72476 15.4578 2.88932L16.9745 5.51682C17.1678 5.85599 17.1012 6.28516 16.8137 6.54932L15.6262 7.63266C15.6802 8.1234 15.6802 8.61858 15.6262 9.10932L16.8137 10.1927C17.1012 10.4577 17.1678 10.886 16.9745 11.2252L15.4578 13.8527C15.3628 14.0174 15.2143 14.1447 15.0369 14.2133C14.8595 14.282 14.664 14.2879 14.4828 14.2302L12.952 13.7427C12.5546 14.0354 12.1259 14.2831 11.6737 14.481L11.3295 16.0468C11.2889 16.2323 11.1861 16.3984 11.0382 16.5175C10.8902 16.6366 10.7061 16.7017 10.5162 16.7018V16.7018ZM8.99616 5.03516C8.11211 5.03516 7.26426 5.38635 6.63914 6.01147C6.01402 6.63659 5.66283 7.48443 5.66283 8.36849C5.66283 9.25254 6.01402 10.1004 6.63914 10.7255C7.26426 11.3506 8.11211 11.7018 8.99616 11.7018C9.88022 11.7018 10.7281 11.3506 11.3532 10.7255C11.9783 10.1004 12.3295 9.25254 12.3295 8.36849C12.3295 7.48443 11.9783 6.63659 11.3532 6.01147C10.7281 5.38635 9.88022 5.03516 8.99616 5.03516V5.03516Z" fill="#787878"/>
</svg>
