<svg width="49" height="60" viewBox="0 0 49 60" fill="none" xmlns="http://www.w3.org/2000/svg">
<path d="M47.9384 36.7572L44.2131 30.3829L44.4901 28.1933C45.6597 28.2098 47.0052 27.5308 47.0604 25.8786V22.8497C47.0598 22.2361 46.8127 21.6477 46.3735 21.2138C45.9343 20.7798 45.3388 20.5358 44.7177 20.535H41.4565C41.2377 19.6677 41.009 18.8371 40.7695 18.0487L43.0915 12.1646C43.2874 11.6686 43.3446 11.1297 43.257 10.6043C43.1694 10.079 42.9403 9.58657 42.5938 9.17882L38.7494 4.6843C38.7943 4.48429 38.5967 4.2628 38.4929 4.14151L35.1931 0.28348C35.0705 0.140277 34.9008 0.0441668 34.7137 0.01192C34.5267 -0.0203268 34.3341 0.0133371 34.1696 0.107038L30.4545 2.22598C30.29 2.31984 30.164 2.4679 30.0988 2.64423C30.0336 2.82056 30.0332 3.01393 30.0977 3.19052L31.833 7.94095C32.0231 8.10685 31.9375 8.88738 31.9375 8.88738C31.4062 9.28235 27.4267 12.2525 27.3835 12.2868L24.5859 10.1106V4.67385C24.5859 4.46166 24.5006 4.25816 24.3487 4.10811C24.1968 3.95807 23.9908 3.87378 23.776 3.87378H18.3108C18.096 3.87378 17.8901 3.95807 17.7382 4.10811C17.5863 4.25816 17.501 4.46166 17.501 4.67385V10.1104L13.9375 12.8825C13.6369 13.1204 13.3719 13.3992 13.1507 13.7106C12.5901 13.6567 12.027 13.6335 11.4638 13.6411C10.8555 13.6418 10.2723 13.8809 9.84211 14.3058C9.41195 14.7308 9.16997 15.307 9.16926 15.908V20.535H7.83796C7.2168 20.5358 6.6213 20.7798 6.18209 21.2138C5.74288 21.6477 5.49584 22.2361 5.49516 22.8497V25.8786C5.49584 26.4923 5.74288 27.0806 6.18209 27.5145C6.6213 27.9485 7.2168 28.1926 7.83796 28.1933H8.06549L9.16923 36.918V41.588C8.6826 41.6563 8.22422 41.8551 7.84393 42.1627C7.46364 42.4704 7.176 42.8751 7.01228 43.333C6.84855 43.7908 6.81501 44.2842 6.9153 44.7596C7.01558 45.235 7.24586 45.6741 7.5811 46.0292C6.02673 46.764 4.6823 47.8701 3.6694 49.2473C2.65651 50.6245 2.0071 52.2295 1.77992 53.917C1.17297 54.1501 0.667621 54.5856 0.351343 55.148C0.0350644 55.7103 -0.072239 56.3643 0.0480026 56.9966C0.168244 57.6289 0.508464 58.1997 1.00978 58.6104C1.51109 59.021 2.14195 59.2456 2.79317 59.2452H35.6003C36.9696 59.2433 38.2913 58.7484 39.3178 57.8531C40.3444 56.9578 41.0054 55.7236 41.1772 54.3814L41.9381 48.3665C43.2425 48.2332 44.4925 47.7797 45.5743 47.0472C46.656 46.3147 47.535 45.3265 48.1314 44.1727C48.7278 43.0188 49.0225 41.7359 48.9888 40.4407C48.9551 39.1455 48.594 37.8793 47.9383 36.7572H47.9384ZM44.7177 22.1352C44.9094 22.1354 45.0933 22.2108 45.2288 22.3447C45.3644 22.4787 45.4406 22.6603 45.4408 22.8497V25.8786C45.4406 26.068 45.3644 26.2497 45.2288 26.3836C45.0933 26.5176 44.9094 26.5929 44.7177 26.5931H37.0524L35.9679 24.9375L36.1914 22.1352H44.7177ZM29.6241 34.8026L29.6092 44.1325C29.609 44.4579 29.4779 44.7698 29.2448 44.9997C29.0118 45.2296 28.6958 45.3586 28.3665 45.3583C28.0371 45.3581 27.7214 45.2286 27.4887 44.9983C27.256 44.7681 27.1254 44.4559 27.1257 44.1306L27.1358 34.8188C27.1355 33.7287 25.5234 33.7537 25.5162 34.8027L25.5018 42.7764C25.498 43.1005 25.3659 43.4102 25.1336 43.6391C24.9014 43.868 24.5876 43.9979 24.2596 44.0009C24.0964 44.0015 23.9346 43.9703 23.7837 43.9089C23.6327 43.8475 23.4956 43.7572 23.3801 43.6431C23.2647 43.5291 23.1732 43.3936 23.1111 43.2445C23.0489 43.0954 23.0172 42.9356 23.0178 42.7743V34.9203C23.0178 34.7081 22.9325 34.5046 22.7806 34.3546C22.6288 34.2045 22.4228 34.1202 22.208 34.1202C21.9932 34.1202 21.7872 34.2045 21.6354 34.3546C21.4835 34.5046 21.3982 34.7081 21.3982 34.9203V40.4154C21.2875 41.5744 19.5829 41.4432 19.5498 40.3342C19.5498 40.3342 19.5474 28.4441 19.5428 28.4093L18.7024 22.1352H34.5665L34.3314 25.0818C34.3174 25.257 34.3622 25.4318 34.4589 25.5793L39.1236 32.7007C39.7165 33.8869 39.0156 34.5288 38.68 34.743C38.3472 34.9549 37.9429 35.0279 37.5557 34.946C37.1685 34.8641 36.83 34.634 36.6141 34.306L35.2212 32.1821C34.8126 31.4868 33.7778 31.7979 33.7324 32.6098L33.7317 32.616L33.7167 42.8031C33.7106 43.1254 33.5785 43.4329 33.3482 43.6612C33.1178 43.8895 32.8069 44.021 32.4807 44.028C31.5282 44.0435 31.2334 43.13 31.2334 42.8012L31.2437 34.8186C31.2894 33.8044 29.6789 33.7689 29.6241 34.8026ZM31.4888 20.535C31.6262 20.244 33.4179 16.6187 35.1967 15.7406C35.7553 17.2995 36.1745 18.9038 36.4496 20.535H31.4888ZM31.8512 3.27698L34.393 1.82725L36.501 4.2919L32.8534 6.02043L31.8512 3.27698ZM28.4957 13.4562C32.3043 10.6152 33.2392 9.92251 33.2405 9.92134C33.3431 9.84535 33.426 9.74638 33.4823 9.63258C33.5386 9.51877 33.5668 9.39338 33.5645 9.26672L33.5314 7.47384L37.4523 5.61586L41.353 10.2076C41.5127 10.3954 41.6183 10.6223 41.6586 10.8644C41.699 11.1064 41.6727 11.3548 41.5825 11.5833L39.1586 17.7254C39.0923 17.8933 39.0854 18.0783 39.1389 18.2506C39.3638 18.9754 39.5793 19.7385 39.7861 20.535H38.0994C37.6329 18.0323 37.1281 16.0991 36.5433 14.7695C36.4247 14.51 36.217 14.3002 35.9569 14.1775C35.6968 14.0547 35.4011 14.0268 35.1222 14.0988C33.8358 14.3239 31.5856 16.2657 29.7223 20.535H28.6605C28.7553 20.1698 28.8516 19.8104 28.9502 19.4603C28.9845 19.3382 28.9891 19.2097 28.9634 19.0856C28.9377 18.9614 28.8825 18.845 28.8024 18.746C28.8024 18.746 26.8941 16.9965 26.98 15.74C27.0031 14.9732 27.5152 14.2031 28.4958 13.4561L28.4957 13.4562ZM19.1207 5.47392H22.9662V9.21658H19.1207V5.47392ZM19.2112 10.8167H22.8755L26.2304 13.4264C25.6982 14.0757 25.393 14.8777 25.3604 15.7126C25.2069 17.5521 27.2797 19.4274 27.2797 19.4274C27.181 19.7886 27.0847 20.1591 26.9899 20.535H14.8914V15.908C14.8916 15.4467 14.7485 14.9964 14.4813 14.6181C14.6565 14.2407 19.2112 10.8167 19.2112 10.8167ZM17.6659 26.5932H14.8914V22.1352H17.0687L17.6659 26.5932ZM10.7889 15.9079C10.7891 15.7312 10.8603 15.5617 10.9868 15.4367C11.1133 15.3117 11.2849 15.2414 11.4638 15.2412H12.5968C12.7758 15.2414 12.9473 15.3117 13.0738 15.4367C13.2003 15.5617 13.2715 15.7312 13.2717 15.9079V41.5576H10.7889V15.9079ZM7.83796 26.5931C7.64622 26.5929 7.4624 26.5176 7.32684 26.3836C7.19127 26.2497 7.11503 26.068 7.11485 25.8786V22.8497C7.11503 22.6603 7.19127 22.4787 7.32684 22.3447C7.4624 22.2108 7.64622 22.1354 7.83796 22.1352H9.16923V26.5931H7.83796ZM9.55439 43.1578H14.5061C14.7915 43.1578 15.0652 43.2698 15.267 43.4691C15.4688 43.6685 15.5822 43.9389 15.5822 44.2208C15.5822 44.5028 15.4688 44.7732 15.267 44.9725C15.0652 45.1719 14.7915 45.2839 14.5061 45.2839H9.55439C9.26901 45.2839 8.99531 45.1719 8.79352 44.9725C8.59172 44.7732 8.47835 44.5028 8.47835 44.2208C8.47835 43.9389 8.59172 43.6685 8.79352 43.4691C8.99531 43.2698 9.26901 43.1578 9.55439 43.1578ZM9.9425 46.884H14.118C15.7526 47.2856 17.2351 48.1448 18.3873 49.3586C19.5395 50.5723 20.3125 52.0889 20.6134 53.7262H3.44696C3.74786 52.0889 4.52089 50.5723 5.67315 49.3586C6.82541 48.1448 8.30789 47.2856 9.9425 46.884ZM21.2673 57.645H2.79317C2.63859 57.6457 2.48539 57.6163 2.34236 57.5584C2.19933 57.5004 2.0693 57.4151 1.95973 57.3074C1.85017 57.1997 1.76322 57.0716 1.70389 56.9306C1.64457 56.7896 1.61403 56.6384 1.61403 56.4857C1.61403 56.333 1.64457 56.1817 1.70389 56.0407C1.76322 55.8997 1.85017 55.7716 1.95973 55.6639C2.0693 55.5562 2.19933 55.4709 2.34236 55.413C2.48539 55.355 2.63859 55.3256 2.79317 55.3263H21.2673C21.5776 55.3278 21.8746 55.4506 22.0935 55.6679C22.3123 55.8851 22.4352 56.1791 22.4352 56.4857C22.4352 56.7922 22.3123 57.0862 22.0935 57.3035C21.8746 57.5208 21.5776 57.6435 21.2673 57.645ZM39.5698 54.183C39.4475 55.1383 38.977 56.0169 38.2463 56.6541C37.5156 57.2914 36.5749 57.6437 35.6002 57.645H23.7986C23.9602 57.3036 24.049 56.9331 24.0595 56.5563C24.07 56.1796 24.0019 55.8048 23.8595 55.4551C23.7172 55.1055 23.5035 54.7885 23.2319 54.5239C22.9603 54.2592 22.6365 54.0527 22.2806 53.9169C22.0534 52.2294 21.404 50.6245 20.3911 49.2472C19.3782 47.87 18.0338 46.764 16.4794 46.0292C16.8146 45.6741 17.0449 45.235 17.1452 44.7596C17.2455 44.2842 17.212 43.7908 17.0483 43.333C16.8846 42.8751 16.5969 42.4704 16.2167 42.1627C15.8364 41.8551 15.378 41.6563 14.8914 41.588V28.1933L17.8972 28.1766L17.9473 40.3175C17.9473 40.9901 18.6045 43.41 21.3984 42.6804C21.3984 42.6804 21.3714 45.4101 24.2596 45.6009H24.2606C24.7746 45.6014 25.2791 45.4643 25.7204 45.2041C25.9352 45.7206 26.2999 46.1628 26.7687 46.4747C27.2375 46.7867 27.7893 46.9545 28.3546 46.957C28.9198 46.9595 29.4731 46.7966 29.9447 46.4887C30.4163 46.1809 30.785 45.742 31.0044 45.2274C31.5528 45.5438 32.1912 45.6735 32.8215 45.5965C33.4517 45.5195 34.0389 45.2401 34.4927 44.8012C35.5509 46.4523 37.3771 47.9325 40.3062 48.3625L39.5698 54.183ZM40.5075 46.7709C36.7921 46.4214 35.324 43.0393 35.324 43.0393C35.3306 42.962 35.3474 35.3026 35.3474 35.3026C35.8146 35.9409 36.5117 36.378 37.2952 36.5239C38.0787 36.6698 38.889 36.5135 39.5594 36.087C41.6062 34.7315 40.9355 32.5216 40.4834 31.8315L38.1004 28.1934H42.8577L40.5075 46.7709ZM44.2508 45.9811C43.6001 46.3511 42.8871 46.6019 42.1461 46.7215L43.8803 33.0137L46.5356 37.5573C47.3614 38.9741 47.5847 40.6567 47.1564 42.2359C46.7281 43.8152 45.6831 45.1621 44.2509 45.9811L44.2508 45.9811Z" fill="#37A9FB"/>
</svg>
