<svg width="16" height="17" viewBox="0 0 16 17" fill="none" xmlns="http://www.w3.org/2000/svg">
<path d="M15.4829 6.14692L10.6864 5.41755L8.54222 0.869419C8.48365 0.744893 8.38731 0.644087 8.26829 0.582813C7.96981 0.428639 7.6071 0.557117 7.45786 0.869419L5.3137 5.41755L0.517213 6.14692C0.384974 6.16668 0.26407 6.23191 0.171503 6.33074C0.0595945 6.45109 -0.0020722 6.613 5.31712e-05 6.78089C0.00217854 6.94879 0.0679221 7.10893 0.182838 7.22613L3.65316 10.7662L2.83328 15.765C2.81405 15.8813 2.82635 16.0009 2.86878 16.1102C2.91121 16.2196 2.98207 16.3143 3.07333 16.3836C3.16459 16.453 3.27259 16.4942 3.38509 16.5026C3.4976 16.511 3.6101 16.4862 3.70983 16.4311L8.00004 14.0711L12.2902 16.4311C12.4074 16.4963 12.5434 16.5181 12.6737 16.4944C13.0024 16.4351 13.2235 16.1089 13.1668 15.765L12.3469 10.7662L15.8172 7.22613C15.9117 7.12928 15.974 7.00278 15.9929 6.86442C16.0439 6.51851 15.8135 6.19831 15.4829 6.14692Z" fill="#F8D029"/>
</svg>
