<svg xmlns="http://www.w3.org/2000/svg" width="24" height="30" viewBox="0 0 24 30" fill="none">
<path d="M22 17.5C22 19.4778 21.4135 21.4112 20.3147 23.0557C19.2159 24.7002 17.6541 25.9819 15.8268 26.7388C13.9996 27.4957 11.9889 27.6937 10.0491 27.3079C8.10929 26.922 6.32746 25.9696 4.92894 24.5711C3.53041 23.1725 2.578 21.3907 2.19215 19.4509C1.8063 17.5111 2.00433 15.5004 2.76121 13.6732C3.51809 11.8459 4.79981 10.2841 6.4443 9.1853C8.08879 8.08649 10.0222 7.5 12 7.5H18.182L14.598 11.085L16 12.5L22 6.5L16 0.5L14.598 1.914L18.185 5.5H12C9.62663 5.5 7.30655 6.20379 5.33316 7.52236C3.35977 8.84094 1.8217 10.7151 0.913451 12.9078C0.00519943 15.1005 -0.232441 17.5133 0.230582 19.8411C0.693605 22.1689 1.83649 24.3071 3.51472 25.9853C5.19295 27.6635 7.33115 28.8064 9.65892 29.2694C11.9867 29.7324 14.3995 29.4948 16.5922 28.5866C18.7849 27.6783 20.6591 26.1402 21.9776 24.1668C23.2962 22.1935 24 19.8734 24 17.5H22Z" fill="#37A9FB"/>
</svg>