<svg width="25" height="24" viewBox="0 0 25 24" fill="none" xmlns="http://www.w3.org/2000/svg">
<path d="M18.9696 13.2504V9.45651C18.9696 7.61179 18.2368 5.84262 16.9324 4.53821C15.628 3.23379 13.8588 2.50098 12.0141 2.50098C10.1694 2.50098 8.40023 3.23379 7.09582 4.53821C5.79141 5.84262 5.05859 7.61179 5.05859 9.45651V13.2504C5.05859 15.0952 5.79141 16.8643 7.09582 18.1687C8.40023 19.4732 10.1694 20.206 12.0141 20.206C13.8588 20.206 15.628 19.4732 16.9324 18.1687C18.2368 16.8643 18.9696 15.0952 18.9696 13.2504ZM9.66821 15.3308C9.72699 15.2715 9.79693 15.2245 9.87398 15.1924C9.95104 15.1603 10.0337 15.1437 10.1172 15.1437C10.2006 15.1437 10.2833 15.1603 10.3603 15.1924C10.4374 15.2245 10.5073 15.2715 10.5661 15.3308C10.7559 15.5216 10.9815 15.673 11.23 15.7763C11.4785 15.8796 11.745 15.9328 12.0141 15.9328C12.2832 15.9328 12.5497 15.8796 12.7982 15.7763C13.0467 15.673 13.2723 15.5216 13.4621 15.3308C13.5812 15.2117 13.7427 15.1448 13.9111 15.1448C14.0795 15.1448 14.241 15.2117 14.36 15.3308C14.4791 15.4498 14.546 15.6113 14.546 15.7797C14.546 15.9481 14.4791 16.1096 14.36 16.2287C12.1659 18.3975 8.63121 16.3678 9.66821 15.3308Z" fill="white"/>
<path d="M22.1312 8.19197H21.4104C21.098 5.92179 19.9743 3.84145 18.247 2.33555C16.5197 0.829639 14.3057 0 12.0141 0C9.72252 0 7.50844 0.829639 5.78115 2.33555C4.05385 3.84145 2.93016 5.92179 2.61781 8.19197H1.89696C1.39386 8.19197 0.911357 8.39183 0.555607 8.74758C0.199858 9.10333 0 9.58583 0 10.0889V13.8829C0 14.386 0.199858 14.8685 0.555607 15.2242C0.911357 15.58 1.39386 15.7798 1.89696 15.7798H3.79392C3.96163 15.7798 4.12246 15.7132 4.24104 15.5946C4.35962 15.476 4.42624 15.3152 4.42624 15.1475V8.82429C4.42819 8.67273 4.37564 8.52551 4.27815 8.40945C4.18066 8.29339 4.04472 8.21621 3.89509 8.19197C4.20123 6.25878 5.18713 4.49826 6.67544 3.22708C8.16375 1.95591 10.0568 1.25751 12.0141 1.25751C13.9714 1.25751 15.8644 1.95591 17.3527 3.22708C18.8411 4.49826 19.827 6.25878 20.1331 8.19197C19.9835 8.21621 19.8475 8.29339 19.75 8.40945C19.6525 8.52551 19.6 8.67273 19.6019 8.82429V15.1475C19.6019 15.3152 19.6686 15.476 19.7871 15.5946C19.9057 15.7132 20.0666 15.7798 20.2343 15.7798C20.2348 17.4055 19.6658 18.9801 18.6262 20.2299C17.5865 21.4797 16.142 22.326 14.5434 22.6215C14.5712 22.3978 14.5511 22.1707 14.4843 21.9554C14.4175 21.74 14.3056 21.5414 14.156 21.3727C14.0065 21.2039 13.8227 21.069 13.6169 20.9769C13.4111 20.8848 13.188 20.8376 12.9626 20.8384H11.6979C11.2787 20.8384 10.8766 21.0049 10.5801 21.3014C10.2837 21.5979 10.1171 21.9999 10.1171 22.4192C10.1171 22.8385 10.2837 23.2405 10.5801 23.537C10.8766 23.8335 11.2787 24 11.6979 24H13.2787C15.4589 24 17.5497 23.1339 19.0913 21.5924C20.6328 20.0508 21.4989 17.9599 21.4989 15.7798H22.1312C22.6343 15.7798 23.1168 15.58 23.4726 15.2242C23.8283 14.8685 24.0282 14.386 24.0282 13.8829V10.0889C24.0282 9.58583 23.8283 9.10333 23.4726 8.74758C23.1168 8.39183 22.6343 8.19197 22.1312 8.19197Z" fill="white"/>
</svg>
