<svg width="80" height="80" viewBox="0 0 80 80" fill="none" xmlns="http://www.w3.org/2000/svg">
<circle opacity="0.1" cx="40" cy="40" r="40" fill="#37A9FB"/>
<path d="M39.2209 50.8814C37.8855 50.7873 36.5964 50.4536 35.3891 49.8895C35.1709 49.7877 34.9209 49.7759 34.6936 49.8586C34.4673 49.9414 34.2827 50.1105 34.1805 50.3291L33.0395 52.7755C30.5868 51.4364 28.5632 49.4127 27.2245 46.96L29.6705 45.8195C29.8891 45.7177 30.0586 45.5332 30.1409 45.3064C30.2232 45.0795 30.2118 44.8291 30.11 44.6109C29.5464 43.4036 29.2123 42.1145 29.1182 40.7782C29.0509 39.8323 28.2559 39.0909 27.3082 39.0909H20.9091C20.4073 39.0909 20 39.4982 20 40C20 51.0282 28.9718 60 40 60C40.5018 60 40.9091 59.5927 40.9091 59.0909V52.6918C40.9091 51.7441 40.1677 50.9491 39.2209 50.8814ZM39.0909 58.1591C29.7868 57.6991 22.3009 50.2127 21.8409 40.9086L27.305 40.9068C27.3932 42.1609 27.6627 43.3795 28.1077 44.5423L25.6064 45.7086C25.3877 45.8105 25.2182 45.995 25.1359 46.2218C25.0536 46.4486 25.0645 46.6986 25.1664 46.9173C26.7918 50.3964 29.6036 53.2082 33.0827 54.8336C33.3005 54.9355 33.5505 54.9468 33.7782 54.8641C34.005 54.7814 34.1895 54.6123 34.2914 54.3936L35.4577 51.8923C36.6205 52.3373 37.8386 52.6059 39.0909 52.6914V58.1591ZM38.1818 38.1818V37.2727C38.1818 36.7714 37.7741 36.3636 37.2727 36.3636H34.5455C34.0436 36.3636 33.6364 35.9564 33.6364 35.4545C33.6364 34.9527 34.0436 34.5455 34.5455 34.5455H37.2727C38.7768 34.5455 40 35.7686 40 37.2727V38.1818C40 39.6859 38.7768 40.9091 37.2727 40.9091H36.3636C35.8623 40.9091 35.4545 41.3168 35.4545 41.8182V43.6364H39.0909C39.5927 43.6364 40 44.0436 40 44.5455C40 45.0473 39.5927 45.4545 39.0909 45.4545H34.5455C34.0436 45.4545 33.6364 45.0473 33.6364 44.5455V41.8182C33.6364 40.3141 34.8595 39.0909 36.3636 39.0909H37.2727C37.7741 39.0909 38.1818 38.6832 38.1818 38.1818ZM46.3636 40.9091H42.7273C42.2255 40.9091 41.8182 40.5018 41.8182 40V35.4545C41.8182 34.9527 42.2255 34.5455 42.7273 34.5455C43.2291 34.5455 43.6364 34.9527 43.6364 35.4545V39.0909H46.3636V35.4545C46.3636 34.9527 46.7709 34.5455 47.2727 34.5455C47.7745 34.5455 48.1818 34.9527 48.1818 35.4545V44.5455C48.1818 45.0473 47.7745 45.4545 47.2727 45.4545C46.7709 45.4545 46.3636 45.0473 46.3636 44.5455V40.9091ZM60 40C60 49.0445 53.9045 56.9909 45.1773 59.3236C45.0986 59.3445 45.0195 59.3545 44.9418 59.3545C44.54 59.3545 44.1727 59.0859 44.0636 58.68C43.9341 58.195 44.2223 57.6968 44.7073 57.5668C47.5632 56.8036 50.1068 55.3764 52.1959 53.4818L50.2855 51.5714C49.9305 51.2164 49.9305 50.6409 50.2855 50.2859C50.6405 49.9309 51.2159 49.9309 51.5709 50.2859L53.4827 52.1977C56.2345 49.15 57.9432 45.1886 58.1568 40.9095H55.4545C54.9527 40.9095 54.5455 40.5023 54.5455 40.0005C54.5455 39.4986 54.9527 39.0914 55.4545 39.0914H58.1586C57.9445 34.7623 56.2086 30.8268 53.4764 27.8095L51.5705 29.7155C51.3927 29.8932 51.1605 29.9818 50.9277 29.9818C50.695 29.9818 50.4627 29.8932 50.285 29.7155C49.93 29.3605 49.93 28.785 50.285 28.43L52.1909 26.5241C49.1736 23.7914 45.2382 22.0555 40.9091 21.8414V24.5455C40.9091 25.0473 40.5018 25.4545 40 25.4545C39.4982 25.4545 39.0909 25.0473 39.0909 24.5455V21.8432C34.8123 22.0568 30.8505 23.7655 27.8027 26.5173L29.7145 28.4291C30.0695 28.7841 30.0695 29.3595 29.7145 29.7145C29.5368 29.8923 29.3045 29.9809 29.0718 29.9809C28.8391 29.9809 28.6068 29.8923 28.4291 29.7145L26.5186 27.8041C24.6241 29.8932 23.1968 32.4364 22.4336 35.2923C22.3036 35.7773 21.805 36.0655 21.3205 35.9359C20.8355 35.8064 20.5473 35.3082 20.6768 34.8227C23.0091 26.0955 30.9555 20 40 20C51.0282 20 60 28.9718 60 40Z" fill="#37A9FB"/>
</svg>
