<svg width="21" height="22" viewBox="0 0 21 22" fill="none" xmlns="http://www.w3.org/2000/svg">
<path d="M7.31571 1.142C8.23489 0.527817 9.31556 0.2 10.4211 0.2C11.9035 0.2 13.3252 0.788889 14.3734 1.83712C15.4216 2.88535 16.0105 4.30705 16.0105 5.78947C16.0105 6.89497 15.6827 7.97563 15.0685 8.89482C14.4543 9.814 13.5814 10.5304 12.56 10.9535C11.5387 11.3765 10.4149 11.4872 9.3306 11.2715C8.24635 11.0559 7.2504 10.5235 6.4687 9.74183C5.687 8.96013 5.15465 7.96418 4.93898 6.87993C4.72331 5.79567 4.834 4.67182 5.25705 3.65047C5.68011 2.62913 6.39652 1.75618 7.31571 1.142ZM8.38006 8.84403C8.9842 9.2477 9.69447 9.46316 10.4211 9.46316C11.3954 9.46316 12.3298 9.07611 13.0187 8.38716C13.7077 7.69821 14.0947 6.7638 14.0947 5.78947C14.0947 5.06289 13.8793 4.35262 13.4756 3.74848C13.0719 3.14435 12.4982 2.67348 11.8269 2.39543C11.1556 2.11738 10.417 2.04463 9.70435 2.18638C8.99173 2.32813 8.33714 2.67801 7.82336 3.19179C7.30959 3.70556 6.95971 4.36015 6.81796 5.07277C6.67621 5.7854 6.74896 6.52405 7.02701 7.19533C7.30506 7.86661 7.77593 8.44036 8.38006 8.84403ZM20.6421 20.8421V21.8H18.7263V20.8421C18.7263 19.2536 18.0953 17.7302 16.972 16.6069C15.8488 15.4837 14.3253 14.8526 12.7368 14.8526H8.10526C6.51676 14.8526 4.99331 15.4837 3.87007 16.6069C2.74682 17.7302 2.11579 19.2536 2.11579 20.8421V21.8H0.2V20.8421C0.2 18.7455 1.03287 16.7348 2.5154 15.2522C3.99792 13.7697 6.00866 12.9368 8.10526 12.9368H12.7368C14.8334 12.9368 16.8442 13.7697 18.3267 15.2522C19.8092 16.7348 20.6421 18.7455 20.6421 20.8421Z" fill="#37A9FB" stroke="black" stroke-width="0.4"/>
</svg>
