<svg width="16" height="16" viewBox="0 0 16 16" fill="none" xmlns="http://www.w3.org/2000/svg">
<path fill-rule="evenodd" clip-rule="evenodd" d="M8 1.88235C4.62132 1.88235 1.88235 4.62132 1.88235 8C1.88235 11.3787 4.62132 14.1176 8 14.1176C11.3787 14.1176 14.1176 11.3787 14.1176 8C14.1176 4.62132 11.3787 1.88235 8 1.88235ZM0 8C0 3.58172 3.58172 0 8 0C12.4183 0 16 3.58172 16 8C16 12.4183 12.4183 16 8 16C3.58172 16 0 12.4183 0 8Z" fill="#363636"/>
<path fill-rule="evenodd" clip-rule="evenodd" d="M7.99977 2.82422C8.51957 2.82422 8.94095 3.2456 8.94095 3.7654V8.1219C8.94095 8.12197 8.94095 8.12183 8.94095 8.1219C8.94103 8.24662 8.99062 8.36642 9.07883 8.45461L10.7829 10.1587C11.1505 10.5263 11.1505 11.1222 10.7829 11.4897C10.4154 11.8573 9.81946 11.8573 9.45191 11.4897L7.74801 9.78583C7.74797 9.7858 7.74804 9.78587 7.74801 9.78583C7.30678 9.34468 7.05873 8.74624 7.05859 8.1223V3.7654C7.05859 3.2456 7.47997 2.82422 7.99977 2.82422Z" fill="#363636"/>
</svg>
