<svg width="80" height="80" viewBox="0 0 80 80" fill="none" xmlns="http://www.w3.org/2000/svg">
<circle opacity="0.1" cx="40" cy="40" r="40" fill="#37A9FB"/>
<path d="M60.0001 42.6163V37.3838C60.0001 37.0669 59.7699 36.7969 59.4569 36.7468L56.2562 36.2345C55.8419 34.437 55.137 32.737 54.1564 31.1696L56.0585 28.5424C56.2445 28.2857 56.2163 27.932 55.9923 27.7078L52.2923 24.008C52.0683 23.784 51.7146 23.7557 51.4577 23.9416L48.8305 25.8438C47.2626 24.863 45.5627 24.1582 43.7656 23.7439L43.2533 20.5432C43.2032 20.2302 42.9331 20 42.6162 20H37.3837C37.0668 20 36.7968 20.2302 36.7467 20.5431L36.2344 23.7438C34.437 24.1582 32.737 24.8629 31.1695 25.8436L28.5423 23.9415C28.2857 23.7557 27.9319 23.7839 27.7077 24.0079L24.0078 27.7078C23.7837 27.9319 23.7555 28.2856 23.9415 28.5424L25.8436 31.1695C24.8625 32.7379 24.1578 34.4377 23.7437 36.2344L20.5431 36.7467C20.2302 36.7969 20 37.0669 20 37.3838V42.6163C20 42.9332 20.2302 43.2032 20.5431 43.2533L23.7438 43.7656C24.1582 45.5629 24.863 47.263 25.8437 48.8305L23.9415 51.4577C23.7556 51.7144 23.7838 52.0681 24.0078 52.2922L27.7078 55.9921C27.932 56.2163 28.2857 56.2442 28.5424 56.0585L31.1695 54.1563C32.7379 55.1374 34.4379 55.8422 36.2345 56.2562L36.7468 59.4569C36.7969 59.7698 37.067 60 37.3838 60H42.6163C42.9332 60 43.2032 59.7698 43.2533 59.4569L43.713 56.5855C45.3934 58.6664 47.9641 60 50.8409 60C55.8913 60.0001 60.0001 55.8913 60.0001 50.8409C60.0001 47.9641 58.6665 45.3933 56.5855 43.7129L59.4569 43.2533C59.7699 43.2033 60.0001 42.9333 60.0001 42.6163ZM51.5245 41.7072C51.2988 41.6904 51.0709 41.6817 50.8409 41.6817C49.4559 41.6817 48.1421 41.9913 46.964 42.544V41.5238C46.964 39.9994 45.8097 38.8388 43.7967 38.3396C43.0953 38.1656 42.3946 38.0409 41.6959 37.9622C42.7643 37.2123 43.4888 35.7779 43.4888 34.1343C43.4888 31.9112 42.152 30.5302 40.0001 30.5302C37.8482 30.5302 36.5114 31.9112 36.5114 34.1343C36.5114 35.7744 37.2328 37.206 38.2975 37.9572C37.5925 38.0358 36.8921 38.1624 36.1981 38.3408C34.1591 38.865 33.0361 39.9954 33.0361 41.5238V47.2639C33.0361 47.6202 33.3249 47.9091 33.6812 47.9091H42.163C41.851 48.83 41.6817 49.816 41.6817 50.8409C41.6817 51.0708 41.6904 51.2988 41.7072 51.5245C41.1429 51.6074 40.5709 51.6494 40 51.6494C33.5766 51.6494 28.3507 46.4235 28.3507 40C28.3507 33.5764 33.5766 28.3506 40 28.3506C46.4235 28.3506 51.6494 33.5766 51.6494 40C51.6494 40.5709 51.6074 41.1429 51.5245 41.7072ZM43.4475 42.1982C43.0912 42.1982 42.8023 42.4871 42.8023 42.8434V46.4545C42.7725 46.5088 42.7435 46.5637 42.7148 46.6187H37.1976V42.8434C37.1976 42.4871 36.9087 42.1982 36.5525 42.1982C36.1962 42.1982 35.9073 42.4871 35.9073 42.8434V46.6187H34.3263V41.5238C34.3263 40.3917 35.5188 39.8476 36.5192 39.5904C38.7875 39.0071 41.1313 39.0076 43.486 39.5918C44.303 39.7945 45.6736 40.3149 45.6736 41.5238V43.2825C45.0956 43.679 44.5651 44.1397 44.0926 44.6547V42.8433C44.0926 42.4871 43.8038 42.1982 43.4475 42.1982ZM40 37.2262C38.7879 37.2262 37.8017 35.8391 37.8017 34.1342C37.8017 32.121 39.179 31.8204 40 31.8204C40.8211 31.8204 42.1984 32.1211 42.1984 34.1342C42.1984 35.8392 41.2121 37.2262 40 37.2262ZM58.7098 50.8409C58.7098 55.1798 55.1798 58.7098 50.8409 58.7098C46.502 58.7098 42.9721 55.1798 42.9721 50.8409C42.9721 46.5019 46.502 42.9721 50.8409 42.9721C55.1798 42.9721 58.7098 46.502 58.7098 50.8409ZM58.7098 42.0662L55.6169 42.5612C55.455 42.5871 55.3137 42.6732 55.2156 42.7959C54.4676 42.3875 53.6564 42.0809 52.8012 41.8937C52.8931 41.2676 52.9397 40.6332 52.9397 40C52.9397 32.865 47.135 27.0603 40 27.0603C32.8649 27.0603 27.0603 32.8651 27.0603 40C27.0603 47.135 32.865 52.9398 40 52.9398C40.6332 52.9398 41.2675 52.8932 41.8936 52.8013C42.0809 53.6565 42.3875 54.4677 42.7959 55.2157C42.6732 55.3138 42.5871 55.4551 42.5612 55.6171L42.0661 58.7098H37.9339L37.4388 55.617C37.3963 55.3514 37.1934 55.14 36.9298 55.0867C34.9882 54.6938 33.1629 53.9371 31.5048 52.8376C31.2807 52.689 30.9879 52.695 30.7699 52.8527L28.2312 54.6909L25.3094 51.7689L27.1474 49.2301C27.3052 49.0122 27.3112 48.7194 27.1626 48.4952C26.0636 46.8383 25.3068 45.013 24.9135 43.0703C24.8601 42.8066 24.6487 42.6038 24.3832 42.5613L21.2903 42.0662V37.9339L24.3831 37.4388C24.6487 37.3963 24.8601 37.1934 24.9134 36.9298C25.3064 34.9881 26.0631 33.1629 27.1625 31.5049C27.3112 31.2807 27.3052 30.9878 27.1474 30.7699L25.3093 28.2313L28.2311 25.3094L30.7699 27.1474C30.9877 27.3052 31.2807 27.3111 31.5048 27.1625C33.1617 26.0636 34.987 25.3068 36.9298 24.9134C37.1934 24.86 37.3962 24.6486 37.4388 24.3831L37.9339 21.2903H42.0661L42.5612 24.3831C42.6037 24.6486 42.8066 24.86 43.0702 24.9134C45.0126 25.3067 46.8378 26.0635 48.4952 27.1625C48.7193 27.3111 49.0121 27.3052 49.2301 27.1474L51.7688 25.3093L54.6907 28.2312L52.8526 30.7699C52.6949 30.9878 52.6889 31.2807 52.8375 31.5049C53.9364 33.1616 54.6931 34.9869 55.0866 36.9298C55.14 37.1934 55.3514 37.3962 55.6169 37.4388L58.7098 37.9339V42.0662ZM53.4382 47.2893L49.5832 51.2005L48.2437 49.8609C47.8852 49.5025 47.4086 49.305 46.9016 49.305C46.3946 49.305 45.918 49.5024 45.5595 49.8609C45.2009 50.2193 45.0034 50.696 45.0034 51.203C45.0034 51.71 45.2009 52.1866 45.5594 52.5451L48.2463 55.232C48.6164 55.602 49.1024 55.787 49.5884 55.7869C50.0745 55.7869 50.5606 55.6019 50.9306 55.2319C52.301 53.8615 55.0985 50.9978 56.127 49.9591C56.4839 49.6002 56.6796 49.124 56.6782 48.618C56.6768 48.1119 56.4784 47.6367 56.1196 47.2799C55.3789 46.5433 54.1769 46.5466 53.4382 47.2893ZM55.211 49.0504C54.1785 50.0932 51.3832 52.9547 50.0181 54.3197C49.7812 54.5566 49.3956 54.5566 49.1588 54.3197L46.4719 51.6327H46.4718C46.3571 51.518 46.2938 51.3654 46.2938 51.203C46.2938 51.0408 46.3571 50.8881 46.4719 50.7734C46.5867 50.6586 46.7392 50.5954 46.9016 50.5954C47.0639 50.5954 47.2164 50.6586 47.3313 50.7734L49.1304 52.5724C49.2514 52.6934 49.4155 52.7614 49.5865 52.7614H49.5889C49.7608 52.7607 49.9253 52.6915 50.0459 52.5691L54.3551 48.1973C54.59 47.961 54.9734 47.9601 55.2098 48.195C55.3242 48.3088 55.3874 48.4603 55.3879 48.6217C55.3882 48.783 55.3259 48.9349 55.211 49.0504Z" fill="#37A9FB"/>
</svg>
