<svg width="15" height="16" viewBox="0 0 15 16" fill="none" xmlns="http://www.w3.org/2000/svg">
<path d="M10.5363 10.5382C11.0073 10.2852 11.5465 10.1411 12.1207 10.1411H12.1227C12.1811 10.1411 12.2083 10.071 12.1655 10.0321C11.5683 9.49621 10.8862 9.06338 10.147 8.75134C10.1392 8.74745 10.1314 8.7455 10.1237 8.74161C11.3324 7.86375 12.1188 6.43698 12.1188 4.82725C12.1188 2.16058 9.96209 0 7.30127 0C4.64044 0 2.48569 2.16058 2.48569 4.82725C2.48569 6.43698 3.27207 7.86375 4.48277 8.74161C4.47499 8.7455 4.4672 8.74745 4.45942 8.75134C3.58934 9.11922 2.80881 9.64672 2.13728 10.3202C1.46962 10.9866 0.93808 11.7767 0.572311 12.6462C0.212434 13.4977 0.0182122 14.4101 4.86735e-05 15.3343C-0.00047085 15.3551 0.003173 15.3757 0.0107656 15.3951C0.0183582 15.4144 0.0297459 15.4321 0.0442577 15.4469C0.0587695 15.4618 0.0761118 15.4736 0.0952626 15.4817C0.114413 15.4898 0.134986 15.4939 0.155766 15.4939H1.3217C1.4054 15.4939 1.47547 15.4258 1.47742 15.3421C1.51635 13.8394 2.11781 12.4321 3.18253 11.3655C4.28229 10.2618 5.74603 9.6545 7.30321 9.6545C8.40686 9.6545 9.46574 9.9601 10.3786 10.5324C10.4021 10.5471 10.429 10.5554 10.4567 10.5564C10.4844 10.5574 10.5118 10.5512 10.5363 10.5382ZM7.30321 8.17518C6.41173 8.17518 5.5728 7.82676 4.9402 7.19416C4.62894 6.88372 4.38219 6.51476 4.21416 6.10853C4.04613 5.70231 3.96013 5.26685 3.96112 4.82725C3.96112 3.93382 4.30954 3.09294 4.9402 2.46034C5.57085 1.82774 6.40978 1.47932 7.30321 1.47932C8.19664 1.47932 9.03363 1.82774 9.66623 2.46034C9.97748 2.77078 10.2242 3.13975 10.3923 3.54597C10.5603 3.95219 10.6463 4.38765 10.6453 4.82725C10.6453 5.72068 10.2969 6.56156 9.66623 7.19416C9.03363 7.82676 8.1947 8.17518 7.30321 8.17518ZM14.4623 12.8078H12.8273V11.1727C12.8273 11.0871 12.7572 11.017 12.6716 11.017H11.5816C11.4959 11.017 11.4258 11.0871 11.4258 11.1727V12.8078H9.7908C9.70516 12.8078 9.63509 12.8779 9.63509 12.9635V14.0535C9.63509 14.1392 9.70516 14.2092 9.7908 14.2092H11.4258V15.8443C11.4258 15.9299 11.4959 16 11.5816 16H12.6716C12.7572 16 12.8273 15.9299 12.8273 15.8443V14.2092H14.4623C14.548 14.2092 14.6181 14.1392 14.6181 14.0535V12.9635C14.6181 12.8779 14.548 12.8078 14.4623 12.8078Z" fill="#031624"/>
</svg>
