<svg width="40" height="40" viewBox="0 0 40 40" fill="none" xmlns="http://www.w3.org/2000/svg">
<circle opacity="0.5" cx="20" cy="20" r="20" fill="white"/>
<path d="M20.8366 10.668C19.7597 10.668 18.7069 10.9766 17.8114 11.555C16.9159 12.1333 16.218 12.9553 15.8059 13.917C15.3937 14.8787 15.2859 15.937 15.496 16.9579C15.7061 17.9789 16.2247 18.9167 16.9863 19.6527C17.7478 20.3888 18.7181 20.8901 19.7743 21.0932C20.8306 21.2962 21.9255 21.192 22.9205 20.7937C23.9155 20.3953 24.7659 19.7207 25.3642 18.8552C25.9626 17.9897 26.2819 16.9721 26.2819 15.9311C26.2819 14.5353 25.7082 13.1965 24.687 12.2095C23.6659 11.2225 22.2808 10.668 20.8366 10.668ZM20.8366 19.089C20.1905 19.089 19.5588 18.9038 19.0215 18.5568C18.4842 18.2098 18.0655 17.7166 17.8182 17.1396C17.5709 16.5626 17.5062 15.9276 17.6323 15.3151C17.7583 14.7025 18.0695 14.1398 18.5264 13.6982C18.9833 13.2565 19.5655 12.9558 20.1993 12.8339C20.833 12.7121 21.4899 12.7746 22.0869 13.0136C22.6839 13.2526 23.1942 13.6574 23.5532 14.1767C23.9122 14.696 24.1038 15.3066 24.1038 15.9311C24.1038 16.7687 23.7596 17.5719 23.1469 18.1641C22.5342 18.7563 21.7032 19.089 20.8366 19.089ZM30.6381 30.668V29.6153C30.6381 27.6611 29.835 25.7869 28.4053 24.4051C26.9756 23.0232 25.0366 22.2469 23.0148 22.2469H18.6585C16.6367 22.2469 14.6977 23.0232 13.268 24.4051C11.8383 25.7869 11.0352 27.6611 11.0352 29.6153V30.668H13.2133V29.6153C13.2133 28.2195 13.787 26.8808 14.8081 25.8937C15.8293 24.9067 17.2144 24.3522 18.6585 24.3522H23.0148C24.4589 24.3522 25.844 24.9067 26.8651 25.8937C27.8863 26.8808 28.46 28.2195 28.46 29.6153V30.668H30.6381Z" fill="white"/>
</svg>
