<svg width="29" height="29" viewBox="0 0 29 29" fill="none" xmlns="http://www.w3.org/2000/svg">
<path d="M20.0316 9.40088C20.0316 9.25908 19.9156 9.14307 19.7738 9.14307L17.6469 9.15273L14.4436 12.9716L11.2435 9.15596L9.11328 9.14629C8.97148 9.14629 8.85547 9.25908 8.85547 9.4041C8.85547 9.46533 8.87803 9.52334 8.9167 9.57168L13.1094 14.5668L8.9167 19.5587C8.87776 19.6059 8.85615 19.6651 8.85547 19.7263C8.85547 19.8681 8.97148 19.9841 9.11328 19.9841L11.2435 19.9744L14.4436 16.1556L17.6437 19.9712L19.7706 19.9809C19.9124 19.9809 20.0284 19.8681 20.0284 19.723C20.0284 19.6618 20.0059 19.6038 19.9672 19.5555L15.781 14.5636L19.9736 9.56846C20.0123 9.52334 20.0316 9.46211 20.0316 9.40088Z" fill="#37A9FB"/>
<path d="M14.4434 0.0620117C6.47051 0.0620117 0.00585938 6.52666 0.00585938 14.4995C0.00585938 22.4724 6.47051 28.937 14.4434 28.937C22.4162 28.937 28.8809 22.4724 28.8809 14.4995C28.8809 6.52666 22.4162 0.0620117 14.4434 0.0620117ZM14.4434 26.4878C7.82402 26.4878 2.45508 21.1188 2.45508 14.4995C2.45508 7.88018 7.82402 2.51123 14.4434 2.51123C21.0627 2.51123 26.4316 7.88018 26.4316 14.4995C26.4316 21.1188 21.0627 26.4878 14.4434 26.4878Z" fill="#37A9FB"/>
</svg>
