<svg width="357" height="70" viewBox="0 0 357 70" fill="none" xmlns="http://www.w3.org/2000/svg">
<g clip-path="url(#clip0_315_16062)">
<path d="M246.544 49.5703C246.544 50.106 246.398 50.6048 246.133 51.0296C246.096 51.085 246.06 51.1404 246.014 51.1959C245.987 51.2513 245.941 51.2975 245.905 51.3436C242.225 56.4881 236.227 59.8316 229.47 59.8316C218.258 59.8316 209.174 50.6417 209.174 39.3091C209.174 27.9764 218.258 18.7773 229.47 18.7773C235.907 18.7773 241.659 21.816 245.366 26.5541C245.494 26.7019 245.612 26.8589 245.722 27.0251C245.978 27.45 246.124 27.9395 246.124 28.4752C246.124 30.0176 244.882 31.2737 243.357 31.2737C242.563 31.2737 241.851 30.932 241.349 30.3963C241.23 30.2208 241.102 30.0546 240.974 29.8883C238.308 26.4617 234.218 24.2728 229.635 24.2728C221.6 24.2728 215.081 31.0059 215.081 39.3183C215.081 47.6308 221.6 54.3546 229.635 54.3546C234.419 54.3546 238.674 51.9625 241.33 48.268C241.458 48.0833 241.586 47.9078 241.705 47.7231C242.207 47.1412 242.946 46.781 243.768 46.781C245.293 46.781 246.535 48.0279 246.535 49.5796L246.544 49.5703Z" fill="white"/>
<path d="M75.9623 29.4154C75.2867 29.4431 74.675 29.7294 74.2276 30.182C73.7528 30.653 73.4698 31.3088 73.4698 32.0385V33.0267C70.7855 30.69 67.2612 29.3138 63.4266 29.4154C55.8028 29.6094 49.4573 35.7883 48.9917 43.4912C48.4622 52.21 55.3007 59.4603 63.81 59.4603C67.4895 59.4603 70.8677 58.1026 73.4698 55.849V56.7264C73.4698 58.0933 74.4558 59.3217 75.8071 59.451C77.3592 59.5988 78.6649 58.3704 78.6649 56.8372V32.177C78.6649 30.6808 77.4505 29.3692 75.9714 29.4247L75.9623 29.4154ZM63.81 54.3527C58.2223 54.3527 53.712 49.6146 54.0133 43.8975C54.2872 38.6607 58.688 34.4768 63.8739 34.5045C65.91 34.5137 67.8091 35.1602 69.3703 36.2501C71.9998 38.0881 73.4698 41.1914 73.4698 44.424C73.4698 47.7028 71.9542 50.8523 69.2608 52.6718C67.6995 53.7247 65.8278 54.3435 63.81 54.3435V54.3527Z" fill="white"/>
<path d="M144.158 29.4154C143.482 29.4431 142.87 29.7294 142.423 30.182C141.948 30.653 141.665 31.3088 141.665 32.0385V33.0267C138.981 30.69 135.457 29.3138 131.622 29.4154C123.998 29.6094 117.653 35.7883 117.187 43.4912C116.657 52.21 123.496 59.4603 132.005 59.4603C135.685 59.4603 139.063 58.1026 141.665 55.849V56.7264C141.665 58.0933 142.651 59.3217 144.002 59.451C145.555 59.5988 146.86 58.3704 146.86 56.8372V32.177C146.86 30.6808 145.646 29.3692 144.167 29.4247L144.158 29.4154ZM132.005 54.3527C126.418 54.3527 121.907 49.6146 122.209 43.8975C122.483 38.6607 126.883 34.4768 132.069 34.5045C134.105 34.5137 136.004 35.1602 137.566 36.2501C140.195 38.0881 141.665 41.1914 141.665 44.424C141.665 47.7028 140.149 50.8523 137.456 52.6718C135.895 53.7247 134.023 54.3435 132.005 54.3435V54.3527Z" fill="white"/>
<path d="M172.671 32.5205C173.593 33.5088 173.867 34.9958 173.219 36.178C172.671 37.1847 171.794 37.5172 171.018 37.6003C170.206 37.6835 169.411 37.3325 168.827 36.7506C168.608 36.5382 168.38 36.3442 168.16 36.1595C165.768 34.2476 162.344 34.2199 160.135 36.335C159.624 36.8245 159.195 37.3694 158.838 37.9236C157.743 39.6323 157.222 41.655 157.222 43.6961V56.7005C157.222 58.0766 156.227 59.305 154.876 59.4343C153.324 59.5821 152.027 58.3537 152.027 56.8205V32.031C152.027 31.3013 152.32 30.6548 152.785 30.1745C153.251 29.6943 153.844 29.4357 154.52 29.408C155.999 29.3525 157.213 30.6548 157.213 32.1603V34.0814C158.948 31.2736 162.025 29.408 165.54 29.408C168.352 29.408 170.881 30.5994 172.671 32.5205Z" fill="white"/>
<path d="M111.972 40.9619V56.7463C111.972 58.0578 111.059 59.24 109.772 59.434C108.302 59.6556 107.014 58.612 106.814 57.2173C106.795 57.0973 106.786 56.968 106.786 56.8387V41.3683C106.786 38.8099 105.344 36.4455 103.034 35.4018C101.81 34.8384 100.441 34.5336 99.0072 34.5336C96.9894 34.5336 95.1177 35.1524 93.5565 36.2053C90.863 38.0341 89.3474 41.1836 89.3474 44.4623V56.7278C89.3474 58.104 88.3522 59.3324 87.001 59.4617C85.4488 59.6095 84.1523 58.3811 84.1523 56.8479V32.0583C84.1523 31.3287 84.4445 30.6822 84.9102 30.2019C85.3575 29.7493 85.9693 29.463 86.6449 29.4353C88.124 29.3799 89.3383 30.6822 89.3383 32.1876V33.0558C91.9404 30.8022 95.3095 29.4445 98.9981 29.4445C101.856 29.4445 104.531 30.2665 106.804 31.6889C107.014 31.8182 107.215 31.9567 107.416 32.0953C110.292 34.0995 111.954 37.4522 111.954 40.9896L111.972 40.9619Z" fill="white"/>
<path d="M320.99 29.4154C320.314 29.4431 319.702 29.7294 319.255 30.182C318.78 30.653 318.497 31.3088 318.497 32.0385V33.0267C315.813 30.69 312.289 29.3138 308.454 29.4154C300.83 29.6094 294.485 35.7883 294.019 43.4912C293.489 52.21 300.328 59.4603 308.837 59.4603C312.517 59.4603 315.895 58.1026 318.497 55.849V56.7264C318.497 58.0933 319.483 59.3217 320.834 59.451C322.387 59.5988 323.692 58.3704 323.692 56.8372V32.177C323.692 30.6808 322.478 29.3692 320.999 29.4247L320.99 29.4154ZM308.837 54.3527C303.25 54.3527 298.739 49.6146 299.041 43.8975C299.315 38.6607 303.715 34.4768 308.901 34.5045C310.937 34.5137 312.836 35.1602 314.398 36.2501C317.027 38.0881 318.497 41.1914 318.497 44.424C318.497 47.7028 316.982 50.8523 314.288 52.6718C312.727 53.7247 310.855 54.3435 308.837 54.3435V54.3527Z" fill="white"/>
<path d="M356.999 40.9619V56.7463C356.999 58.0578 356.086 59.24 354.799 59.434C353.329 59.6556 352.042 58.612 351.841 57.2173C351.823 57.0973 351.813 56.968 351.813 56.8387V41.3683C351.813 38.8099 350.371 36.4455 348.061 35.4018C346.837 34.8384 345.468 34.5336 344.035 34.5336C342.017 34.5336 340.145 35.1524 338.584 36.2053C335.89 38.0341 334.375 41.1836 334.375 44.4623V56.7278C334.375 58.104 333.38 59.3324 332.028 59.4617C330.476 59.6095 329.18 58.3811 329.18 56.8479V32.0583C329.18 31.3287 329.472 30.6822 329.937 30.2019C330.385 29.7493 330.997 29.463 331.672 29.4353C333.151 29.3799 334.366 30.6822 334.366 32.1876V33.0558C336.968 30.8022 340.337 29.4445 344.025 29.4445C346.883 29.4445 349.558 30.2665 351.832 31.6889C352.042 31.8182 352.243 31.9567 352.443 32.0953C355.319 34.0995 356.981 37.4522 356.981 40.9896L356.999 40.9619Z" fill="white"/>
<path d="M288.268 46.4652C289.382 46.4652 290.277 45.5509 290.277 44.4333C290.277 43.4358 290.186 42.4568 290.003 41.5147C288.716 34.6154 282.909 29.4062 275.933 29.4062C268.958 29.4062 263.151 34.6061 261.864 41.5147C261.681 42.4568 261.59 43.4358 261.59 44.4333C261.59 45.126 261.635 45.8002 261.727 46.4652C262.676 53.7987 268.675 59.4511 275.933 59.4511C280.316 59.4511 284.242 57.3822 286.871 54.1404C287.1 53.8633 287.319 53.577 287.529 53.2814C287.675 52.9582 287.757 52.5887 287.757 52.21C287.757 50.8062 286.634 49.6701 285.246 49.6701C284.561 49.6701 283.95 49.938 283.502 50.3905C283.375 50.5753 283.238 50.76 283.082 50.9355C281.348 53.0321 278.791 54.3528 275.943 54.3528C271.387 54.3528 267.579 50.9817 266.675 46.4929C266.675 46.4837 266.675 46.4652 266.694 46.4652H288.268ZM266.913 41.5147C266.913 41.5147 266.885 41.4962 266.894 41.487C268.091 37.4416 271.688 34.5045 275.943 34.5045C279.932 34.5045 283.338 37.0906 284.735 40.7481C284.872 41.1176 284.598 41.5147 284.205 41.5147H266.913Z" fill="white"/>
<path d="M256.586 21.6021V56.6345C256.586 58.1954 255.336 59.4607 253.802 59.4607C252.268 59.4607 251.008 58.1954 251.008 56.6345V21.6021C251.008 20.8263 251.318 20.1244 251.82 19.6072C252.332 19.0992 253.026 18.7852 253.793 18.7852C255.326 18.7852 256.577 20.0505 256.577 21.6021H256.586Z" fill="white"/>
<path d="M203.101 29.2884C201.777 28.7343 200.262 29.3808 199.714 30.72L194.144 44.4448L191.953 49.8294L191.332 51.3626L189.324 46.9477L186.256 40.2147L181.883 30.6276C181.28 29.3069 179.746 28.7343 178.44 29.3346C177.491 29.7779 176.934 30.7292 176.934 31.7267C176.934 32.0962 177.016 32.4656 177.171 32.8166L180.568 40.2608L182.768 45.0913L188.648 57.9848L186.603 63.0277C186.265 63.8497 185.58 64.4962 184.731 64.7179C184.311 64.8287 183.8 64.8934 183.17 64.8841C183.033 64.8841 182.896 64.8749 182.759 64.8657C182.677 64.8657 182.604 64.8564 182.522 64.8472C181.563 64.7456 180.641 64.5055 179.783 64.1453L179.755 64.1268C179.545 64.0344 179.326 63.9328 179.116 63.822C179.116 63.822 179.107 63.822 179.098 63.822C178.577 63.665 177.975 63.6557 177.354 63.9144C176.651 64.2099 176.112 64.8287 175.911 65.5676C175.583 66.796 176.14 67.9505 177.08 68.4954C177.098 68.5047 177.117 68.5139 177.135 68.5231C177.235 68.5693 177.345 68.6247 177.454 68.6709C177.482 68.6894 177.5 68.6894 177.527 68.6986C179.372 69.5391 181.417 70.0009 183.572 70.0009C184.448 70.0009 185.306 69.927 186.137 69.77C188.374 69.3821 190.246 67.8582 191.113 65.7431L191.624 64.487L194.309 57.8648L197.55 49.8848L204.525 32.7058C204.662 32.3825 204.726 32.0408 204.726 31.7083C204.726 30.6738 204.115 29.6948 203.11 29.2792L203.101 29.2884Z" fill="white"/>
<path d="M22.0583 39.4102C21.1727 39.992 20.2049 40.5647 19.1641 41.1465C20.1227 40.5924 21.0997 40.0105 22.0583 39.4102Z" fill="#FBE99F"/>
<path d="M32.8966 28.0509C33.2983 26.6285 33.3074 25.123 32.8418 23.5898C32.9787 23.8485 33.7092 25.4555 32.8966 28.0509Z" fill="#FBE99F"/>
<path d="M17.3756 38.2748C33.1069 31.8188 32.8148 23.5526 32.8148 23.5526C32.8148 23.5526 32.8148 23.5526 32.8148 23.571C32.8148 23.571 32.8148 23.5803 32.8148 23.5987C33.2074 24.1806 37.3981 31.0799 24.2689 39.6418L17.4121 44.2598C49.3952 38.4872 37.4986 11.5272 37.4986 11.5272L45.314 8.14684L37.6264 5.27443C37.6264 5.27443 32.55 -3.06573 24.0498 1.22904C21.7124 2.40201 19.7677 4.25846 18.3617 6.49358C17.0195 8.61787 15.1844 11.7489 14.7278 13.5315C14.5544 14.2149 12.6918 15.4525 12.2079 15.9605C10.4093 17.8262 8.69278 19.8581 7.25934 22.0286C2.48424 29.2881 1.47992 37.9608 0.658203 46.5134C0.658203 46.5134 1.66253 44.7216 17.3847 38.2841L17.3756 38.2748Z" fill="white"/>
<path d="M51.203 61.7153C46.1814 65.5944 40.7306 67.9681 34.4399 68.7439C27.364 69.6213 20.0325 68.4299 13.6048 65.2896C10.5918 63.8119 7.94408 61.4752 5.91718 58.7782C4.9585 57.5037 4.13679 56.1367 3.45202 54.7051C3.26029 54.308 1.63511 50.9183 1.94554 50.6597C2.75813 49.9947 3.68941 49.3852 4.48373 48.9326L4.76677 48.7109C4.76677 48.7109 4.79416 48.7294 4.80329 48.7386C6.58368 51.1677 8.43711 53.0796 10.2905 54.5666C13.2396 56.9218 16.2708 58.2425 19.1834 58.8798C25.5106 60.2745 31.5183 58.3349 34.5769 57.0326C36.0103 56.423 37.6081 56.4046 39.0507 56.968L40.9954 57.7253L39.7172 58.3903C39.1328 58.6859 38.5759 59.0276 37.955 59.24L36.1473 59.9604C35.5538 60.2375 34.9056 60.3484 34.2847 60.5515C33.043 60.9672 31.7556 61.1704 30.4683 61.4197C29.82 61.5306 29.1718 61.5675 28.5236 61.6414L27.5466 61.7338L26.5697 61.7522C23.9585 61.8261 21.3198 61.5675 18.7542 60.9856C16.1795 60.413 13.6596 59.5725 11.3131 58.3441C13.6231 59.6556 16.1247 60.607 18.6903 61.2812C21.2559 61.9647 23.9128 62.3249 26.5697 62.3526L27.574 62.371L28.5783 62.3156C29.2357 62.2695 29.9113 62.2602 30.5687 62.1679C31.8926 61.9554 33.2256 61.8077 34.5221 61.429C35.1703 61.2535 35.8368 61.1427 36.4577 60.8933L38.3568 60.219C39.005 60.0159 39.5894 59.6926 40.2011 59.4155L41.3697 58.8983C42.1641 58.5473 43.0497 58.5289 43.8532 58.8429L44.9762 59.277L45.6062 59.5263L46.1996 59.7572C43.7436 61.2073 41.1963 62.565 38.4481 63.387C37.0329 63.9227 35.5355 64.1721 34.0656 64.5138C33.3169 64.6431 32.5591 64.7262 31.8104 64.8186C31.0617 64.9479 30.3039 64.9756 29.5461 64.9941C26.524 65.1511 23.4654 64.9202 20.4798 64.3199C17.4943 63.7195 14.5543 62.7867 11.797 61.4567C14.5087 62.879 17.4304 63.9042 20.4159 64.6062C23.4015 65.3266 26.4875 65.6498 29.5553 65.5944C30.3313 65.5944 31.0983 65.5944 31.8652 65.4928C32.6321 65.4097 33.3991 65.3635 34.166 65.2619C35.6816 64.9571 37.2246 64.7447 38.6946 64.246C40.8585 63.6826 43.3601 62.5742 45.597 61.4382C46.9574 60.7455 48.5461 60.6716 49.9704 61.2258L51.1756 61.6968L51.203 61.7153Z" fill="white"/>
<path d="M32.8328 23.5877C32.8328 23.5877 32.8328 23.5785 32.8237 23.5693C32.8146 23.56 32.8146 23.5508 32.8146 23.5508C32.8146 23.5508 33.1067 31.8263 17.3845 38.273C1.66233 44.7198 0.65801 46.5116 0.65801 46.5116L0.612359 47.0196L0.00976562 53.0045C0.292802 52.201 1.05974 51.379 1.9545 50.6586C3.83532 49.1162 6.33699 47.9524 6.33699 47.9524L7.56044 47.3059C7.95304 47.1119 8.30912 46.918 8.65606 46.7517C9.3317 46.41 9.87951 46.1422 10.2082 45.9482C12.0708 44.9138 14.9742 43.4914 18.0967 41.755L18.2519 41.6719C18.5623 41.4964 18.8819 41.3302 19.1832 41.1454C20.1419 40.5913 21.1188 40.0094 22.0775 39.4091C22.5979 39.0858 23.0909 38.7533 23.5657 38.4393C27.939 35.493 31.8103 31.9925 32.8967 28.0857C32.8967 28.0764 32.9059 28.058 32.9059 28.0487C33.3076 26.6264 33.3167 25.1209 32.8511 23.5877H32.8328Z" fill="#F4CA17"/>
</g>
<defs>
<clipPath id="clip0_315_16062">
<rect width="357" height="70" fill="white"/>
</clipPath>
</defs>
</svg>
