<svg width="199" height="39" viewBox="0 0 199 39" fill="none" xmlns="http://www.w3.org/2000/svg">
<g clip-path="url(#clip0_315_16004)">
<path d="M137.428 27.617C137.428 27.9155 137.347 28.1934 137.199 28.4301C137.179 28.4609 137.159 28.4918 137.133 28.5227C137.118 28.5536 137.093 28.5793 137.072 28.605C135.021 31.4712 131.677 33.334 127.911 33.334C121.662 33.334 116.598 28.2139 116.598 21.9C116.598 15.5862 121.662 10.4609 127.911 10.4609C131.499 10.4609 134.706 12.1539 136.772 14.7937C136.843 14.876 136.909 14.9635 136.97 15.0561C137.113 15.2928 137.194 15.5656 137.194 15.864C137.194 16.7234 136.502 17.4232 135.652 17.4232C135.21 17.4232 134.813 17.2328 134.533 16.9344C134.466 16.8366 134.395 16.744 134.324 16.6513C132.838 14.7422 130.558 13.5227 128.003 13.5227C123.524 13.5227 119.89 17.274 119.89 21.9052C119.89 26.5364 123.524 30.2825 128.003 30.2825C130.67 30.2825 133.041 28.9498 134.522 26.8915C134.594 26.7886 134.665 26.6908 134.731 26.5879C135.011 26.2637 135.423 26.063 135.881 26.063C136.731 26.063 137.423 26.7577 137.423 27.6222L137.428 27.617Z" fill="white"/>
<path d="M42.3431 16.3896C41.9665 16.4051 41.6255 16.5646 41.3761 16.8168C41.1114 17.0792 40.9537 17.4445 40.9537 17.8511V18.4017C39.4574 17.0998 37.4929 16.333 35.3553 16.3896C31.1057 16.4977 27.5686 19.9402 27.309 24.2318C27.0138 29.0895 30.8258 33.1289 35.5691 33.1289C37.6201 33.1289 39.5032 32.3725 40.9537 31.1169V31.6058C40.9537 32.3674 41.5033 33.0517 42.2565 33.1238C43.1217 33.2061 43.8495 32.5217 43.8495 31.6675V17.9282C43.8495 17.0946 43.1726 16.3639 42.3482 16.3948L42.3431 16.3896ZM35.5691 30.2833C32.4544 30.2833 29.9402 27.6435 30.1082 24.4583C30.2609 21.5406 32.714 19.2095 35.6047 19.225C36.7397 19.2301 37.7983 19.5903 38.6685 20.1975C40.1343 21.2216 40.9537 22.9505 40.9537 24.7516C40.9537 26.5783 40.1088 28.333 38.6075 29.3468C37.7372 29.9334 36.6939 30.2782 35.5691 30.2782V30.2833Z" fill="white"/>
<path d="M80.3567 16.3896C79.9801 16.4051 79.6391 16.5646 79.3898 16.8168C79.1251 17.0792 78.9673 17.4445 78.9673 17.8511V18.4017C77.4711 17.0998 75.5066 16.333 73.369 16.3896C69.1194 16.4977 65.5823 19.9402 65.3227 24.2318C65.0275 29.0895 68.8395 33.1289 73.5828 33.1289C75.6338 33.1289 77.5169 32.3725 78.9673 31.1169V31.6058C78.9673 32.3674 79.517 33.0517 80.2702 33.1238C81.1354 33.2061 81.8632 32.5217 81.8632 31.6675V17.9282C81.8632 17.0946 81.1863 16.3639 80.3618 16.3948L80.3567 16.3896ZM73.5828 30.2833C70.4681 30.2833 67.9539 27.6435 68.1219 24.4583C68.2745 21.5406 70.7276 19.2095 73.6184 19.225C74.7533 19.2301 75.8119 19.5903 76.6822 20.1975C78.1479 21.2216 78.9673 22.9505 78.9673 24.7516C78.9673 26.5783 78.1225 28.333 76.6211 29.3468C75.7508 29.9334 74.7075 30.2782 73.5828 30.2782V30.2833Z" fill="white"/>
<path d="M96.2512 18.1179C96.7653 18.6685 96.9179 19.497 96.5566 20.1556C96.2512 20.7165 95.7627 20.9018 95.3301 20.9481C94.8771 20.9944 94.4343 20.7989 94.1086 20.4747C93.9865 20.3563 93.8592 20.2483 93.7371 20.1453C92.4037 19.0802 90.4951 19.0647 89.2635 20.2431C88.9785 20.5158 88.7393 20.8194 88.5408 21.1282C87.9301 22.0802 87.64 23.2071 87.64 24.3443V31.5896C87.64 32.3563 87.0853 33.0407 86.332 33.1128C85.4668 33.1951 84.7441 32.5107 84.7441 31.6565V17.8452C84.7441 17.4387 84.907 17.0784 85.1666 16.8109C85.4261 16.5433 85.7569 16.3992 86.1335 16.3838C86.958 16.3529 87.6349 17.0784 87.6349 17.9172V18.9875C88.6019 17.4232 90.317 16.3838 92.2764 16.3838C93.844 16.3838 95.2537 17.0476 96.2512 18.1179Z" fill="white"/>
<path d="M62.4156 22.8213V31.6155C62.4156 32.3462 61.9066 33.0049 61.189 33.1129C60.3696 33.2364 59.652 32.655 59.5401 31.8779C59.5299 31.8111 59.5248 31.739 59.5248 31.667V23.0478C59.5248 21.6224 58.7207 20.305 57.433 19.7236C56.7511 19.4097 55.9877 19.2399 55.1886 19.2399C54.0639 19.2399 53.0206 19.5846 52.1503 20.1713C50.6489 21.1901 49.8041 22.9448 49.8041 24.7716V31.6052C49.8041 32.3719 49.2493 33.0563 48.4961 33.1284C47.6309 33.2107 46.9082 32.5263 46.9082 31.6721V17.8608C46.9082 17.4543 47.0711 17.0941 47.3306 16.8265C47.58 16.5743 47.921 16.4148 48.2976 16.3994C49.1221 16.3685 49.799 17.0941 49.799 17.9328V18.4165C51.2494 17.161 53.1274 16.4045 55.1835 16.4045C56.7765 16.4045 58.2677 16.8625 59.535 17.655C59.652 17.727 59.764 17.8042 59.876 17.8814C61.4791 18.998 62.4054 20.8659 62.4054 22.8368L62.4156 22.8213Z" fill="white"/>
<path d="M178.927 16.3896C178.55 16.4051 178.209 16.5646 177.96 16.8168C177.695 17.0792 177.538 17.4445 177.538 17.8511V18.4017C176.041 17.0998 174.077 16.333 171.939 16.3896C167.69 16.4977 164.153 19.9402 163.893 24.2318C163.598 29.0895 167.41 33.1289 172.153 33.1289C174.204 33.1289 176.087 32.3725 177.538 31.1169V31.6058C177.538 32.3674 178.087 33.0517 178.841 33.1238C179.706 33.2061 180.434 32.5217 180.434 31.6675V17.9282C180.434 17.0946 179.757 16.3639 178.932 16.3948L178.927 16.3896ZM172.153 30.2833C169.038 30.2833 166.524 27.6435 166.692 24.4583C166.845 21.5406 169.298 19.2095 172.189 19.225C173.324 19.2301 174.382 19.5903 175.253 20.1975C176.718 21.2216 177.538 22.9505 177.538 24.7516C177.538 26.5783 176.693 28.333 175.191 29.3468C174.321 29.9334 173.278 30.2782 172.153 30.2782V30.2833Z" fill="white"/>
<path d="M199 22.8213V31.6155C199 32.3462 198.491 33.0049 197.773 33.1129C196.954 33.2364 196.236 32.655 196.124 31.8779C196.114 31.8111 196.109 31.739 196.109 31.667V23.0478C196.109 21.6224 195.305 20.305 194.017 19.7236C193.335 19.4097 192.572 19.2399 191.773 19.2399C190.648 19.2399 189.605 19.5846 188.734 20.1713C187.233 21.1901 186.388 22.9448 186.388 24.7716V31.6052C186.388 32.3719 185.833 33.0563 185.08 33.1284C184.215 33.2107 183.492 32.5263 183.492 31.6721V17.8608C183.492 17.4543 183.655 17.0941 183.915 16.8265C184.164 16.5743 184.505 16.4148 184.882 16.3994C185.706 16.3685 186.383 17.0941 186.383 17.9328V18.4165C187.833 17.161 189.711 16.4045 191.768 16.4045C193.36 16.4045 194.852 16.8625 196.119 17.655C196.236 17.727 196.348 17.8042 196.46 17.8814C198.063 18.998 198.989 20.8659 198.989 22.8368L199 22.8213Z" fill="white"/>
<path d="M160.688 25.8871C161.308 25.8871 161.807 25.3777 161.807 24.755C161.807 24.1993 161.756 23.6538 161.655 23.129C160.937 19.285 157.7 16.3828 153.812 16.3828C149.924 16.3828 146.687 19.2799 145.969 23.129C145.867 23.6538 145.816 24.1993 145.816 24.755C145.816 25.141 145.842 25.5166 145.893 25.8871C146.422 29.9729 149.766 33.1221 153.812 33.1221C156.255 33.1221 158.443 31.9694 159.909 30.1633C160.036 30.0089 160.158 29.8494 160.275 29.6847C160.357 29.5046 160.403 29.2988 160.403 29.0878C160.403 28.3056 159.777 27.6727 159.003 27.6727C158.621 27.6727 158.28 27.8219 158.031 28.0741C157.96 28.177 157.883 28.2799 157.797 28.3777C156.83 29.5458 155.405 30.2816 153.817 30.2816C151.277 30.2816 149.155 28.4034 148.651 25.9025C148.651 25.8974 148.651 25.8871 148.661 25.8871H160.688ZM148.784 23.129C148.784 23.129 148.768 23.1187 148.773 23.1135C149.44 20.8597 151.445 19.2233 153.817 19.2233C156.041 19.2233 157.939 20.6641 158.718 22.7019C158.794 22.9077 158.642 23.129 158.423 23.129H148.784Z" fill="white"/>
<path d="M143.028 12.0343V31.5523C143.028 32.422 142.33 33.1269 141.475 33.1269C140.62 33.1269 139.918 32.422 139.918 31.5523V12.0343C139.918 11.6021 140.091 11.211 140.371 10.9228C140.656 10.6398 141.043 10.4648 141.47 10.4648C142.325 10.4648 143.022 11.1698 143.022 12.0343H143.028Z" fill="white"/>
<path d="M113.213 16.3177C112.475 16.0089 111.63 16.3691 111.325 17.1153L108.22 24.7619L106.999 27.7619L106.653 28.6161L105.533 26.1564L103.823 22.4051L101.385 17.0638C101.049 16.328 100.194 16.0089 99.4666 16.3434C98.9373 16.5904 98.6269 17.1204 98.6269 17.6762C98.6269 17.882 98.6727 18.0878 98.7592 18.2834L100.652 22.4309L101.879 25.1221L105.157 32.3057L104.017 35.1153C103.828 35.5732 103.447 35.9334 102.973 36.0569C102.739 36.1187 102.454 36.1547 102.103 36.1496C102.027 36.1496 101.95 36.1444 101.874 36.1393C101.828 36.1393 101.787 36.1341 101.742 36.129C101.207 36.0724 100.693 35.9386 100.215 35.7379L100.199 35.7276C100.082 35.6762 99.9603 35.6196 99.8432 35.5578C99.8432 35.5578 99.8381 35.5578 99.833 35.5578C99.543 35.4703 99.2071 35.4652 98.861 35.6093C98.4691 35.7739 98.1688 36.1187 98.0569 36.5304C97.8736 37.2148 98.1841 37.858 98.7083 38.1616C98.7185 38.1667 98.7286 38.1719 98.7388 38.177C98.7948 38.2027 98.8559 38.2336 98.917 38.2593C98.9322 38.2696 98.9424 38.2696 98.9577 38.2748C99.9857 38.7431 101.126 39.0003 102.327 39.0003C102.815 39.0003 103.294 38.9592 103.757 38.8717C105.004 38.6556 106.047 37.8065 106.531 36.6281L106.816 35.9283L108.312 32.2388L110.119 27.7928L114.007 18.2216C114.083 18.0415 114.119 17.8511 114.119 17.6659C114.119 17.0895 113.778 16.5441 113.218 16.3125L113.213 16.3177Z" fill="white"/>
<path d="M12.2969 21.957C11.8033 22.2812 11.2638 22.6003 10.6836 22.9244C11.218 22.6157 11.7625 22.2915 12.2969 21.957Z" fill="#FBE99F"/>
<path d="M18.3372 15.63C18.5611 14.8375 18.5662 13.9987 18.3066 13.1445C18.383 13.2886 18.7901 14.184 18.3372 15.63Z" fill="#FBE99F"/>
<path d="M9.68585 21.3245C18.4549 17.7276 18.292 13.1221 18.292 13.1221C18.292 13.1221 18.292 13.1221 18.292 13.1324C18.292 13.1324 18.292 13.1376 18.292 13.1479C18.5108 13.4721 20.8469 17.316 13.5283 22.0861L9.70621 24.659C27.5343 21.4429 20.9028 6.42231 20.9028 6.42231L25.2594 4.53895L20.9741 2.93861C20.9741 2.93861 18.1444 -1.70805 13.4062 0.684749C12.1033 1.33827 11.0193 2.37257 10.2355 3.61785C9.48736 4.80139 8.4644 6.54581 8.20993 7.53895C8.11323 7.91974 7.075 8.60928 6.80526 8.8923C5.80265 9.93175 4.84584 11.0638 4.04681 12.2731C1.38506 16.3177 0.825232 21.1496 0.367188 25.9146C0.367188 25.9146 0.927021 24.9163 9.69094 21.3297L9.68585 21.3245Z" fill="white"/>
<path d="M28.5416 34.3859C25.7425 36.5471 22.7041 37.8696 19.1975 38.3019C15.2532 38.7907 11.1665 38.1269 7.58354 36.3773C5.90405 35.554 4.42813 34.2521 3.29828 32.7495C2.7639 32.0394 2.30585 31.2778 1.92415 30.4802C1.81727 30.259 0.911361 28.3705 1.0844 28.2264C1.53736 27.8559 2.05647 27.5163 2.49925 27.2641L2.65702 27.1406C2.65702 27.1406 2.67229 27.1509 2.67738 27.1561C3.66981 28.5094 4.70295 29.5746 5.7361 30.4031C7.37997 31.7152 9.06964 32.4511 10.6932 32.8061C14.2201 33.5832 17.5689 32.5025 19.2739 31.777C20.0729 31.4374 20.9635 31.4271 21.7677 31.741L22.8517 32.1629L22.1392 32.5334C21.8135 32.6981 21.503 32.8885 21.1569 33.0068L20.1492 33.4082C19.8184 33.5626 19.4571 33.6243 19.111 33.7375C18.4188 33.9691 17.7012 34.0823 16.9836 34.2212C16.6223 34.283 16.2609 34.3036 15.8996 34.3447L15.355 34.3962L14.8105 34.4065C13.3549 34.4477 11.8841 34.3036 10.454 33.9794C9.01875 33.6603 7.61408 33.1921 6.30611 32.5077C7.59372 33.2384 8.98821 33.7684 10.4183 34.1441C11.8484 34.5248 13.3295 34.7255 14.8105 34.741L15.3703 34.7513L15.9301 34.7204C16.2966 34.6947 16.6732 34.6895 17.0396 34.6381C17.7776 34.5197 18.5206 34.4374 19.2433 34.2264C19.6047 34.1286 19.9762 34.0669 20.3223 33.9279L21.3809 33.5523C21.7422 33.4391 22.0679 33.259 22.4089 33.1046L23.0604 32.8164C23.5031 32.6209 23.9968 32.6106 24.4447 32.7856L25.0707 33.0274L25.4218 33.1664L25.7526 33.295C24.3836 34.1029 22.9637 34.8593 21.4318 35.3173C20.6429 35.6158 19.8082 35.7547 18.9889 35.9451C18.5715 36.0171 18.1491 36.0634 17.7318 36.1149C17.3144 36.1869 16.892 36.2024 16.4696 36.2127C14.785 36.3001 13.0801 36.1715 11.4158 35.837C9.75162 35.5025 8.11284 34.9828 6.57585 34.2418C8.08739 35.0343 9.71599 35.6055 11.3802 35.9965C13.0445 36.3979 14.7647 36.578 16.4747 36.5471C16.9073 36.5471 17.3348 36.5471 17.7623 36.4905C18.1898 36.4442 18.6173 36.4185 19.0448 36.3619C19.8897 36.1921 20.7498 36.0737 21.5692 35.7959C22.7754 35.482 24.1698 34.8645 25.4167 34.2315C26.1751 33.8456 27.0606 33.8044 27.8546 34.1132L28.5264 34.3756L28.5416 34.3859Z" fill="white"/>
<path d="M18.3022 13.1417C18.3022 13.1417 18.3022 13.1365 18.2971 13.1314C18.292 13.1262 18.292 13.1211 18.292 13.1211C18.292 13.1211 18.4549 17.7317 9.69096 21.3235C0.927039 24.9153 0.367206 25.9135 0.367206 25.9135L0.341759 26.1966L0.00585938 29.531C0.16363 29.0834 0.591139 28.6254 1.0899 28.224C2.13831 27.3647 3.5328 26.7163 3.5328 26.7163L4.21478 26.3561C4.43362 26.248 4.63211 26.14 4.82551 26.0473C5.20212 25.8569 5.50748 25.7077 5.6907 25.5997C6.72894 25.0233 8.34736 24.2309 10.0879 23.2635L10.1744 23.2171C10.3475 23.1194 10.5256 23.0268 10.6936 22.9238C11.228 22.6151 11.7725 22.2909 12.3069 21.9564C12.597 21.7763 12.8718 21.5911 13.1365 21.4161C15.5743 19.7746 17.7322 17.8244 18.3378 15.6477C18.3378 15.6425 18.3429 15.6322 18.3429 15.6271C18.5668 14.8346 18.5719 13.9959 18.3124 13.1417H18.3022Z" fill="#F4CA17"/>
</g>
<defs>
<clipPath id="clip0_315_16004">
<rect width="199" height="39" fill="white"/>
</clipPath>
</defs>
</svg>
