<svg width="20" height="22" viewBox="0 0 20 22" fill="none" xmlns="http://www.w3.org/2000/svg">
<path d="M17.4163 21.8332H2.24967C1.67504 21.8332 1.12394 21.6049 0.71761 21.1986C0.311281 20.7922 0.0830078 20.2411 0.0830078 19.6665V4.49984C0.0830078 3.9252 0.311281 3.3741 0.71761 2.96777C1.12394 2.56144 1.67504 2.33317 2.24967 2.33317H4.41634V0.166504H6.58301V2.33317H13.083V0.166504H15.2497V2.33317H17.4163C17.991 2.33317 18.5421 2.56144 18.9484 2.96777C19.3547 3.3741 19.583 3.9252 19.583 4.49984V19.6665C19.583 20.2411 19.3547 20.7922 18.9484 21.1986C18.5421 21.6049 17.991 21.8332 17.4163 21.8332ZM2.24967 8.83317V19.6665H17.4163V8.83317H2.24967ZM2.24967 4.49984V6.6665H17.4163V4.49984H2.24967ZM7.44968 18.5832H5.49967V16.6332L10.0497 12.094L11.9997 14.044L7.44968 18.5832ZM12.6768 13.3637L10.7268 11.4137L12.2163 9.93059L14.1663 11.8806L12.6822 13.3648L12.6768 13.3637Z" fill="#37A9FB"/>
</svg>
