<svg width="13" height="12" viewBox="0 0 13 12" fill="none" xmlns="http://www.w3.org/2000/svg">
<path d="M7.69332 4.00357L7.80963 4.23937L8.06982 4.27718L11.5736 4.78639L9.0381 7.25835L8.84988 7.44185L8.89434 7.70093L9.49314 11.1902L6.35966 9.54276L6.12698 9.42043L5.8943 9.54276L2.76083 11.1902L3.35962 7.70093L3.40408 7.44185L3.21587 7.25835L0.680413 4.78639L4.18414 4.27718L4.44433 4.23937L4.56064 4.00357L6.12698 0.828113L7.69332 4.00357ZM9.54666 11.2298C9.54675 11.2297 9.54685 11.2297 9.54694 11.2297C9.54704 11.2297 9.54714 11.2297 9.54724 11.2297L9.54666 11.2298ZM0.613124 4.72079C0.613135 4.7208 0.613147 4.72081 0.613158 4.72082L0.613124 4.72079Z" fill="white" stroke="#FCAE16"/>
</svg>
