<svg width="26" height="26" viewBox="0 0 26 26" fill="none" xmlns="http://www.w3.org/2000/svg">
<path d="M20.5833 3.25H5.41667C4.22005 3.25 3.25 4.22005 3.25 5.41667V20.5833C3.25 21.78 4.22005 22.75 5.41667 22.75H20.5833C21.78 22.75 22.75 21.78 22.75 20.5833V5.41667C22.75 4.22005 21.78 3.25 20.5833 3.25Z" stroke="#37A9FB" stroke-width="2" stroke-linecap="round" stroke-linejoin="round"/>
<path d="M9.21094 10.833C10.1084 10.833 10.8359 10.1055 10.8359 9.20801C10.8359 8.31055 10.1084 7.58301 9.21094 7.58301C8.31347 7.58301 7.58594 8.31055 7.58594 9.20801C7.58594 10.1055 8.31347 10.833 9.21094 10.833Z" stroke="#37A9FB" stroke-width="2" stroke-linecap="round" stroke-linejoin="round"/>
<path d="M22.7474 16.2497L17.3307 10.833L5.41406 22.7497" stroke="#37A9FB" stroke-width="2" stroke-linecap="round" stroke-linejoin="round"/>
</svg>
