<svg width="23" height="24" viewBox="0 0 23 24" fill="none" xmlns="http://www.w3.org/2000/svg">
<path d="M0.0320921 3.02239C1.30644 2.84233 2.54071 2.70686 3.75858 2.48907C6.23258 2.04664 8.58179 1.2561 10.7862 0.102002C11.0194 -0.0197519 11.197 -0.042045 11.4457 0.0874261C14.6839 1.76969 18.169 2.66485 21.8463 2.92464C22.1132 2.94351 22.2535 2.98895 22.2608 3.28562C22.3418 6.47696 22.2626 9.66057 21.4546 12.779C20.0864 18.0582 16.7407 21.794 11.4338 23.9513C11.2471 24.0276 10.9592 24.0096 10.768 23.9298C6.04858 21.9672 2.76661 18.7716 1.21171 14.078C0.558592 12.1042 0.198787 10.0841 0.0840134 8.02889C0.000210644 6.51897 0.0220722 5.00304 0.000210645 3.48969C-0.00252205 3.32163 0.0220722 3.15358 0.0311812 3.02239H0.0320921ZM9.30778 17.0799C12.3711 14.1466 15.3625 11.2828 18.2747 8.49362C17.7637 7.9663 17.2964 7.48443 16.8017 6.9734C14.2977 9.37419 11.8191 11.751 9.21578 14.2478C8.22563 13.2292 7.27647 12.2534 6.32094 11.27C5.74161 11.8187 5.24699 12.2869 4.8216 12.689C6.30454 14.1406 7.78567 15.5897 9.30778 17.0799Z" fill="#37A9FB"/>
<path d="M9.30649 17.0752C7.78438 15.585 6.30326 14.136 4.82031 12.6843C5.2457 12.2822 5.74032 11.8132 6.31965 11.2653C7.27519 12.2488 8.22434 13.2245 9.21449 14.2431C11.8178 11.7463 14.2973 9.36954 16.8005 6.96875C17.2951 7.47892 17.7624 7.96165 18.2734 8.48896C15.3603 11.2782 12.3698 14.142 9.30649 17.0752Z" fill="white"/>
</svg>
