<svg width="16" height="16" viewBox="0 0 16 16" fill="none" xmlns="http://www.w3.org/2000/svg">
<path d="M15.6544 7.44394L1.90441 0.568937C1.79664 0.515041 1.67559 0.493446 1.55583 0.506753C1.43607 0.520059 1.32272 0.567699 1.22941 0.643937C1.1403 0.71862 1.07379 0.816679 1.03735 0.927089C1.00092 1.0375 0.996 1.15589 1.02316 1.26894L2.67941 7.37519H9.74816V8.62519H2.67941L0.998158 14.7127C0.972674 14.8071 0.9697 14.9062 0.989473 15.0019C1.00925 15.0977 1.05122 15.1875 1.11201 15.2641C1.1728 15.3407 1.25071 15.402 1.33949 15.443C1.42827 15.484 1.52543 15.5036 1.62316 15.5002C1.721 15.4996 1.81733 15.4761 1.90441 15.4314L15.6544 8.55644C15.7568 8.50399 15.8427 8.4243 15.9027 8.32616C15.9627 8.22801 15.9944 8.11522 15.9944 8.00019C15.9944 7.88516 15.9627 7.77236 15.9027 7.67422C15.8427 7.57607 15.7568 7.49639 15.6544 7.44394Z" fill="white"/>
</svg>
