<svg width="26" height="27" viewBox="0 0 26 27" fill="none" xmlns="http://www.w3.org/2000/svg">
<path d="M12.5002 6.69211C12.8649 6.69211 13.2147 6.54722 13.4726 6.2893C13.7305 6.03139 13.8754 5.68158 13.8754 5.31684C13.8754 4.95209 13.7305 4.60228 13.4726 4.34437C13.2147 4.08646 12.8649 3.94156 12.5002 3.94156C12.1354 3.94156 11.7856 4.08646 11.5277 4.34437C11.2698 4.60228 11.1249 4.95209 11.1249 5.31684C11.1249 5.68158 11.2698 6.03139 11.5277 6.2893C11.7856 6.54722 12.1354 6.69211 12.5002 6.69211ZM1.77516 25.05H9.75456C9.50627 24.5283 9.33827 23.972 9.25626 23.4H2.60016V22.0256C2.60016 20.9613 3.46311 20.1 4.52571 20.1H9.75621C10.0499 19.4813 10.4492 18.9236 10.9343 18.45H9.20016V10.2H11.6752V17.8346C12.1718 17.4881 12.7279 17.2158 13.3252 17.0393V10.1984H15.8002V16.7984H17.4502V10.2H20.7502V16.8H21.5735C21.854 16.8 22.1296 16.8198 22.3985 16.8594V10.1984H22.552C24.0254 10.1984 24.631 8.30581 23.4265 7.45276L13.774 0.601961C13.4018 0.33759 12.9566 0.195557 12.5002 0.195557C12.0437 0.195557 11.5985 0.33759 11.2264 0.601961L1.57056 7.45276C0.369357 8.30581 0.971607 10.1984 2.44506 10.1984H2.60016V19.0094C1.60851 19.6463 0.950157 20.7584 0.950157 22.0239V24.2234C0.950157 24.4422 1.03708 24.652 1.19179 24.8067C1.34651 24.9614 1.55635 25.0484 1.77516 25.0484V25.05ZM12.1801 1.95001C12.2729 1.88423 12.3839 1.8489 12.4977 1.8489C12.6115 1.8489 12.7225 1.88423 12.8153 1.95001L22.1197 8.55001H2.87736L12.1817 1.95001H12.1801ZM4.24851 18.4583V10.2H7.54851V18.45H4.52406C4.43166 18.45 4.33926 18.4533 4.24851 18.4599V18.4583ZM14.9752 18.45C13.8811 18.45 12.8319 18.8846 12.0583 19.6582C11.2848 20.4318 10.8502 21.481 10.8502 22.575C10.8502 23.669 11.2848 24.7182 12.0583 25.4918C12.8319 26.2654 13.8811 26.7 14.9752 26.7H15.8002C16.019 26.7 16.2288 26.6131 16.3835 26.4584C16.5382 26.3037 16.6252 26.0938 16.6252 25.875C16.6252 25.6562 16.5382 25.4464 16.3835 25.2916C16.2288 25.1369 16.019 25.05 15.8002 25.05H14.9752C14.3187 25.05 13.6892 24.7893 13.2251 24.3251C12.7609 23.8609 12.5002 23.2314 12.5002 22.575C12.5002 21.9186 12.7609 21.2891 13.2251 20.8249C13.6892 20.3608 14.3187 20.1 14.9752 20.1H15.8002C16.019 20.1 16.2288 20.0131 16.3835 19.8584C16.5382 19.7037 16.6252 19.4938 16.6252 19.275C16.6252 19.0562 16.5382 18.8464 16.3835 18.6916C16.2288 18.5369 16.019 18.45 15.8002 18.45H14.9752ZM20.7502 18.45C20.5314 18.45 20.3215 18.5369 20.1668 18.6916C20.0121 18.8464 19.9252 19.0562 19.9252 19.275C19.9252 19.4938 20.0121 19.7037 20.1668 19.8584C20.3215 20.0131 20.5314 20.1 20.7502 20.1H21.5752C22.2316 20.1 22.8611 20.3608 23.3252 20.8249C23.7894 21.2891 24.0502 21.9186 24.0502 22.575C24.0502 23.2314 23.7894 23.8609 23.3252 24.3251C22.8611 24.7893 22.2316 25.05 21.5752 25.05H20.7502C20.5314 25.05 20.3215 25.1369 20.1668 25.2916C20.0121 25.4464 19.9252 25.6562 19.9252 25.875C19.9252 26.0938 20.0121 26.3037 20.1668 26.4584C20.3215 26.6131 20.5314 26.7 20.7502 26.7H21.5752C22.6692 26.7 23.7184 26.2654 24.492 25.4918C25.2656 24.7182 25.7002 23.669 25.7002 22.575C25.7002 21.481 25.2656 20.4318 24.492 19.6582C23.7184 18.8846 22.6692 18.45 21.5752 18.45H20.7502ZM14.1502 22.575C14.1502 22.3562 14.2371 22.1464 14.3918 21.9916C14.5465 21.8369 14.7564 21.75 14.9752 21.75H21.5752C21.794 21.75 22.0038 21.8369 22.1585 21.9916C22.3132 22.1464 22.4002 22.3562 22.4002 22.575C22.4002 22.7938 22.3132 23.0037 22.1585 23.1584C22.0038 23.3131 21.794 23.4 21.5752 23.4H14.9752C14.7564 23.4 14.5465 23.3131 14.3918 23.1584C14.2371 23.0037 14.1502 22.7938 14.1502 22.575Z" fill="#37A9FB"/>
</svg>
