<svg width="21" height="26" viewBox="0 0 21 26" fill="none" xmlns="http://www.w3.org/2000/svg">
<path d="M17.8535 6.63867V2.32031H20.625C20.7668 2.32031 20.8828 2.2043 20.8828 2.0625V0.257812C20.8828 0.116016 20.7668 0 20.625 0H0.257812C0.116016 0 0 0.116016 0 0.257812V2.0625C0 2.2043 0.116016 2.32031 0.257812 2.32031H3.0293V6.63867C3.0293 9.26514 4.3957 11.5758 6.4582 12.8906C4.3957 14.2055 3.0293 16.5161 3.0293 19.1426V23.4609H0.257812C0.116016 23.4609 0 23.577 0 23.7188V25.5234C0 25.6652 0.116016 25.7812 0.257812 25.7812H20.625C20.7668 25.7812 20.8828 25.6652 20.8828 25.5234V23.7188C20.8828 23.577 20.7668 23.4609 20.625 23.4609H17.8535V19.1426C17.8535 16.5161 16.4871 14.2055 14.4246 12.8906C16.4871 11.5758 17.8535 9.26514 17.8535 6.63867ZM15.5332 19.1426V23.4609H5.34961V19.1426C5.34961 17.7826 5.87812 16.5032 6.8417 15.5429C7.80205 14.5793 9.08145 14.0508 10.4414 14.0508C11.8014 14.0508 13.0808 14.5793 14.0411 15.5429C15.0047 16.5032 15.5332 17.7826 15.5332 19.1426ZM15.5332 6.63867C15.5332 7.99863 15.0047 9.27803 14.0411 10.2384C13.0808 11.202 11.8014 11.7305 10.4414 11.7305C9.08145 11.7305 7.80205 11.202 6.8417 10.2384C6.36687 9.76717 5.99044 9.20628 5.73429 8.58831C5.47814 7.97034 5.34738 7.30762 5.34961 6.63867V2.32031H15.5332V6.63867Z" fill="black"/>
</svg>
