<svg width="21" height="20" viewBox="0 0 21 20" fill="none" xmlns="http://www.w3.org/2000/svg">
<path d="M12.9977 6.34241L13.111 6.58404L13.3749 6.62436L19.3426 7.53657C19.3428 7.5366 19.343 7.53663 19.3432 7.53666C19.4671 7.55637 19.5859 7.68996 19.5599 7.86763L19.5599 7.86762L19.5591 7.87291C19.5499 7.94078 19.5199 8.00029 19.4774 8.04427C19.4773 8.04437 19.4772 8.04446 19.4771 8.04456L15.159 12.4724L14.9829 12.6531L15.0235 12.902L16.0439 19.1558L16.044 19.1561C16.0737 19.3378 15.9551 19.4739 15.8345 19.4957L15.8338 19.4959C15.7848 19.5048 15.7339 19.4965 15.6907 19.4723L15.6884 19.471L10.3491 16.5185L10.1072 16.3847L9.86522 16.5185L4.52593 19.471L4.52514 19.4715C4.48536 19.4936 4.4426 19.5025 4.40113 19.4994C4.35959 19.4963 4.31728 19.4809 4.27926 19.4519C4.24098 19.4226 4.20811 19.3802 4.18762 19.3271C4.16709 19.2739 4.16081 19.2145 4.17036 19.1564L4.17046 19.1558L5.19083 12.902L5.23145 12.6531L5.05532 12.4724L0.736392 8.04364L0.736361 8.04361C0.68542 7.99138 0.651981 7.91483 0.650905 7.82941C0.649834 7.7443 0.681104 7.66675 0.730768 7.61271C0.772466 7.56825 0.821458 7.54414 0.86886 7.53702L0.870118 7.53683L6.8395 6.62436L7.10332 6.58404L7.21664 6.34241L9.88399 0.654839C9.88414 0.654538 9.88428 0.654237 9.88443 0.653936C9.95615 0.50418 10.1055 0.47076 10.2106 0.52536L10.2112 0.525666C10.2582 0.549964 10.3013 0.592768 10.3291 0.652047L10.3293 0.652472L12.9977 6.34241Z" fill="#FCAE16" stroke="#FCAE16"/>
</svg>
